*
G04 Mass Parameters ***
*
G04 Image ***
*
%INH:\VEHICULO AUTOGUIADO\ORCAD\FUENTE CC-CC\PROYECTODEF.AST*%
%ICAS*%
%MOIN*%
%IPPOS*%
%ASAXBY*%
G74*%FSLAN2X34Y34*%
*
G04 Aperture Definitions ***
*
%ADD10C,0.0004*%
%ADD11C,0.0520*%
%ADD12R,0.0520X0.0520*%
%ADD13C,0.0640*%
%ADD14R,0.0640X0.0640*%
%ADD15C,0.0750*%
%ADD16R,0.0750X0.0750*%
%ADD17C,0.1000*%
%ADD18R,0.1000X0.1000*%
%ADD19C,0.1181*%
%ADD20C,0.0550*%
%ADD21C,0.0450*%
%ADD22C,0.0551*%
%ADD23R,0.0420X0.0420*%
%ADD24C,0.0700*%
%ADD25C,0.0200*%
%ADD26C,0.0300*%
%ADD27C,0.0201*%
%ADD28C,0.0827*%
%ADD29C,0.0100*%
%ADD30C,0.0080*%
%ADD31C,0.0520*%
%ADD32R,0.0520X0.0520*%
%ADD33C,0.0640*%
%ADD34R,0.0640X0.0640*%
%ADD35C,0.0750*%
%ADD36R,0.0750X0.0750*%
%ADD37C,0.1000*%
%ADD38R,0.1000X0.1000*%
%ADD39C,0.1181*%
%ADD40C,0.0550*%
%ADD41C,0.0450*%
%ADD42C,0.0551*%
%ADD43C,0.0420*%
%ADD44C,0.0039*%
%ADD45C,0.0500*%
%ADD46C,0.0004*%
%ADD47C,0.0010*%
%ADD48C,0.0098*%
*
G04 Plot Data ***
*
G54D29*
G01X-0214815Y0077428D02*
G03X-0214815Y0077427I0005510J0000000D01*
G01X-0209305Y0082938D02*
G03X-0214815Y0077428I0000000J0005510D01*
G01X-0209303Y0082938D02*
G03X-0209305Y0082938I0000002J0005510D01*
G01X-0209344Y0071915D02*
G03X-0209303Y0071915I0000000J0005471D01*
G01X-0214815Y0077386D02*
G03X-0209344Y0071915I0005471J0000000D01*
G01X-0214815Y0077427D02*
G03X-0214815Y0077386I0005471J0000041D01*
G01X-0209303Y0071915D02*
G03X-0203792Y0077426I0000000J0005511D01*
G01X-0209292Y0082939D02*
G03X-0209303Y0082938I0000000J0005501D01*
G01X-0203791Y0077438D02*
G03X-0209292Y0082939I0005501J0000000D01*
G01X-0203791Y0077427D02*
G03X-0203791Y0077438I0005501J0000011D01*
G01X-0214569Y0089447D02*
G03X-0214570Y0089446I0005510J0000000D01*
G01X-0209059Y0094957D02*
G03X-0214569Y0089447I0000000J0005510D01*
G01X-0209058Y0094957D02*
G03X-0209059Y0094957I0000001J0005510D01*
G01X-0209098Y0083933D02*
G03X-0209058Y0083934I0000000J0005472D01*
G01X-0214570Y0089405D02*
G03X-0209098Y0083933I0005472J0000000D01*
G01X-0214570Y0089446D02*
G03X-0214570Y0089405I0005472J0000041D01*
G01X-0209058Y0083934D02*
G03X-0203546Y0089445I0000001J0005511D01*
G01X-0209046Y0094957D02*
G03X-0209058Y0094957I0000000J0005500D01*
G01X-0203546Y0089457D02*
G03X-0209046Y0094957I0005500J0000000D01*
G01X-0203546Y0089446D02*
G03X-0203546Y0089457I0005500J0000011D01*
G01X-0214921Y0102639D02*
G03X-0214921Y0102638I0005510J0000000D01*
G01X-0209411Y0108149D02*
G03X-0214921Y0102639I0000000J0005510D01*
G01X-0209410Y0108149D02*
G03X-0209411Y0108149I0000001J0005510D01*
G01X-0209450Y0097126D02*
G03X-0209410Y0097126I0000000J0005471D01*
G01X-0214921Y0102597D02*
G03X-0209450Y0097126I0005471J0000000D01*
G01X-0214921Y0102638D02*
G03X-0214921Y0102597I0005471J0000041D01*
G01X-0209410Y0097126D02*
G03X-0203898Y0102637I0000001J0005511D01*
G01X-0209398Y0108149D02*
G03X-0209410Y0108149I0000000J0005500D01*
G01X-0203898Y0102649D02*
G03X-0209398Y0108149I0005500J0000000D01*
G01X-0203898Y0102638D02*
G03X-0203898Y0102649I0005500J0000011D01*
G01X-0214877Y0063887D02*
G03X-0214876Y0063886I0005511J0000000D01*
G01X-0209366Y0069398D02*
G03X-0214877Y0063887I0000000J0005511D01*
G01X-0209364Y0069398D02*
G03X-0209366Y0069398I0000002J0005511D01*
G01X-0209405Y0058374D02*
G03X-0209364Y0058374I0000000J0005471D01*
G01X-0214876Y0063845D02*
G03X-0209405Y0058374I0005471J0000000D01*
G01X-0214876Y0063886D02*
G03X-0214876Y0063845I0005471J0000041D01*
G01X-0209364Y0058374D02*
G03X-0203853Y0063885I0000000J0005511D01*
G01X-0209353Y0069398D02*
G03X-0209364Y0069398I0000000J0005501D01*
G01X-0203852Y0063897D02*
G03X-0209353Y0069398I0005501J0000000D01*
G01X-0203852Y0063886D02*
G03X-0203852Y0063897I0005501J0000011D01*
G01X-0214966Y0050760D02*
G03X-0214966Y0050759I0005510J0000000D01*
G01X-0209456Y0056270D02*
G03X-0214966Y0050760I0000000J0005510D01*
G01X-0209454Y0056270D02*
G03X-0209456Y0056270I0000002J0005510D01*
G01X-0209495Y0045247D02*
G03X-0209454Y0045247I0000000J0005471D01*
G01X-0214966Y0050718D02*
G03X-0209495Y0045247I0005471J0000000D01*
G01X-0214966Y0050759D02*
G03X-0214966Y0050718I0005471J0000041D01*
G01X-0209454Y0045247D02*
G03X-0203943Y0050758I0000000J0005511D01*
G01X-0209443Y0056270D02*
G03X-0209454Y0056270I0000000J0005500D01*
G01X-0203943Y0050770D02*
G03X-0209443Y0056270I0005500J0000000D01*
G01X-0203943Y0050759D02*
G03X-0203943Y0050770I0005500J0000011D01*
G01X-0214970Y0038085D02*
G03X-0214969Y0038084I0005511J0000000D01*
G01X-0209459Y0043596D02*
G03X-0214970Y0038085I0000000J0005511D01*
G01X-0209457Y0043596D02*
G03X-0209459Y0043596I0000002J0005511D01*
G01X-0209498Y0032572D02*
G03X-0209457Y0032572I0000000J0005471D01*
G01X-0214969Y0038043D02*
G03X-0209498Y0032572I0005471J0000000D01*
G01X-0214969Y0038084D02*
G03X-0214969Y0038043I0005471J0000041D01*
G01X-0209457Y0032572D02*
G03X-0203946Y0038083I0000000J0005511D01*
G01X-0209446Y0043596D02*
G03X-0209457Y0043596I0000000J0005501D01*
G01X-0203945Y0038095D02*
G03X-0209446Y0043596I0005501J0000000D01*
G01X-0203945Y0038084D02*
G03X-0203945Y0038095I0005501J0000011D01*
G54D30*
G01X-0230030Y0098904D02*
X-0230363Y0099070D01*
Y0098848D01*
X-0230030Y0098661D02*
Y0098549D01*
Y0098605D02*
X-0230363D01*
X-0230307Y0098549D01*
X-0230141Y0098112D02*
X-0230085D01*
X-0230030Y0098139D01*
Y0098251D01*
X-0230085Y0098278D01*
X-0230363D01*
Y0098306D02*
Y0098195D01*
X-0233044Y0099913D02*
X-0232988Y0099885D01*
Y0099719D01*
X-0233044Y0099691D01*
X-0233266D01*
X-0233322Y0099719D01*
Y0099885D01*
X-0233266Y0099913D01*
X-0233044Y0099503D02*
X-0232988Y0099475D01*
Y0099309D01*
X-0233044Y0099281D01*
X-0233266D01*
X-0233322Y0099309D01*
Y0099475D01*
X-0233266Y0099503D01*
X-0233322Y0099093D02*
X-0233211D01*
X-0232988Y0098982D01*
X-0233211Y0098871D01*
X-0233322D01*
X-0233155Y0098489D02*
Y0098655D01*
X-0233100Y0098683D01*
X-0233044D01*
X-0232988Y0098655D01*
Y0098489D01*
X-0233044Y0098461D01*
X-0233100D01*
X-0233322Y0098572D01*
X-0233044Y0098051D02*
X-0232988Y0098106D01*
Y0098217D01*
X-0233044Y0098273D01*
X-0233100D01*
X-0233211Y0098162D01*
X-0233322Y0098273D01*
Y0098051D01*
X-0231840Y0097114D02*
Y0097003D01*
Y0097058D02*
X-0232174D01*
X-0232118Y0097003D01*
X-0225903Y0064587D02*
X-0226125D01*
X-0225903Y0064809D01*
Y0064865D01*
X-0225931Y0064921D01*
X-0226097D01*
X-0226125Y0064865D01*
X-0226313Y0064587D02*
X-0226424D01*
X-0226368D02*
Y0064921D01*
X-0226424Y0064865D01*
X-0226667Y0064643D02*
X-0226695Y0064587D01*
X-0226862D01*
X-0226889Y0064643D01*
Y0064865D01*
X-0226862Y0064921D01*
X-0226695D01*
X-0226667Y0064865D01*
X-0224712Y0063939D02*
Y0063662D01*
X-0224739Y0063606D01*
X-0224906D01*
X-0224934Y0063662D01*
Y0063939D01*
X-0225122Y0063606D02*
X-0225233D01*
X-0225177D02*
Y0063939D01*
X-0225233Y0063884D01*
X-0225615Y0063606D02*
X-0225671Y0063662D01*
X-0225698Y0063717D01*
Y0063828D01*
X-0225671Y0063884D01*
X-0225615Y0063939D01*
X-0225559D01*
X-0225504Y0063884D01*
X-0225476Y0063828D01*
Y0063717D01*
X-0225504Y0063662D01*
X-0225559Y0063606D01*
X-0225615D01*
X-0226025D02*
X-0226081Y0063662D01*
X-0226108Y0063717D01*
Y0063828D01*
X-0226081Y0063884D01*
X-0226025Y0063939D01*
X-0225969D01*
X-0225914Y0063884D01*
X-0225886Y0063828D01*
Y0063717D01*
X-0225914Y0063662D01*
X-0225969Y0063606D01*
X-0226025D01*
X-0226352D02*
X-0226296D01*
Y0063662D01*
X-0226352D01*
Y0063606D01*
X-0226734D02*
X-0226789Y0063662D01*
X-0226817Y0063717D01*
Y0063828D01*
X-0226789Y0063884D01*
X-0226734Y0063939D01*
X-0226678D01*
X-0226623Y0063884D01*
X-0226595Y0063828D01*
Y0063717D01*
X-0226623Y0063662D01*
X-0226678Y0063606D01*
X-0226734D01*
X-0230813Y0064755D02*
X-0230840Y0064699D01*
Y0064644D01*
X-0230813Y0064588D01*
X-0230646D01*
X-0230618Y0064644D01*
Y0064699D01*
X-0230646Y0064755D01*
X-0230813D01*
X-0230840Y0064810D01*
Y0064866D01*
X-0230813Y0064922D01*
X-0230646D01*
X-0230618Y0064866D01*
Y0064810D01*
X-0230646Y0064755D01*
X-0230430Y0064922D02*
X-0230319D01*
X-0230375D02*
Y0064588D01*
X-0230319Y0064644D01*
X-0229993Y0064755D02*
X-0230076Y0064922D01*
X-0229854Y0064755D02*
X-0230020D01*
X-0230076Y0064699D01*
Y0064644D01*
X-0230020Y0064588D01*
X-0229854D01*
Y0064922D01*
X-0231017Y0065903D02*
X-0230850Y0065736D01*
X-0231017Y0065569D01*
X-0230795D02*
Y0065903D01*
X-0230413Y0065736D02*
X-0230579D01*
X-0230607Y0065792D01*
Y0065847D01*
X-0230579Y0065903D01*
X-0230413D01*
X-0230385Y0065847D01*
Y0065792D01*
X-0230496Y0065569D01*
X-0230141Y0065903D02*
X-0230197D01*
Y0065847D01*
X-0230141D01*
Y0065903D01*
X-0229676Y0065847D02*
X-0229704Y0065903D01*
X-0229870D01*
X-0229898Y0065847D01*
Y0065736D01*
X-0229843Y0065681D01*
X-0229676D01*
Y0065569D01*
X-0229898D01*
X-0221929Y0075041D02*
Y0075263D01*
X-0221706Y0075152D01*
Y0075097D01*
X-0222040D01*
Y0075451D02*
Y0075673D01*
X-0221817Y0075451D01*
X-0221762D01*
X-0221706Y0075479D01*
Y0075646D01*
X-0221762Y0075673D01*
X-0221873Y0075944D02*
X-0222040Y0075861D01*
X-0221873Y0076083D02*
Y0075917D01*
X-0221817Y0075861D01*
X-0221762D01*
X-0221706Y0075917D01*
Y0076083D01*
X-0222040D01*
X-0223021Y0075413D02*
X-0222965Y0075469D01*
X-0222910Y0075497D01*
X-0222799D01*
X-0222743Y0075469D01*
X-0222688Y0075413D01*
Y0075358D01*
X-0222743Y0075302D01*
X-0222799Y0075274D01*
X-0222910D01*
X-0222965Y0075302D01*
X-0223021Y0075358D01*
Y0075413D01*
Y0075684D02*
Y0075796D01*
Y0075740D02*
X-0222688D01*
X-0222743Y0075796D01*
X-0223021Y0076039D02*
Y0076261D01*
X-0222799Y0076039D01*
X-0222743D01*
X-0222688Y0076067D01*
Y0076233D01*
X-0222743Y0076261D01*
X-0230674Y0063347D02*
X-0230840Y0063013D01*
X-0230618D01*
X-0230430Y0063347D02*
X-0230319D01*
X-0230375D02*
Y0063013D01*
X-0230319Y0063069D01*
X-0229993Y0063180D02*
X-0230076Y0063347D01*
X-0229854Y0063180D02*
X-0230020D01*
X-0230076Y0063125D01*
Y0063069D01*
X-0230020Y0063013D01*
X-0229854D01*
Y0063347D01*
X-0219260Y0064990D02*
X-0219316Y0064935D01*
Y0064824D01*
X-0219260Y0064768D01*
X-0219205D01*
X-0219093Y0064879D01*
X-0218982Y0064768D01*
Y0064990D01*
X-0219316Y0065372D02*
X-0218982D01*
X-0219316Y0065400D02*
Y0065234D01*
X-0219205Y0065178D01*
X-0219093D01*
X-0218982Y0065234D01*
Y0065400D01*
X-0218966Y0063816D02*
X-0218910Y0063871D01*
X-0218854Y0063899D01*
X-0218743D01*
X-0218688Y0063871D01*
X-0218632Y0063816D01*
Y0063760D01*
X-0218688Y0063705D01*
X-0218743Y0063677D01*
X-0218854D01*
X-0218910Y0063705D01*
X-0218966Y0063760D01*
Y0063816D01*
X-0218910Y0064309D02*
X-0218966Y0064281D01*
Y0064115D01*
X-0218910Y0064087D01*
X-0218799D01*
X-0218743Y0064142D01*
Y0064309D01*
X-0218632D01*
Y0064087D01*
X-0218799Y0064525D02*
X-0218743Y0064497D01*
X-0218688D01*
X-0218632Y0064525D01*
Y0064691D01*
X-0218688Y0064719D01*
X-0218743D01*
X-0218799Y0064691D01*
Y0064525D01*
X-0218854Y0064497D01*
X-0218910D01*
X-0218966Y0064525D01*
Y0064691D01*
X-0218910Y0064719D01*
X-0218854D01*
X-0218799Y0064691D01*
Y0064990D02*
X-0218966Y0064907D01*
X-0218799Y0065129D02*
Y0064962D01*
X-0218743Y0064907D01*
X-0218688D01*
X-0218632Y0064962D01*
Y0065129D01*
X-0218966D01*
Y0065317D02*
X-0218632D01*
X-0218688Y0065372D01*
X-0218799Y0065428D01*
X-0218688Y0065483D01*
X-0218632Y0065539D01*
X-0218966D01*
X-0230625Y0074425D02*
X-0230598Y0074370D01*
X-0230431D01*
X-0230403Y0074425D01*
Y0074536D01*
X-0230459Y0074592D01*
X-0230625D01*
Y0074703D01*
X-0230403D01*
X-0230813Y0074370D02*
X-0231035D01*
X-0230813Y0074592D01*
Y0074648D01*
X-0230841Y0074703D01*
X-0231008D01*
X-0231035Y0074648D01*
X-0231307Y0074536D02*
X-0231223Y0074370D01*
X-0231445Y0074536D02*
X-0231279D01*
X-0231223Y0074592D01*
Y0074648D01*
X-0231279Y0074703D01*
X-0231445D01*
Y0074370D01*
X-0230282Y0073389D02*
X-0230449Y0073555D01*
X-0230282Y0073722D01*
X-0230504D02*
Y0073389D01*
X-0230887Y0073555D02*
X-0230720D01*
X-0230692Y0073500D01*
Y0073444D01*
X-0230720Y0073389D01*
X-0230887D01*
X-0230914Y0073444D01*
Y0073500D01*
X-0230803Y0073722D01*
X-0231158Y0073389D02*
X-0231102D01*
Y0073444D01*
X-0231158D01*
Y0073389D01*
X-0231623Y0073444D02*
X-0231596Y0073389D01*
X-0231429D01*
X-0231401Y0073444D01*
Y0073555D01*
X-0231457Y0073611D01*
X-0231623D01*
Y0073722D01*
X-0231401D01*
X-0221977Y0069585D02*
Y0069696D01*
Y0069640D02*
X-0221643D01*
X-0221699Y0069696D01*
X-0221977Y0069939D02*
Y0070161D01*
X-0221755Y0069939D01*
X-0221699D01*
X-0221643Y0069967D01*
Y0070134D01*
X-0221699Y0070161D01*
X-0221810Y0070433D02*
X-0221977Y0070349D01*
X-0221810Y0070571D02*
Y0070405D01*
X-0221755Y0070349D01*
X-0221699D01*
X-0221643Y0070405D01*
Y0070571D01*
X-0221977D01*
X-0222958Y0069707D02*
X-0222791Y0069874D01*
X-0222625Y0069707D01*
Y0069929D02*
X-0222958D01*
Y0070284D02*
X-0222625Y0070117D01*
Y0070339D01*
X-0222847Y0070527D02*
Y0070749D01*
X-0222625Y0070638D01*
Y0070583D01*
X-0222958D01*
X-0199194Y0090739D02*
Y0090461D01*
X-0199222Y0090405D01*
X-0199388D01*
X-0199416Y0090461D01*
Y0090739D01*
X-0199743Y0090405D02*
X-0199798Y0090461D01*
X-0199826Y0090517D01*
Y0090628D01*
X-0199798Y0090683D01*
X-0199743Y0090739D01*
X-0199687D01*
X-0199632Y0090683D01*
X-0199604Y0090628D01*
Y0090517D01*
X-0199632Y0090461D01*
X-0199687Y0090405D01*
X-0199743D01*
X-0200181D02*
X-0200014Y0090739D01*
X-0200236D01*
X-0200424Y0090517D02*
X-0200646D01*
X-0200535Y0090739D01*
X-0200479D01*
Y0090405D01*
X-0200726Y0090836D02*
Y0090570D01*
X-0200592Y0090703D02*
X-0200859D01*
X-0199746Y0093387D02*
X-0199801Y0093442D01*
X-0199829Y0093498D01*
Y0093609D01*
X-0199801Y0093664D01*
X-0199746Y0093720D01*
X-0199690D01*
X-0199634Y0093664D01*
X-0199607Y0093609D01*
Y0093498D01*
X-0199634Y0093442D01*
X-0199690Y0093387D01*
X-0199746D01*
X-0200017D02*
X-0200128D01*
X-0200072D02*
Y0093720D01*
X-0200128Y0093664D01*
X-0200371Y0093442D02*
X-0200399Y0093387D01*
X-0200566D01*
X-0200593Y0093442D01*
Y0093664D01*
X-0200566Y0093720D01*
X-0200399D01*
X-0200371Y0093664D01*
X-0230276Y0081897D02*
X-0230220Y0081952D01*
X-0230165Y0081980D01*
X-0230054D01*
X-0229998Y0081952D01*
X-0229943Y0081897D01*
Y0081841D01*
X-0229998Y0081786D01*
X-0230054Y0081758D01*
X-0230165D01*
X-0230220Y0081786D01*
X-0230276Y0081841D01*
Y0081897D01*
Y0082168D02*
Y0082279D01*
Y0082224D02*
X-0229943D01*
X-0229998Y0082279D01*
X-0230109Y0082606D02*
X-0230276Y0082522D01*
X-0230109Y0082745D02*
Y0082578D01*
X-0230054Y0082522D01*
X-0229998D01*
X-0229943Y0082578D01*
Y0082745D01*
X-0230276D01*
X-0231257Y0082346D02*
X-0230924D01*
X-0230979Y0082401D01*
X-0231090Y0082457D01*
X-0230979Y0082513D01*
X-0230924Y0082568D01*
X-0231257D01*
Y0082756D02*
Y0082867D01*
Y0082811D02*
X-0230924D01*
X-0230979Y0082867D01*
X-0230633Y0079173D02*
X-0230744D01*
X-0230688D02*
Y0079506D01*
X-0230744Y0079451D01*
X-0230987Y0079173D02*
X-0231098D01*
X-0231042D02*
Y0079506D01*
X-0231098Y0079451D01*
X-0231425Y0079340D02*
X-0231341Y0079173D01*
X-0231564Y0079340D02*
X-0231397D01*
X-0231341Y0079395D01*
Y0079451D01*
X-0231397Y0079506D01*
X-0231564D01*
Y0079173D01*
X-0230400Y0078192D02*
X-0230567Y0078358D01*
X-0230400Y0078525D01*
X-0230623D02*
Y0078192D01*
X-0231005Y0078358D02*
X-0230838D01*
X-0230810Y0078303D01*
Y0078247D01*
X-0230838Y0078192D01*
X-0231005D01*
X-0231033Y0078247D01*
Y0078303D01*
X-0230921Y0078525D01*
X-0231276Y0078192D02*
X-0231220D01*
Y0078247D01*
X-0231276D01*
Y0078192D01*
X-0231741Y0078247D02*
X-0231714Y0078192D01*
X-0231547D01*
X-0231519Y0078247D01*
Y0078358D01*
X-0231575Y0078414D01*
X-0231741D01*
Y0078525D01*
X-0231519D01*
X-0226302Y0074997D02*
X-0226135Y0075330D01*
X-0226357D01*
X-0226545Y0075052D02*
X-0226573Y0074997D01*
X-0226740D01*
X-0226767Y0075052D01*
Y0075274D01*
X-0226740Y0075330D01*
X-0226573D01*
X-0226545Y0075274D01*
X-0224590Y0074349D02*
Y0074071D01*
X-0224617Y0074016D01*
X-0224784D01*
X-0224812Y0074071D01*
Y0074349D01*
X-0225000Y0074016D02*
X-0225111D01*
X-0225055D02*
Y0074349D01*
X-0225111Y0074293D01*
X-0225493Y0074016D02*
X-0225549Y0074071D01*
X-0225576Y0074127D01*
Y0074238D01*
X-0225549Y0074293D01*
X-0225493Y0074349D01*
X-0225437D01*
X-0225382Y0074293D01*
X-0225354Y0074238D01*
Y0074127D01*
X-0225382Y0074071D01*
X-0225437Y0074016D01*
X-0225493D01*
X-0225903D02*
X-0225959Y0074071D01*
X-0225986Y0074127D01*
Y0074238D01*
X-0225959Y0074293D01*
X-0225903Y0074349D01*
X-0225847D01*
X-0225792Y0074293D01*
X-0225764Y0074238D01*
Y0074127D01*
X-0225792Y0074071D01*
X-0225847Y0074016D01*
X-0225903D01*
X-0226230D02*
X-0226174D01*
Y0074071D01*
X-0226230D01*
Y0074016D01*
X-0226612D02*
X-0226667Y0074071D01*
X-0226695Y0074127D01*
Y0074238D01*
X-0226667Y0074293D01*
X-0226612Y0074349D01*
X-0226556D01*
X-0226501Y0074293D01*
X-0226473Y0074238D01*
Y0074127D01*
X-0226501Y0074071D01*
X-0226556Y0074016D01*
X-0226612D01*
X-0230959Y0077765D02*
X-0231126D01*
X-0231154Y0077820D01*
Y0077876D01*
X-0231126Y0077931D01*
X-0230959D01*
X-0230931Y0077876D01*
Y0077820D01*
X-0231042Y0077598D01*
X-0231425Y0077765D02*
X-0231341Y0077598D01*
X-0231564Y0077765D02*
X-0231397D01*
X-0231341Y0077820D01*
Y0077876D01*
X-0231397Y0077931D01*
X-0231564D01*
Y0077598D01*
X-0230400Y0076617D02*
X-0230567Y0076784D01*
X-0230400Y0076950D01*
X-0230623D02*
Y0076617D01*
X-0231005Y0076784D02*
X-0230838D01*
X-0230810Y0076728D01*
Y0076672D01*
X-0230838Y0076617D01*
X-0231005D01*
X-0231033Y0076672D01*
Y0076728D01*
X-0230921Y0076950D01*
X-0231276Y0076617D02*
X-0231220D01*
Y0076672D01*
X-0231276D01*
Y0076617D01*
X-0231741Y0076672D02*
X-0231714Y0076617D01*
X-0231547D01*
X-0231519Y0076672D01*
Y0076784D01*
X-0231575Y0076839D01*
X-0231741D01*
Y0076950D01*
X-0231519D01*
X-0201709Y0080984D02*
Y0080718D01*
X-0201576Y0080851D02*
X-0201842D01*
X-0200812Y0083590D02*
X-0200785Y0083535D01*
X-0200618D01*
X-0200590Y0083590D01*
Y0083701D01*
X-0200646Y0083757D01*
X-0200812D01*
Y0083868D01*
X-0200590D01*
X-0201000Y0083535D02*
X-0201111D01*
X-0201056D02*
Y0083868D01*
X-0201111Y0083812D01*
X-0201355Y0083590D02*
X-0201382Y0083535D01*
X-0201549D01*
X-0201577Y0083590D01*
Y0083812D01*
X-0201549Y0083868D01*
X-0201382D01*
X-0201355Y0083812D01*
X-0216348Y0069877D02*
X-0216293Y0069933D01*
Y0070044D01*
X-0216348Y0070099D01*
X-0216404D01*
X-0216515Y0069988D01*
X-0216626Y0070099D01*
Y0069877D01*
X-0216293Y0069689D02*
X-0216626D01*
X-0216571Y0069634D01*
X-0216459Y0069578D01*
X-0216571Y0069523D01*
X-0216626Y0069467D01*
X-0216293D01*
X-0218135Y0072998D02*
Y0072831D01*
X-0217968Y0073054D02*
Y0072831D01*
X-0218301D01*
Y0073054D01*
X-0217968Y0072644D02*
Y0072533D01*
Y0072588D02*
X-0218301D01*
Y0072644D02*
Y0072533D01*
X-0218246Y0072289D02*
X-0218301Y0072261D01*
Y0072095D01*
X-0218246Y0072067D01*
X-0218190D01*
X-0218135Y0072095D01*
Y0072261D01*
X-0218079Y0072289D01*
X-0218024D01*
X-0217968Y0072261D01*
Y0072095D01*
X-0218024Y0072067D01*
X-0218301Y0071879D02*
X-0217968Y0071713D01*
Y0071358D02*
X-0218024Y0071303D01*
X-0218079Y0071275D01*
X-0218190D01*
X-0218246Y0071303D01*
X-0218301Y0071358D01*
Y0071414D01*
X-0218246Y0071469D01*
X-0218190Y0071497D01*
X-0218079D01*
X-0218024Y0071469D01*
X-0217968Y0071414D01*
Y0071358D01*
Y0070948D02*
X-0218024Y0070893D01*
X-0218079Y0070865D01*
X-0218190D01*
X-0218246Y0070893D01*
X-0218301Y0070948D01*
Y0071004D01*
X-0218246Y0071059D01*
X-0218190Y0071087D01*
X-0218079D01*
X-0218024Y0071059D01*
X-0217968Y0071004D01*
Y0070948D01*
Y0070677D02*
Y0070566D01*
Y0070621D02*
X-0218301D01*
X-0218246Y0070566D01*
X-0217968Y0070323D02*
Y0070156D01*
X-0218301Y0070323D01*
Y0070156D01*
Y0069940D02*
X-0218024D01*
X-0217968Y0069913D01*
Y0069746D01*
X-0218024Y0069718D01*
X-0218301D01*
X-0217968Y0069336D02*
X-0218301D01*
X-0217968Y0069308D02*
Y0069475D01*
X-0218024Y0069530D01*
X-0218079D01*
X-0218135Y0069503D01*
Y0069336D02*
Y0069503D01*
X-0218190Y0069530D01*
X-0218246D01*
X-0218301Y0069475D01*
Y0069308D01*
X-0216505Y0080548D02*
Y0080326D01*
X-0216728Y0080548D01*
X-0216783D01*
X-0216839Y0080520D01*
Y0080354D01*
X-0216783Y0080326D01*
X-0216505Y0080138D02*
X-0216839D01*
X-0216783Y0080082D01*
X-0216672Y0080027D01*
X-0216783Y0079971D01*
X-0216839Y0079916D01*
X-0216505D01*
X-0218347Y0083447D02*
Y0083280D01*
X-0218181Y0083502D02*
Y0083280D01*
X-0218514D01*
Y0083502D01*
X-0218181Y0083092D02*
Y0082981D01*
Y0083037D02*
X-0218514D01*
Y0083092D02*
Y0082981D01*
X-0218458Y0082738D02*
X-0218514Y0082710D01*
Y0082544D01*
X-0218458Y0082516D01*
X-0218403D01*
X-0218347Y0082544D01*
Y0082710D01*
X-0218292Y0082738D01*
X-0218236D01*
X-0218181Y0082710D01*
Y0082544D01*
X-0218236Y0082516D01*
X-0218514Y0082328D02*
X-0218181Y0082161D01*
Y0081807D02*
X-0218236Y0081751D01*
X-0218292Y0081724D01*
X-0218403D01*
X-0218458Y0081751D01*
X-0218514Y0081807D01*
Y0081863D01*
X-0218458Y0081918D01*
X-0218403Y0081946D01*
X-0218292D01*
X-0218236Y0081918D01*
X-0218181Y0081863D01*
Y0081807D01*
Y0081397D02*
X-0218236Y0081341D01*
X-0218292Y0081314D01*
X-0218403D01*
X-0218458Y0081341D01*
X-0218514Y0081397D01*
Y0081453D01*
X-0218458Y0081508D01*
X-0218403Y0081536D01*
X-0218292D01*
X-0218236Y0081508D01*
X-0218181Y0081453D01*
Y0081397D01*
Y0081126D02*
Y0081015D01*
Y0081070D02*
X-0218514D01*
X-0218458Y0081015D01*
X-0218181Y0080771D02*
Y0080605D01*
X-0218514Y0080771D01*
Y0080605D01*
Y0080389D02*
X-0218236D01*
X-0218181Y0080361D01*
Y0080195D01*
X-0218236Y0080167D01*
X-0218514D01*
X-0218181Y0079785D02*
X-0218514D01*
X-0218181Y0079757D02*
Y0079924D01*
X-0218236Y0079979D01*
X-0218292D01*
X-0218347Y0079951D01*
Y0079785D02*
Y0079951D01*
X-0218403Y0079979D01*
X-0218458D01*
X-0218514Y0079924D01*
Y0079757D01*
X-0219228Y0075271D02*
Y0075049D01*
X-0219450Y0075271D01*
X-0219505D01*
X-0219561Y0075244D01*
Y0075077D01*
X-0219505Y0075049D01*
X-0219228Y0074667D02*
X-0219561D01*
X-0219228Y0074639D02*
Y0074806D01*
X-0219339Y0074861D01*
X-0219450D01*
X-0219561Y0074806D01*
Y0074639D01*
X-0219578Y0076224D02*
X-0219633Y0076168D01*
X-0219689Y0076140D01*
X-0219800D01*
X-0219856Y0076168D01*
X-0219911Y0076224D01*
Y0076279D01*
X-0219856Y0076335D01*
X-0219800Y0076363D01*
X-0219689D01*
X-0219633Y0076335D01*
X-0219578Y0076279D01*
Y0076224D01*
X-0219633Y0075730D02*
X-0219578Y0075758D01*
Y0075925D01*
X-0219633Y0075953D01*
X-0219744D01*
X-0219800Y0075897D01*
Y0075730D01*
X-0219911D01*
Y0075953D01*
X-0219744Y0075515D02*
X-0219800Y0075543D01*
X-0219856D01*
X-0219911Y0075515D01*
Y0075348D01*
X-0219856Y0075320D01*
X-0219800D01*
X-0219744Y0075348D01*
Y0075515D01*
X-0219689Y0075543D01*
X-0219633D01*
X-0219578Y0075515D01*
Y0075348D01*
X-0219633Y0075320D01*
X-0219689D01*
X-0219744Y0075348D01*
Y0075049D02*
X-0219578Y0075133D01*
X-0219744Y0074910D02*
Y0075077D01*
X-0219800Y0075133D01*
X-0219856D01*
X-0219911Y0075077D01*
Y0074910D01*
X-0219578D01*
Y0074723D02*
X-0219911D01*
X-0219856Y0074667D01*
X-0219744Y0074611D01*
X-0219856Y0074556D01*
X-0219911Y0074500D01*
X-0219578D01*
X-0221977Y0080608D02*
Y0080831D01*
X-0221755Y0080608D01*
X-0221699D01*
X-0221643Y0080636D01*
Y0080803D01*
X-0221699Y0080831D01*
X-0221977Y0081018D02*
Y0081130D01*
Y0081074D02*
X-0221643D01*
X-0221699Y0081130D01*
X-0221810Y0081456D02*
X-0221977Y0081373D01*
X-0221810Y0081595D02*
Y0081428D01*
X-0221755Y0081373D01*
X-0221699D01*
X-0221643Y0081428D01*
Y0081595D01*
X-0221977D01*
X-0222958Y0080731D02*
X-0222791Y0080897D01*
X-0222625Y0080731D01*
Y0080953D02*
X-0222958D01*
Y0081307D02*
X-0222625Y0081141D01*
Y0081363D01*
X-0222847Y0081551D02*
Y0081773D01*
X-0222625Y0081662D01*
Y0081606D01*
X-0222958D01*
X-0220409Y0080831D02*
X-0220465Y0080775D01*
Y0080664D01*
X-0220409Y0080608D01*
X-0220354D01*
X-0220243Y0080720D01*
X-0220132Y0080608D01*
Y0080831D01*
X-0220465Y0081018D02*
Y0081130D01*
Y0081074D02*
X-0220132D01*
X-0220187Y0081130D01*
X-0220298Y0081456D02*
X-0220465Y0081373D01*
X-0220298Y0081595D02*
Y0081428D01*
X-0220243Y0081373D01*
X-0220187D01*
X-0220132Y0081428D01*
Y0081595D01*
X-0220465D01*
X-0221446Y0081196D02*
X-0221279Y0081363D01*
X-0221113Y0081196D01*
Y0081418D02*
X-0221446D01*
Y0081606D02*
Y0081717D01*
Y0081662D02*
X-0221113D01*
X-0221168Y0081717D01*
X-0228159Y0083145D02*
Y0082978D01*
X-0228215Y0082950D01*
X-0228271D01*
X-0228326Y0082978D01*
Y0083145D01*
X-0228271Y0083172D01*
X-0228215D01*
X-0227993Y0083061D01*
X-0228271Y0083360D02*
X-0228326Y0083388D01*
Y0083555D01*
X-0228271Y0083582D01*
X-0228048D01*
X-0227993Y0083555D01*
Y0083388D01*
X-0228048Y0083360D01*
X-0228974Y0082225D02*
X-0229252D01*
X-0229307Y0082252D01*
Y0082419D01*
X-0229252Y0082447D01*
X-0228974D01*
X-0229307Y0082635D02*
Y0082746D01*
Y0082690D02*
X-0228974D01*
X-0229030Y0082746D01*
X-0229307Y0083045D02*
Y0082989D01*
X-0229252D01*
Y0083045D01*
X-0229307D01*
Y0083427D02*
X-0229252Y0083482D01*
X-0229196Y0083510D01*
X-0229085D01*
X-0229030Y0083482D01*
X-0228974Y0083427D01*
Y0083371D01*
X-0229030Y0083316D01*
X-0229085Y0083288D01*
X-0229196D01*
X-0229252Y0083316D01*
X-0229307Y0083371D01*
Y0083427D01*
X-0226635Y0042540D02*
X-0226857D01*
X-0226635Y0042762D01*
Y0042818D01*
X-0226662Y0042873D01*
X-0226829D01*
X-0226857Y0042818D01*
X-0227045Y0042540D02*
X-0227267D01*
X-0227045Y0042762D01*
Y0042818D01*
X-0227072Y0042873D01*
X-0227239D01*
X-0227267Y0042818D01*
X-0227455Y0042596D02*
X-0227482Y0042540D01*
X-0227649D01*
X-0227677Y0042596D01*
Y0042818D01*
X-0227649Y0042873D01*
X-0227482D01*
X-0227455Y0042818D01*
X-0200919Y0087606D02*
X-0200697D01*
X-0200808Y0087384D01*
X-0200864D01*
Y0087717D01*
X-0200509D02*
X-0200398D01*
X-0200454D02*
Y0087384D01*
X-0200398Y0087439D01*
X-0200071Y0087550D02*
X-0200155Y0087717D01*
X-0199932Y0087550D02*
X-0200099D01*
X-0200155Y0087495D01*
Y0087439D01*
X-0200099Y0087384D01*
X-0199932D01*
Y0087717D01*
X-0201096Y0088698D02*
X-0200929Y0088531D01*
X-0201096Y0088365D01*
X-0200873D02*
Y0088698D01*
X-0200491Y0088531D02*
X-0200658D01*
X-0200686Y0088587D01*
Y0088642D01*
X-0200658Y0088698D01*
X-0200491D01*
X-0200464Y0088642D01*
Y0088587D01*
X-0200575Y0088365D01*
X-0200220Y0088698D02*
X-0200276D01*
Y0088642D01*
X-0200220D01*
Y0088698D01*
X-0199755Y0088642D02*
X-0199782Y0088698D01*
X-0199949D01*
X-0199977Y0088642D01*
Y0088531D01*
X-0199921Y0088476D01*
X-0199755D01*
Y0088365D01*
X-0199977D01*
X-0230959Y0076190D02*
X-0230931Y0076245D01*
Y0076301D01*
X-0230959Y0076357D01*
X-0231126D01*
X-0231154Y0076301D01*
Y0076245D01*
X-0231126Y0076190D01*
X-0230959D01*
X-0230931Y0076134D01*
Y0076079D01*
X-0230959Y0076023D01*
X-0231126D01*
X-0231154Y0076079D01*
Y0076134D01*
X-0231126Y0076190D01*
X-0231425D02*
X-0231341Y0076023D01*
X-0231564Y0076190D02*
X-0231397D01*
X-0231341Y0076245D01*
Y0076301D01*
X-0231397Y0076357D01*
X-0231564D01*
Y0076023D01*
X-0230894Y0075042D02*
X-0230949Y0075098D01*
X-0230977Y0075153D01*
Y0075264D01*
X-0230949Y0075320D01*
X-0230894Y0075375D01*
X-0230838D01*
X-0230783Y0075320D01*
X-0230755Y0075264D01*
Y0075153D01*
X-0230783Y0075098D01*
X-0230838Y0075042D01*
X-0230894D01*
X-0231387Y0075098D02*
X-0231359Y0075042D01*
X-0231193D01*
X-0231165Y0075098D01*
Y0075209D01*
X-0231220Y0075264D01*
X-0231387D01*
Y0075375D01*
X-0231165D01*
X-0231575Y0075042D02*
X-0231686D01*
X-0231630D02*
Y0075375D01*
X-0231686Y0075320D01*
X-0221861Y0053449D02*
X-0222028Y0053283D01*
X-0222194Y0053449D01*
Y0053227D02*
X-0221861D01*
Y0053039D02*
Y0052928D01*
Y0052984D02*
X-0222194D01*
X-0222139Y0052928D01*
X-0228159Y0059955D02*
Y0059789D01*
X-0228215Y0059761D01*
X-0228271D01*
X-0228326Y0059789D01*
Y0059955D01*
X-0228271Y0059983D01*
X-0228215D01*
X-0227993Y0059872D01*
X-0228326Y0060171D02*
Y0060282D01*
Y0060227D02*
X-0227993D01*
X-0228048Y0060282D01*
X-0228271Y0060525D02*
X-0228326Y0060553D01*
Y0060720D01*
X-0228271Y0060748D01*
X-0228048D01*
X-0227993Y0060720D01*
Y0060553D01*
X-0228048Y0060525D01*
X-0228974Y0059390D02*
X-0229252D01*
X-0229307Y0059418D01*
Y0059584D01*
X-0229252Y0059612D01*
X-0228974D01*
X-0229307Y0059800D02*
Y0059911D01*
Y0059855D02*
X-0228974D01*
X-0229030Y0059911D01*
X-0229307Y0060210D02*
Y0060154D01*
X-0229252D01*
Y0060210D01*
X-0229307D01*
Y0060592D02*
X-0229252Y0060648D01*
X-0229196Y0060675D01*
X-0229085D01*
X-0229030Y0060648D01*
X-0228974Y0060592D01*
Y0060537D01*
X-0229030Y0060481D01*
X-0229085Y0060453D01*
X-0229196D01*
X-0229252Y0060481D01*
X-0229307Y0060537D01*
Y0060592D01*
X-0230524Y0064328D02*
X-0230468Y0064272D01*
X-0230440Y0064217D01*
Y0064106D01*
X-0230468Y0064050D01*
X-0230524Y0063995D01*
X-0230579D01*
X-0230635Y0064050D01*
X-0230663Y0064106D01*
Y0064217D01*
X-0230635Y0064272D01*
X-0230579Y0064328D01*
X-0230524D01*
X-0230030Y0064272D02*
X-0230058Y0064328D01*
X-0230225D01*
X-0230253Y0064272D01*
Y0064161D01*
X-0230197Y0064106D01*
X-0230030D01*
Y0063995D01*
X-0230253D01*
X-0229843Y0064328D02*
X-0229731D01*
X-0229787D02*
Y0063995D01*
X-0229731Y0064050D01*
X-0219772Y0042864D02*
X-0219827Y0042836D01*
Y0042670D01*
X-0219772Y0042642D01*
X-0219661D01*
X-0219605Y0042698D01*
Y0042864D01*
X-0219494D01*
Y0042642D01*
X-0219827Y0043246D02*
X-0219494D01*
X-0219827Y0043274D02*
Y0043108D01*
X-0219716Y0043052D01*
X-0219605D01*
X-0219494Y0043108D01*
Y0043274D01*
X-0199964Y0101883D02*
Y0101606D01*
X-0199992Y0101550D01*
X-0200159D01*
X-0200187Y0101606D01*
Y0101883D01*
X-0200513Y0101550D02*
X-0200569Y0101606D01*
X-0200597Y0101661D01*
Y0101772D01*
X-0200569Y0101828D01*
X-0200513Y0101883D01*
X-0200458D01*
X-0200402Y0101828D01*
X-0200374Y0101772D01*
Y0101661D01*
X-0200402Y0101606D01*
X-0200458Y0101550D01*
X-0200513D01*
X-0200951D02*
X-0200784Y0101883D01*
X-0201007D01*
X-0201194Y0101661D02*
X-0201417D01*
X-0201306Y0101883D01*
X-0201250D01*
Y0101550D01*
X-0201496Y0101981D02*
Y0101714D01*
X-0201363Y0101848D02*
X-0201629D01*
X-0200954Y0104587D02*
X-0200926Y0104531D01*
X-0200759D01*
X-0200732Y0104587D01*
Y0104698D01*
X-0200787Y0104753D01*
X-0200954D01*
Y0104864D01*
X-0200732D01*
X-0201142Y0104587D02*
X-0201169Y0104531D01*
X-0201336D01*
X-0201364Y0104587D01*
Y0104809D01*
X-0201336Y0104864D01*
X-0201169D01*
X-0201142Y0104809D01*
X-0222480Y0094265D02*
Y0094043D01*
X-0222702Y0094265D01*
X-0222758D01*
X-0222813Y0094238D01*
Y0094071D01*
X-0222758Y0094043D01*
X-0222647Y0093772D02*
X-0222480Y0093855D01*
X-0222647Y0093633D02*
Y0093800D01*
X-0222702Y0093855D01*
X-0222758D01*
X-0222813Y0093800D01*
Y0093633D01*
X-0222480D01*
X-0221499Y0094797D02*
X-0221665Y0094630D01*
X-0221832Y0094797D01*
Y0094574D02*
X-0221499D01*
X-0221665Y0094192D02*
Y0094359D01*
X-0221610Y0094387D01*
X-0221554D01*
X-0221499Y0094359D01*
Y0094192D01*
X-0221554Y0094164D01*
X-0221610D01*
X-0221832Y0094275D01*
X-0221499Y0093921D02*
Y0093977D01*
X-0221554D01*
Y0093921D01*
X-0221499D01*
X-0221554Y0093455D02*
X-0221499Y0093483D01*
Y0093650D01*
X-0221554Y0093678D01*
X-0221665D01*
X-0221721Y0093622D01*
Y0093455D01*
X-0221832D01*
Y0093678D01*
X-0222316Y0088125D02*
Y0088014D01*
Y0088069D02*
X-0222649D01*
X-0222594Y0088014D01*
X-0222482Y0087687D02*
X-0222316Y0087770D01*
X-0222482Y0087548D02*
Y0087715D01*
X-0222538Y0087770D01*
X-0222594D01*
X-0222649Y0087715D01*
Y0087548D01*
X-0222316D01*
X-0221335Y0088218D02*
X-0221390Y0088163D01*
X-0221446Y0088135D01*
X-0221557D01*
X-0221612Y0088163D01*
X-0221668Y0088218D01*
Y0088274D01*
X-0221612Y0088329D01*
X-0221557Y0088357D01*
X-0221446D01*
X-0221390Y0088329D01*
X-0221335Y0088274D01*
Y0088218D01*
X-0221390Y0087725D02*
X-0221335Y0087753D01*
Y0087919D01*
X-0221390Y0087947D01*
X-0221501D01*
X-0221557Y0087891D01*
Y0087725D01*
X-0221668D01*
Y0087947D01*
X-0221335Y0087537D02*
Y0087426D01*
Y0087481D02*
X-0221668D01*
X-0221612Y0087426D01*
X-0200500Y0094213D02*
X-0200667Y0093880D01*
X-0200444D01*
X-0200173Y0094046D02*
X-0200257Y0094213D01*
X-0200034Y0094046D02*
X-0200201D01*
X-0200257Y0093991D01*
Y0093935D01*
X-0200201Y0093880D01*
X-0200034D01*
Y0094213D01*
X-0201198Y0095194D02*
X-0201031Y0095027D01*
X-0201198Y0094861D01*
X-0200975D02*
Y0095194D01*
X-0200593Y0095027D02*
X-0200760D01*
X-0200788Y0095083D01*
Y0095139D01*
X-0200760Y0095194D01*
X-0200593D01*
X-0200565Y0095139D01*
Y0095083D01*
X-0200677Y0094861D01*
X-0200322Y0095194D02*
X-0200378D01*
Y0095139D01*
X-0200322D01*
Y0095194D01*
X-0199857Y0095139D02*
X-0199884Y0095194D01*
X-0200051D01*
X-0200079Y0095139D01*
Y0095027D01*
X-0200023Y0094972D01*
X-0199857D01*
Y0094861D01*
X-0200079D01*
X-0201258Y0057591D02*
X-0201036D01*
X-0201258Y0057369D01*
Y0057313D01*
X-0201230Y0057258D01*
X-0201064D01*
X-0201036Y0057313D01*
X-0200626Y0057535D02*
X-0200681Y0057591D01*
X-0200793D01*
X-0200848Y0057535D01*
Y0057480D01*
X-0200737Y0057369D01*
X-0200848Y0057258D01*
X-0200626D01*
X-0200355Y0057424D02*
X-0200438Y0057591D01*
X-0200216Y0057424D02*
X-0200383D01*
X-0200438Y0057369D01*
Y0057313D01*
X-0200383Y0057258D01*
X-0200216D01*
Y0057591D01*
X-0201025Y0058572D02*
X-0200858Y0058405D01*
X-0201025Y0058239D01*
X-0200803D02*
Y0058572D01*
X-0200476D02*
X-0200420Y0058517D01*
X-0200393Y0058461D01*
Y0058350D01*
X-0200420Y0058294D01*
X-0200476Y0058239D01*
X-0200531D01*
X-0200587Y0058294D01*
X-0200615Y0058350D01*
Y0058461D01*
X-0200587Y0058517D01*
X-0200531Y0058572D01*
X-0200476D01*
X-0200205D02*
X-0200094D01*
X-0200149D02*
Y0058239D01*
X-0200094Y0058294D01*
X-0221939Y0059053D02*
X-0221772Y0059219D01*
X-0221605Y0059053D01*
Y0059275D02*
X-0221939D01*
X-0221772Y0059657D02*
Y0059490D01*
X-0221827Y0059463D01*
X-0221883D01*
X-0221939Y0059490D01*
Y0059657D01*
X-0221883Y0059685D01*
X-0221827D01*
X-0221605Y0059574D01*
X-0221939Y0059928D02*
Y0059873D01*
X-0221883D01*
Y0059928D01*
X-0221939D01*
X-0221883Y0060394D02*
X-0221939Y0060366D01*
Y0060199D01*
X-0221883Y0060172D01*
X-0221772D01*
X-0221716Y0060227D01*
Y0060394D01*
X-0221605D01*
Y0060172D01*
X-0232213Y0060219D02*
X-0232157Y0060275D01*
X-0232102Y0060303D01*
X-0231991D01*
X-0231935Y0060275D01*
X-0231880Y0060219D01*
Y0060164D01*
X-0231935Y0060108D01*
X-0231991Y0060080D01*
X-0232102D01*
X-0232157Y0060108D01*
X-0232213Y0060164D01*
Y0060219D01*
X-0232157Y0060713D02*
X-0232213Y0060657D01*
Y0060546D01*
X-0232157Y0060490D01*
X-0232102D01*
X-0231991Y0060602D01*
X-0231880Y0060490D01*
Y0060713D01*
X-0232046Y0060984D02*
X-0232213Y0060900D01*
X-0232046Y0061123D02*
Y0060956D01*
X-0231991Y0060900D01*
X-0231935D01*
X-0231880Y0060956D01*
Y0061123D01*
X-0232213D01*
X-0228326Y0094817D02*
Y0094928D01*
Y0094872D02*
X-0227993D01*
X-0228048Y0094928D01*
X-0228271Y0095171D02*
X-0228326Y0095199D01*
Y0095366D01*
X-0228271Y0095393D01*
X-0228048D01*
X-0227993Y0095366D01*
Y0095199D01*
X-0228048Y0095171D01*
X-0228974Y0094036D02*
X-0229252D01*
X-0229307Y0094063D01*
Y0094230D01*
X-0229252Y0094258D01*
X-0228974D01*
X-0229307Y0094446D02*
Y0094557D01*
Y0094501D02*
X-0228974D01*
X-0229030Y0094557D01*
X-0229307Y0094856D02*
Y0094800D01*
X-0229252D01*
Y0094856D01*
X-0229307D01*
Y0095238D02*
X-0229252Y0095293D01*
X-0229196Y0095321D01*
X-0229085D01*
X-0229030Y0095293D01*
X-0228974Y0095238D01*
Y0095182D01*
X-0229030Y0095127D01*
X-0229085Y0095099D01*
X-0229196D01*
X-0229252Y0095127D01*
X-0229307Y0095182D01*
Y0095238D01*
X-0229942Y0089853D02*
Y0089631D01*
X-0230164Y0089853D01*
X-0230219D01*
X-0230275Y0089825D01*
Y0089659D01*
X-0230219Y0089631D01*
X-0229997Y0089443D02*
X-0229942Y0089415D01*
Y0089249D01*
X-0229997Y0089221D01*
X-0230219D01*
X-0230275Y0089249D01*
Y0089415D01*
X-0230219Y0089443D01*
X-0229294Y0091399D02*
X-0229016D01*
X-0228960Y0091371D01*
Y0091204D01*
X-0229016Y0091176D01*
X-0229294D01*
X-0228960Y0090989D02*
Y0090877D01*
Y0090933D02*
X-0229294D01*
X-0229238Y0090877D01*
X-0228960Y0090495D02*
X-0229016Y0090440D01*
X-0229072Y0090412D01*
X-0229183D01*
X-0229238Y0090440D01*
X-0229294Y0090495D01*
Y0090551D01*
X-0229238Y0090606D01*
X-0229183Y0090634D01*
X-0229072D01*
X-0229016Y0090606D01*
X-0228960Y0090551D01*
Y0090495D01*
Y0090085D02*
X-0229016Y0090030D01*
X-0229072Y0090002D01*
X-0229183D01*
X-0229238Y0090030D01*
X-0229294Y0090085D01*
Y0090141D01*
X-0229238Y0090196D01*
X-0229183Y0090224D01*
X-0229072D01*
X-0229016Y0090196D01*
X-0228960Y0090141D01*
Y0090085D01*
Y0089759D02*
Y0089814D01*
X-0229016D01*
Y0089759D01*
X-0228960D01*
Y0089376D02*
X-0229016Y0089321D01*
X-0229072Y0089293D01*
X-0229183D01*
X-0229238Y0089321D01*
X-0229294Y0089376D01*
Y0089432D01*
X-0229238Y0089487D01*
X-0229183Y0089515D01*
X-0229072D01*
X-0229016Y0089487D01*
X-0228960Y0089432D01*
Y0089376D01*
X-0230291Y0086802D02*
X-0230458D01*
X-0230486Y0086858D01*
Y0086913D01*
X-0230458Y0086969D01*
X-0230291D01*
X-0230264Y0086913D01*
Y0086858D01*
X-0230375Y0086636D01*
X-0229993Y0086802D02*
X-0230076Y0086969D01*
X-0229854Y0086802D02*
X-0230020D01*
X-0230076Y0086747D01*
Y0086691D01*
X-0230020Y0086636D01*
X-0229854D01*
Y0086969D01*
X-0230253Y0087950D02*
X-0230086Y0087783D01*
X-0230253Y0087617D01*
X-0230030D02*
Y0087950D01*
X-0229843D02*
X-0229731D01*
X-0229787D02*
Y0087617D01*
X-0229731Y0087672D01*
X-0225499Y0041892D02*
Y0041614D01*
X-0225527Y0041559D01*
X-0225694D01*
X-0225721Y0041614D01*
Y0041892D01*
X-0225909Y0041559D02*
X-0226020D01*
X-0225965D02*
Y0041892D01*
X-0226020Y0041837D01*
X-0226402Y0041559D02*
X-0226458Y0041614D01*
X-0226486Y0041670D01*
Y0041781D01*
X-0226458Y0041837D01*
X-0226402Y0041892D01*
X-0226347D01*
X-0226291Y0041837D01*
X-0226264Y0041781D01*
Y0041670D01*
X-0226291Y0041614D01*
X-0226347Y0041559D01*
X-0226402D01*
X-0226812D02*
X-0226868Y0041614D01*
X-0226896Y0041670D01*
Y0041781D01*
X-0226868Y0041837D01*
X-0226812Y0041892D01*
X-0226757D01*
X-0226701Y0041837D01*
X-0226674Y0041781D01*
Y0041670D01*
X-0226701Y0041614D01*
X-0226757Y0041559D01*
X-0226812D01*
X-0227139D02*
X-0227084D01*
Y0041614D01*
X-0227139D01*
Y0041559D01*
X-0227521D02*
X-0227577Y0041614D01*
X-0227605Y0041670D01*
Y0041781D01*
X-0227577Y0041837D01*
X-0227521Y0041892D01*
X-0227466D01*
X-0227410Y0041837D01*
X-0227382Y0041781D01*
Y0041670D01*
X-0227410Y0041614D01*
X-0227466Y0041559D01*
X-0227521D01*
X-0223023Y0048039D02*
Y0047872D01*
X-0223078Y0047844D01*
X-0223134D01*
X-0223189Y0047872D01*
Y0048039D01*
X-0223134Y0048066D01*
X-0223078D01*
X-0222856Y0047955D01*
X-0223134Y0048476D02*
X-0223189Y0048421D01*
Y0048310D01*
X-0223134Y0048254D01*
X-0223078D01*
X-0222967Y0048365D01*
X-0222856Y0048254D01*
Y0048476D01*
X-0223023Y0048748D02*
X-0223189Y0048664D01*
X-0223023Y0048886D02*
Y0048720D01*
X-0222967Y0048664D01*
X-0222912D01*
X-0222856Y0048720D01*
Y0048886D01*
X-0223189D01*
X-0224170Y0047723D02*
X-0224004Y0047890D01*
X-0223837Y0047723D01*
Y0047945D02*
X-0224170D01*
X-0224004Y0048328D02*
Y0048161D01*
X-0224059Y0048133D01*
X-0224115D01*
X-0224170Y0048161D01*
Y0048328D01*
X-0224115Y0048355D01*
X-0224059D01*
X-0223837Y0048244D01*
X-0224170Y0048599D02*
Y0048543D01*
X-0224115D01*
Y0048599D01*
X-0224170D01*
X-0224115Y0049064D02*
X-0224170Y0049036D01*
Y0048870D01*
X-0224115Y0048842D01*
X-0224004D01*
X-0223948Y0048898D01*
Y0049064D01*
X-0223837D01*
Y0048842D01*
X-0216664Y0100822D02*
Y0100711D01*
Y0100766D02*
X-0216998D01*
X-0216942Y0100711D01*
X-0216664Y0100467D02*
X-0216998D01*
X-0216942Y0100412D01*
X-0216831Y0100356D01*
X-0216942Y0100301D01*
X-0216998Y0100245D01*
X-0216664D01*
X-0218506Y0103776D02*
Y0103609D01*
X-0218340Y0103832D02*
Y0103609D01*
X-0218673D01*
Y0103832D01*
X-0218340Y0103422D02*
Y0103311D01*
Y0103366D02*
X-0218673D01*
Y0103422D02*
Y0103311D01*
X-0218617Y0103067D02*
X-0218673Y0103039D01*
Y0102873D01*
X-0218617Y0102845D01*
X-0218562D01*
X-0218506Y0102873D01*
Y0103039D01*
X-0218451Y0103067D01*
X-0218395D01*
X-0218340Y0103039D01*
Y0102873D01*
X-0218395Y0102845D01*
X-0218673Y0102657D02*
X-0218340Y0102491D01*
Y0102136D02*
X-0218395Y0102081D01*
X-0218451Y0102053D01*
X-0218562D01*
X-0218617Y0102081D01*
X-0218673Y0102136D01*
Y0102192D01*
X-0218617Y0102247D01*
X-0218562Y0102275D01*
X-0218451D01*
X-0218395Y0102247D01*
X-0218340Y0102192D01*
Y0102136D01*
Y0101726D02*
X-0218395Y0101671D01*
X-0218451Y0101643D01*
X-0218562D01*
X-0218617Y0101671D01*
X-0218673Y0101726D01*
Y0101782D01*
X-0218617Y0101837D01*
X-0218562Y0101865D01*
X-0218451D01*
X-0218395Y0101837D01*
X-0218340Y0101782D01*
Y0101726D01*
Y0101455D02*
Y0101344D01*
Y0101399D02*
X-0218673D01*
X-0218617Y0101344D01*
X-0218340Y0101101D02*
Y0100934D01*
X-0218673Y0101101D01*
Y0100934D01*
Y0100718D02*
X-0218395D01*
X-0218340Y0100691D01*
Y0100524D01*
X-0218395Y0100496D01*
X-0218673D01*
X-0218340Y0100114D02*
X-0218673D01*
X-0218340Y0100086D02*
Y0100253D01*
X-0218395Y0100308D01*
X-0218451D01*
X-0218506Y0100281D01*
Y0100114D02*
Y0100281D01*
X-0218562Y0100308D01*
X-0218617D01*
X-0218673Y0100253D01*
Y0100086D01*
X-0218399Y0090761D02*
X-0218454Y0090733D01*
X-0218676D01*
X-0218732Y0090761D01*
Y0090927D01*
X-0218676Y0090955D01*
X-0218454D01*
X-0218399Y0090927D01*
Y0090761D01*
Y0090434D02*
X-0218732D01*
Y0090545D02*
Y0090323D01*
Y0090135D02*
X-0218399Y0089968D01*
X-0218454Y0089531D02*
X-0218399Y0089558D01*
Y0089725D01*
X-0218454Y0089753D01*
X-0218565D01*
X-0218621Y0089697D01*
Y0089531D01*
X-0218732D01*
Y0089753D01*
X-0218510Y0089343D02*
Y0089121D01*
X-0218732Y0089232D01*
Y0089287D01*
X-0218399D01*
Y0088794D02*
X-0218454Y0088738D01*
X-0218510Y0088711D01*
X-0218621D01*
X-0218676Y0088738D01*
X-0218732Y0088794D01*
Y0088850D01*
X-0218676Y0088905D01*
X-0218621Y0088933D01*
X-0218510D01*
X-0218454Y0088905D01*
X-0218399Y0088850D01*
Y0088794D01*
Y0088523D02*
Y0088412D01*
Y0088467D02*
X-0218732D01*
X-0218676Y0088412D01*
X-0218565Y0088085D02*
X-0218399Y0088168D01*
X-0218565Y0087946D02*
Y0088113D01*
X-0218621Y0088168D01*
X-0218676D01*
X-0218732Y0088113D01*
Y0087946D01*
X-0218399D01*
Y0087564D02*
X-0218732D01*
X-0218399Y0087536D02*
Y0087703D01*
X-0218454Y0087759D01*
X-0218510D01*
X-0218565Y0087731D01*
Y0087564D02*
Y0087731D01*
X-0218621Y0087759D01*
X-0218676D01*
X-0218732Y0087703D01*
Y0087536D01*
X-0218399Y0087349D02*
X-0218732D01*
X-0218676Y0087293D01*
X-0218565Y0087237D01*
X-0218676Y0087182D01*
X-0218732Y0087126D01*
X-0218399D01*
X-0216890Y0088487D02*
Y0088654D01*
X-0216835Y0088682D01*
X-0216779D01*
X-0216723Y0088654D01*
Y0088487D01*
X-0216779Y0088460D01*
X-0216835D01*
X-0217057Y0088571D01*
X-0216723Y0088272D02*
Y0088050D01*
X-0216946Y0088272D01*
X-0217001D01*
X-0217057Y0088244D01*
Y0088077D01*
X-0217001Y0088050D01*
X-0216723Y0087862D02*
Y0087751D01*
Y0087806D02*
X-0217057D01*
X-0217001Y0087751D01*
X-0216723Y0087313D02*
X-0217057D01*
X-0216723Y0087285D02*
Y0087452D01*
X-0216835Y0087507D01*
X-0216946D01*
X-0217057Y0087452D01*
Y0087285D01*
X-0230220Y0094146D02*
X-0230276Y0094090D01*
Y0093979D01*
X-0230220Y0093924D01*
X-0230165D01*
X-0230054Y0094035D01*
X-0229943Y0093924D01*
Y0094146D01*
X-0230109Y0094417D02*
X-0230276Y0094333D01*
X-0230109Y0094556D02*
Y0094389D01*
X-0230054Y0094333D01*
X-0229998D01*
X-0229943Y0094389D01*
Y0094556D01*
X-0230276D01*
X-0231257Y0094157D02*
X-0230924D01*
X-0230979Y0094212D01*
X-0231090Y0094268D01*
X-0230979Y0094324D01*
X-0230924Y0094379D01*
X-0231257D01*
Y0094567D02*
Y0094678D01*
Y0094622D02*
X-0230924D01*
X-0230979Y0094678D01*
X-0226010Y0097445D02*
X-0226232D01*
X-0226121Y0097668D01*
X-0226066D01*
Y0097334D01*
X-0226503Y0097501D02*
X-0226420Y0097334D01*
X-0226642Y0097501D02*
X-0226476D01*
X-0226420Y0097557D01*
Y0097612D01*
X-0226476Y0097668D01*
X-0226642D01*
Y0097334D01*
X-0225479Y0096353D02*
X-0225646Y0096520D01*
X-0225479Y0096686D01*
X-0225701D02*
Y0096353D01*
X-0226084Y0096520D02*
X-0225917D01*
X-0225889Y0096464D01*
Y0096409D01*
X-0225917Y0096353D01*
X-0226084D01*
X-0226111Y0096409D01*
Y0096464D01*
X-0226000Y0096686D01*
X-0226355Y0096353D02*
X-0226299D01*
Y0096409D01*
X-0226355D01*
Y0096353D01*
X-0226820Y0096409D02*
X-0226792Y0096353D01*
X-0226626D01*
X-0226598Y0096409D01*
Y0096520D01*
X-0226653Y0096575D01*
X-0226820D01*
Y0096686D01*
X-0226598D01*
X-0225732Y0085890D02*
X-0225705Y0085834D01*
X-0225538D01*
X-0225510Y0085890D01*
Y0086001D01*
X-0225566Y0086057D01*
X-0225732D01*
Y0086168D01*
X-0225510D01*
X-0226003Y0086001D02*
X-0225920Y0085834D01*
X-0226142Y0086001D02*
X-0225976D01*
X-0225920Y0086057D01*
Y0086112D01*
X-0225976Y0086168D01*
X-0226142D01*
Y0085834D01*
X-0225278Y0084853D02*
X-0225445Y0085020D01*
X-0225278Y0085186D01*
X-0225500D02*
Y0084853D01*
X-0225855D02*
X-0225688Y0085186D01*
X-0225910D01*
X-0226098Y0084964D02*
X-0226320D01*
X-0226209Y0085186D01*
X-0226153D01*
Y0084853D01*
X-0221595Y0106239D02*
X-0221539Y0106211D01*
X-0221483D01*
X-0221428Y0106239D01*
Y0106406D01*
X-0221483Y0106433D01*
X-0221539D01*
X-0221595Y0106406D01*
Y0106239D01*
X-0221650Y0106211D01*
X-0221706D01*
X-0221761Y0106239D01*
Y0106406D01*
X-0221706Y0106433D01*
X-0221650D01*
X-0221595Y0106406D01*
X-0221428Y0106621D02*
X-0221706D01*
X-0221761Y0106649D01*
Y0106816D01*
X-0221706Y0106843D01*
X-0221428D01*
X-0225192Y0098791D02*
X-0225026D01*
X-0224998Y0098735D01*
Y0098680D01*
X-0225026Y0098624D01*
X-0225192D01*
X-0225220Y0098680D01*
Y0098735D01*
X-0225109Y0098957D01*
X-0224616D02*
Y0098624D01*
X-0224588Y0098957D02*
X-0224755D01*
X-0224810Y0098846D01*
Y0098735D01*
X-0224755Y0098624D01*
X-0224588D01*
X-0226992Y0098441D02*
X-0226826D01*
X-0226798Y0098385D01*
Y0098329D01*
X-0226826Y0098274D01*
X-0226992D01*
X-0227020Y0098329D01*
Y0098385D01*
X-0226909Y0098607D01*
X-0226610D02*
X-0226499D01*
X-0226555D02*
Y0098274D01*
X-0226499Y0098329D01*
X-0226228Y0098441D02*
X-0226256Y0098385D01*
Y0098329D01*
X-0226228Y0098274D01*
X-0226061D01*
X-0226034Y0098329D01*
Y0098385D01*
X-0226061Y0098441D01*
X-0226228D01*
X-0226256Y0098496D01*
Y0098552D01*
X-0226228Y0098607D01*
X-0226061D01*
X-0226034Y0098552D01*
Y0098496D01*
X-0226061Y0098441D01*
X-0225624Y0098552D02*
X-0225651Y0098607D01*
X-0225818D01*
X-0225846Y0098552D01*
Y0098441D01*
X-0225790Y0098385D01*
X-0225624D01*
Y0098274D01*
X-0225846D01*
X-0225436D02*
Y0098607D01*
X-0225380Y0098552D01*
X-0225269Y0098329D01*
X-0225214Y0098274D01*
Y0098607D01*
X-0225026D02*
X-0224915D01*
X-0224970D02*
Y0098274D01*
X-0224915Y0098329D01*
X-0224477Y0098607D02*
Y0098274D01*
X-0224449Y0098607D02*
X-0224616D01*
X-0224671Y0098496D01*
Y0098385D01*
X-0224616Y0098274D01*
X-0224449D01*
X-0231032Y0106827D02*
X-0231060Y0106882D01*
X-0231226D01*
X-0231254Y0106827D01*
Y0106716D01*
X-0231199Y0106660D01*
X-0231032D01*
Y0106549D01*
X-0231254D01*
X-0230650Y0106716D02*
X-0230816D01*
X-0230844Y0106771D01*
Y0106827D01*
X-0230816Y0106882D01*
X-0230650D01*
X-0230622Y0106827D01*
Y0106771D01*
X-0230733Y0106549D01*
X-0230351Y0106716D02*
X-0230434Y0106882D01*
X-0230212Y0106716D02*
X-0230379D01*
X-0230434Y0106660D01*
Y0106604D01*
X-0230379Y0106549D01*
X-0230212D01*
Y0106882D01*
X-0231375Y0107863D02*
X-0231209Y0107697D01*
X-0231375Y0107530D01*
X-0231153D02*
Y0107863D01*
X-0230771Y0107697D02*
X-0230937D01*
X-0230965Y0107752D01*
Y0107808D01*
X-0230937Y0107863D01*
X-0230771D01*
X-0230743Y0107808D01*
Y0107752D01*
X-0230854Y0107530D01*
X-0230500Y0107863D02*
X-0230555D01*
Y0107808D01*
X-0230500D01*
Y0107863D01*
X-0230034Y0107808D02*
X-0230062Y0107863D01*
X-0230229D01*
X-0230256Y0107808D01*
Y0107697D01*
X-0230201Y0107641D01*
X-0230034D01*
Y0107530D01*
X-0230256D01*
X-0230155Y0105359D02*
X-0230377D01*
X-0230266Y0105581D01*
X-0230211D01*
Y0105248D01*
X-0230760Y0105414D02*
X-0230593D01*
X-0230565Y0105359D01*
Y0105303D01*
X-0230593Y0105248D01*
X-0230760D01*
X-0230787Y0105303D01*
Y0105359D01*
X-0230676Y0105581D01*
X-0231059Y0105414D02*
X-0230975Y0105248D01*
X-0231197Y0105414D02*
X-0231031D01*
X-0230975Y0105470D01*
Y0105525D01*
X-0231031Y0105581D01*
X-0231197D01*
Y0105248D01*
X-0230333Y0104267D02*
X-0230500Y0104433D01*
X-0230333Y0104600D01*
X-0230555D02*
Y0104267D01*
X-0230910D02*
X-0230743Y0104600D01*
X-0230965D01*
X-0231153Y0104267D02*
X-0231375D01*
X-0231153Y0104489D01*
Y0104544D01*
X-0231181Y0104600D01*
X-0231348D01*
X-0231375Y0104544D01*
X-0223038Y0101482D02*
X-0223204Y0101149D01*
X-0222982D01*
X-0222794Y0101482D02*
X-0222600D01*
Y0101149D01*
X-0223789Y0102266D02*
X-0223567D01*
X-0223789Y0102432D02*
Y0102099D01*
X-0223567Y0102432D02*
Y0102099D01*
X-0223379D02*
Y0102377D01*
X-0223351Y0102432D01*
X-0223184D01*
X-0223157Y0102377D01*
Y0102099D01*
X-0222830Y0102432D02*
X-0222774Y0102377D01*
X-0222747Y0102321D01*
Y0102210D01*
X-0222774Y0102155D01*
X-0222830Y0102099D01*
X-0222885D01*
X-0222941Y0102155D01*
X-0222969Y0102210D01*
Y0102321D01*
X-0222941Y0102377D01*
X-0222885Y0102432D01*
X-0222830D01*
X-0222559D02*
X-0222448D01*
X-0222503D02*
Y0102099D01*
X-0222448Y0102155D01*
X-0226337Y0102797D02*
Y0103019D01*
X-0226115Y0102908D01*
Y0102853D01*
X-0226448D01*
X-0226393Y0103429D02*
X-0226448Y0103374D01*
Y0103263D01*
X-0226393Y0103207D01*
X-0226337D01*
X-0226226Y0103318D01*
X-0226115Y0103207D01*
Y0103429D01*
X-0226393Y0103617D02*
X-0226448Y0103645D01*
Y0103811D01*
X-0226393Y0103839D01*
X-0226170D01*
X-0226115Y0103811D01*
Y0103645D01*
X-0226170Y0103617D01*
X-0228846Y0102085D02*
X-0229124D01*
X-0229179Y0102113D01*
Y0102280D01*
X-0229124Y0102308D01*
X-0228846D01*
X-0229179Y0102634D02*
X-0229124Y0102690D01*
X-0229068Y0102718D01*
X-0228957D01*
X-0228902Y0102690D01*
X-0228846Y0102634D01*
Y0102579D01*
X-0228902Y0102523D01*
X-0228957Y0102495D01*
X-0229068D01*
X-0229124Y0102523D01*
X-0229179Y0102579D01*
Y0102634D01*
Y0103044D02*
X-0229124Y0103100D01*
X-0229068Y0103128D01*
X-0228957D01*
X-0228902Y0103100D01*
X-0228846Y0103044D01*
Y0102989D01*
X-0228902Y0102933D01*
X-0228957Y0102905D01*
X-0229068D01*
X-0229124Y0102933D01*
X-0229179Y0102989D01*
Y0103044D01*
Y0103454D02*
X-0229124Y0103510D01*
X-0229068Y0103538D01*
X-0228957D01*
X-0228902Y0103510D01*
X-0228846Y0103454D01*
Y0103399D01*
X-0228902Y0103343D01*
X-0228957Y0103315D01*
X-0229068D01*
X-0229124Y0103343D01*
X-0229179Y0103399D01*
Y0103454D01*
Y0103725D02*
Y0103836D01*
Y0103781D02*
X-0228846D01*
X-0228902Y0103836D01*
X-0228373Y0103221D02*
X-0228640D01*
X-0228507Y0103088D02*
Y0103355D01*
X-0231235Y0102822D02*
X-0231291Y0102767D01*
Y0102656D01*
X-0231235Y0102600D01*
X-0231180D01*
X-0231068Y0102711D01*
X-0230957Y0102600D01*
Y0102822D01*
X-0231235Y0103232D02*
X-0231291Y0103177D01*
Y0103066D01*
X-0231235Y0103010D01*
X-0231180D01*
X-0231068Y0103121D01*
X-0230957Y0103010D01*
Y0103232D01*
X-0231235Y0103420D02*
X-0231291Y0103448D01*
Y0103615D01*
X-0231235Y0103642D01*
X-0231013D01*
X-0230957Y0103615D01*
Y0103448D01*
X-0231013Y0103420D01*
X-0233689Y0102653D02*
X-0233966D01*
X-0234022Y0102681D01*
Y0102847D01*
X-0233966Y0102875D01*
X-0233689D01*
X-0234022Y0103063D02*
Y0103285D01*
X-0233800Y0103063D01*
X-0233744D01*
X-0233689Y0103091D01*
Y0103257D01*
X-0233744Y0103285D01*
X-0234022Y0103473D02*
Y0103695D01*
X-0233800Y0103473D01*
X-0233744D01*
X-0233689Y0103501D01*
Y0103667D01*
X-0233744Y0103695D01*
X-0233216Y0103025D02*
X-0233483D01*
X-0233349Y0102891D02*
Y0103158D01*
X-0223150Y0031364D02*
Y0031475D01*
Y0031420D02*
X-0222817D01*
X-0222872Y0031475D01*
X-0223094Y0031941D02*
X-0223150Y0031913D01*
Y0031747D01*
X-0223094Y0031719D01*
X-0222983D01*
X-0222928Y0031774D01*
Y0031941D01*
X-0222817D01*
Y0031719D01*
X-0222983Y0032212D02*
X-0223150Y0032129D01*
X-0222983Y0032351D02*
Y0032184D01*
X-0222928Y0032129D01*
X-0222872D01*
X-0222817Y0032184D01*
Y0032351D01*
X-0223150D01*
X-0224131Y0031681D02*
X-0224076Y0031737D01*
X-0224020Y0031764D01*
X-0223909D01*
X-0223853Y0031737D01*
X-0223798Y0031681D01*
Y0031626D01*
X-0223853Y0031570D01*
X-0223909Y0031542D01*
X-0224020D01*
X-0224076Y0031570D01*
X-0224131Y0031626D01*
Y0031681D01*
Y0031952D02*
Y0032063D01*
Y0032008D02*
X-0223798D01*
X-0223853Y0032063D01*
X-0224131Y0032307D02*
Y0032529D01*
X-0223909Y0032307D01*
X-0223853D01*
X-0223798Y0032334D01*
Y0032501D01*
X-0223853Y0032529D01*
X-0231506Y0042281D02*
X-0231339Y0042114D01*
X-0231506Y0041947D01*
X-0231283D02*
Y0042281D01*
X-0230929D02*
X-0231096Y0041947D01*
X-0230873D01*
X-0230686Y0042170D02*
X-0230463D01*
X-0230574Y0041947D01*
X-0230630D01*
Y0042281D01*
X-0231544Y0042874D02*
X-0231489Y0042819D01*
X-0231461Y0042763D01*
Y0042652D01*
X-0231489Y0042597D01*
X-0231544Y0042541D01*
X-0231600D01*
X-0231656Y0042597D01*
X-0231683Y0042652D01*
Y0042763D01*
X-0231656Y0042819D01*
X-0231600Y0042874D01*
X-0231544D01*
X-0231273Y0042763D02*
X-0231051D01*
X-0231162Y0042541D01*
X-0231218D01*
Y0042874D01*
X-0230780Y0042708D02*
X-0230863Y0042874D01*
X-0230641Y0042708D02*
X-0230808D01*
X-0230863Y0042652D01*
Y0042597D01*
X-0230808Y0042541D01*
X-0230641D01*
Y0042874D01*
X-0231040Y0043856D02*
X-0230873Y0043689D01*
X-0231040Y0043522D01*
X-0230818D02*
Y0043856D01*
X-0230630D02*
X-0230519D01*
X-0230574D02*
Y0043522D01*
X-0230519Y0043578D01*
X-0199396Y0040364D02*
Y0040087D01*
X-0199424Y0040031D01*
X-0199591D01*
X-0199619Y0040087D01*
Y0040364D01*
X-0199945Y0040031D02*
X-0200001Y0040087D01*
X-0200029Y0040142D01*
Y0040253D01*
X-0200001Y0040309D01*
X-0199945Y0040364D01*
X-0199890D01*
X-0199834Y0040309D01*
X-0199806Y0040253D01*
Y0040142D01*
X-0199834Y0040087D01*
X-0199890Y0040031D01*
X-0199945D01*
X-0200383D02*
X-0200216Y0040364D01*
X-0200439D01*
X-0200626Y0040142D02*
X-0200849D01*
X-0200737Y0040364D01*
X-0200682D01*
Y0040031D01*
X-0218211Y0049245D02*
Y0049079D01*
X-0218045Y0049301D02*
Y0049079D01*
X-0218378D01*
Y0049301D01*
X-0218045Y0048891D02*
Y0048780D01*
Y0048835D02*
X-0218378D01*
Y0048891D02*
Y0048780D01*
X-0218323Y0048536D02*
X-0218378Y0048509D01*
Y0048342D01*
X-0218323Y0048314D01*
X-0218267D01*
X-0218211Y0048342D01*
Y0048509D01*
X-0218156Y0048536D01*
X-0218100D01*
X-0218045Y0048509D01*
Y0048342D01*
X-0218100Y0048314D01*
X-0218378Y0048126D02*
X-0218045Y0047960D01*
Y0047605D02*
X-0218100Y0047550D01*
X-0218156Y0047522D01*
X-0218267D01*
X-0218323Y0047550D01*
X-0218378Y0047605D01*
Y0047661D01*
X-0218323Y0047716D01*
X-0218267Y0047744D01*
X-0218156D01*
X-0218100Y0047716D01*
X-0218045Y0047661D01*
Y0047605D01*
Y0047195D02*
X-0218100Y0047140D01*
X-0218156Y0047112D01*
X-0218267D01*
X-0218323Y0047140D01*
X-0218378Y0047195D01*
Y0047251D01*
X-0218323Y0047306D01*
X-0218267Y0047334D01*
X-0218156D01*
X-0218100Y0047306D01*
X-0218045Y0047251D01*
Y0047195D01*
Y0046924D02*
Y0046813D01*
Y0046869D02*
X-0218378D01*
X-0218323Y0046813D01*
X-0218045Y0046570D02*
Y0046403D01*
X-0218378Y0046570D01*
Y0046403D01*
Y0046188D02*
X-0218100D01*
X-0218045Y0046160D01*
Y0045993D01*
X-0218100Y0045965D01*
X-0218378D01*
X-0218045Y0045583D02*
X-0218378D01*
X-0218045Y0045555D02*
Y0045722D01*
X-0218100Y0045778D01*
X-0218156D01*
X-0218211Y0045750D01*
Y0045583D02*
Y0045750D01*
X-0218267Y0045778D01*
X-0218323D01*
X-0218378Y0045722D01*
Y0045555D01*
X-0229114Y0048737D02*
Y0048848D01*
Y0048793D02*
X-0228780D01*
X-0228836Y0048848D01*
X-0229114Y0049092D02*
Y0049314D01*
X-0228891Y0049092D01*
X-0228836D01*
X-0228780Y0049120D01*
Y0049286D01*
X-0228836Y0049314D01*
X-0229058Y0049502D02*
X-0229114Y0049530D01*
Y0049696D01*
X-0229058Y0049724D01*
X-0228836D01*
X-0228780Y0049696D01*
Y0049530D01*
X-0228836Y0049502D01*
X-0229761Y0048366D02*
X-0230039D01*
X-0230095Y0048394D01*
Y0048561D01*
X-0230039Y0048589D01*
X-0229761D01*
X-0230095Y0048776D02*
Y0048887D01*
Y0048832D02*
X-0229761D01*
X-0229817Y0048887D01*
X-0230095Y0049186D02*
Y0049131D01*
X-0230039D01*
Y0049186D01*
X-0230095D01*
Y0049569D02*
X-0230039Y0049624D01*
X-0229984Y0049652D01*
X-0229872D01*
X-0229817Y0049624D01*
X-0229761Y0049569D01*
Y0049513D01*
X-0229817Y0049457D01*
X-0229872Y0049430D01*
X-0229984D01*
X-0230039Y0049457D01*
X-0230095Y0049513D01*
Y0049569D01*
X-0201444Y0044607D02*
X-0201333D01*
X-0201388D02*
Y0044273D01*
X-0201333Y0044329D01*
X-0201089Y0044496D02*
X-0200867D01*
X-0200978Y0044273D01*
X-0201034D01*
Y0044607D01*
X-0200596Y0044440D02*
X-0200679Y0044607D01*
X-0200457Y0044440D02*
X-0200624D01*
X-0200679Y0044384D01*
Y0044329D01*
X-0200624Y0044273D01*
X-0200457D01*
Y0044607D01*
X-0201266Y0045588D02*
X-0201099Y0045421D01*
X-0201266Y0045254D01*
X-0201044D02*
Y0045588D01*
X-0200717D02*
X-0200662Y0045532D01*
X-0200634Y0045477D01*
Y0045366D01*
X-0200662Y0045310D01*
X-0200717Y0045254D01*
X-0200773D01*
X-0200828Y0045310D01*
X-0200856Y0045366D01*
Y0045477D01*
X-0200828Y0045532D01*
X-0200773Y0045588D01*
X-0200717D01*
X-0200446D02*
X-0200335D01*
X-0200391D02*
Y0045254D01*
X-0200335Y0045310D01*
X-0232350Y0048513D02*
X-0232016D01*
X-0232072Y0048568D01*
X-0232183Y0048624D01*
X-0232072Y0048679D01*
X-0232016Y0048735D01*
X-0232350D01*
Y0048923D02*
Y0049034D01*
Y0048978D02*
X-0232016D01*
X-0232072Y0049034D01*
X-0231337Y0045481D02*
X-0231309Y0045537D01*
Y0045592D01*
X-0231337Y0045648D01*
X-0231503D01*
X-0231531Y0045592D01*
Y0045537D01*
X-0231503Y0045481D01*
X-0231337D01*
X-0231309Y0045426D01*
Y0045370D01*
X-0231337Y0045315D01*
X-0231503D01*
X-0231531Y0045370D01*
Y0045426D01*
X-0231503Y0045481D01*
X-0231941Y0045370D02*
X-0231885Y0045315D01*
X-0231774D01*
X-0231719Y0045370D01*
Y0045426D01*
X-0231830Y0045537D01*
X-0231719Y0045648D01*
X-0231941D01*
X-0232212Y0045481D02*
X-0232129Y0045315D01*
X-0232351Y0045481D02*
X-0232184D01*
X-0232129Y0045537D01*
Y0045592D01*
X-0232184Y0045648D01*
X-0232351D01*
Y0045315D01*
X-0216549Y0054348D02*
X-0216493Y0054376D01*
Y0054542D01*
X-0216549Y0054570D01*
X-0216660D01*
X-0216715Y0054514D01*
Y0054348D01*
X-0216827D01*
Y0054570D01*
X-0216493Y0054160D02*
Y0053938D01*
X-0216715Y0054160D01*
X-0216771D01*
X-0216827Y0054132D01*
Y0053966D01*
X-0216771Y0053938D01*
X-0216493Y0053750D02*
Y0053639D01*
Y0053694D02*
X-0216827D01*
X-0216771Y0053639D01*
X-0216493Y0053201D02*
X-0216827D01*
X-0216493Y0053173D02*
Y0053340D01*
X-0216604Y0053396D01*
X-0216715D01*
X-0216827Y0053340D01*
Y0053173D01*
X-0231188Y0044333D02*
X-0231354Y0044500D01*
X-0231188Y0044667D01*
X-0231410D02*
Y0044333D01*
X-0231792Y0044500D02*
X-0231626D01*
X-0231598Y0044445D01*
Y0044389D01*
X-0231626Y0044333D01*
X-0231792D01*
X-0231820Y0044389D01*
Y0044445D01*
X-0231709Y0044667D01*
X-0232063Y0044333D02*
X-0232008D01*
Y0044389D01*
X-0232063D01*
Y0044333D01*
X-0232529Y0044389D02*
X-0232501Y0044333D01*
X-0232334D01*
X-0232307Y0044389D01*
Y0044500D01*
X-0232362Y0044556D01*
X-0232529D01*
Y0044667D01*
X-0232307D01*
X-0231952Y0031735D02*
X-0232119Y0031902D01*
X-0231952Y0032068D01*
X-0232174D02*
Y0031735D01*
X-0232362D02*
X-0232473D01*
X-0232418D02*
Y0032068D01*
X-0232473Y0032013D01*
X-0228947Y0037853D02*
Y0037686D01*
X-0229002Y0037658D01*
X-0229058D01*
X-0229114Y0037686D01*
Y0037853D01*
X-0229058Y0037880D01*
X-0229002D01*
X-0228780Y0037769D01*
X-0229114Y0038068D02*
Y0038290D01*
X-0228891Y0038068D01*
X-0228836D01*
X-0228780Y0038096D01*
Y0038263D01*
X-0228836Y0038290D01*
X-0229058Y0038478D02*
X-0229114Y0038506D01*
Y0038673D01*
X-0229058Y0038700D01*
X-0228836D01*
X-0228780Y0038673D01*
Y0038506D01*
X-0228836Y0038478D01*
X-0199512Y0063616D02*
Y0063338D01*
X-0199539Y0063282D01*
X-0199706D01*
X-0199734Y0063338D01*
Y0063616D01*
X-0200061Y0063282D02*
X-0200116Y0063338D01*
X-0200144Y0063393D01*
Y0063504D01*
X-0200116Y0063560D01*
X-0200061Y0063616D01*
X-0200005D01*
X-0199949Y0063560D01*
X-0199922Y0063504D01*
Y0063393D01*
X-0199949Y0063338D01*
X-0200005Y0063282D01*
X-0200061D01*
X-0200498D02*
X-0200332Y0063616D01*
X-0200554D01*
X-0200742Y0063393D02*
X-0200964D01*
X-0200853Y0063616D01*
X-0200797D01*
Y0063282D01*
X-0200177Y0080887D02*
Y0080609D01*
X-0200205Y0080554D01*
X-0200372D01*
X-0200400Y0080609D01*
Y0080887D01*
X-0200726Y0080554D02*
X-0200782Y0080609D01*
X-0200810Y0080665D01*
Y0080776D01*
X-0200782Y0080831D01*
X-0200726Y0080887D01*
X-0200671D01*
X-0200615Y0080831D01*
X-0200587Y0080776D01*
Y0080665D01*
X-0200615Y0080609D01*
X-0200671Y0080554D01*
X-0200726D01*
X-0201164D02*
X-0200997Y0080887D01*
X-0201220D01*
X-0201407Y0080665D02*
X-0201630D01*
X-0201519Y0080887D01*
X-0201463D01*
Y0080554D01*
X-0229761Y0037343D02*
X-0230039D01*
X-0230095Y0037370D01*
Y0037537D01*
X-0230039Y0037565D01*
X-0229761D01*
X-0230095Y0037753D02*
Y0037864D01*
Y0037808D02*
X-0229761D01*
X-0229817Y0037864D01*
X-0230095Y0038163D02*
Y0038107D01*
X-0230039D01*
Y0038163D01*
X-0230095D01*
Y0038545D02*
X-0230039Y0038600D01*
X-0229984Y0038628D01*
X-0229872D01*
X-0229817Y0038600D01*
X-0229761Y0038545D01*
Y0038489D01*
X-0229817Y0038434D01*
X-0229872Y0038406D01*
X-0229984D01*
X-0230039Y0038434D01*
X-0230095Y0038489D01*
Y0038545D01*
X-0203845Y0030548D02*
X-0203790Y0030493D01*
X-0203762Y0030437D01*
Y0030326D01*
X-0203790Y0030271D01*
X-0203845Y0030215D01*
X-0203901D01*
X-0203956Y0030271D01*
X-0203984Y0030326D01*
Y0030437D01*
X-0203956Y0030493D01*
X-0203901Y0030548D01*
X-0203845D01*
X-0203352Y0030493D02*
X-0203380Y0030548D01*
X-0203546D01*
X-0203574Y0030493D01*
Y0030382D01*
X-0203519Y0030326D01*
X-0203352D01*
Y0030215D01*
X-0203574D01*
X-0203081Y0030382D02*
X-0203164Y0030548D01*
X-0202942Y0030382D02*
X-0203109D01*
X-0203164Y0030326D01*
Y0030271D01*
X-0203109Y0030215D01*
X-0202942D01*
Y0030548D01*
X-0203751Y0031530D02*
X-0203584Y0031363D01*
X-0203751Y0031196D01*
X-0203529D02*
Y0031530D01*
X-0203341D02*
X-0203230D01*
X-0203285D02*
Y0031196D01*
X-0203230Y0031252D01*
X-0202986Y0031530D02*
X-0202764D01*
X-0202986Y0031307D01*
Y0031252D01*
X-0202959Y0031196D01*
X-0202792D01*
X-0202764Y0031252D01*
X-0231487Y0033310D02*
X-0231653Y0033476D01*
X-0231487Y0033643D01*
X-0231709D02*
Y0033310D01*
X-0232063D02*
X-0231897Y0033643D01*
X-0232119D01*
X-0232307Y0033421D02*
X-0232529D01*
X-0232418Y0033643D01*
X-0232362D01*
Y0033310D01*
X-0231337Y0032883D02*
X-0231503D01*
X-0231531Y0032938D01*
Y0032994D01*
X-0231503Y0033050D01*
X-0231337D01*
X-0231309Y0032994D01*
Y0032938D01*
X-0231420Y0032716D01*
X-0231719Y0032827D02*
X-0231941D01*
X-0231830Y0033050D01*
X-0231774D01*
Y0032716D01*
X-0232212Y0032883D02*
X-0232129Y0032716D01*
X-0232351Y0032883D02*
X-0232184D01*
X-0232129Y0032938D01*
Y0032994D01*
X-0232184Y0033050D01*
X-0232351D01*
Y0032716D01*
X-0230897Y0069975D02*
Y0070141D01*
X-0230841Y0070169D01*
X-0230786D01*
X-0230730Y0070141D01*
Y0069975D01*
X-0230786Y0069947D01*
X-0230841D01*
X-0231063Y0070058D01*
Y0070357D02*
Y0070468D01*
Y0070413D02*
X-0230730D01*
X-0230786Y0070468D01*
X-0230897Y0070795D02*
X-0231063Y0070711D01*
X-0230897Y0070934D02*
Y0070767D01*
X-0230841Y0070711D01*
X-0230786D01*
X-0230730Y0070767D01*
Y0070934D01*
X-0231063D01*
X-0232045Y0070535D02*
X-0231711D01*
X-0231767Y0070590D01*
X-0231878Y0070646D01*
X-0231767Y0070702D01*
X-0231711Y0070757D01*
X-0232045D01*
Y0070945D02*
Y0071056D01*
Y0071000D02*
X-0231711D01*
X-0231767Y0071056D01*
X-0216480Y0060758D02*
Y0060536D01*
X-0216703Y0060647D01*
Y0060703D01*
X-0216369D01*
Y0060348D02*
X-0216703D01*
X-0216647Y0060293D01*
X-0216536Y0060237D01*
X-0216647Y0060182D01*
X-0216703Y0060126D01*
X-0216369D01*
X-0218211Y0063657D02*
Y0063490D01*
X-0218044Y0063713D02*
Y0063490D01*
X-0218378D01*
Y0063713D01*
X-0218044Y0063303D02*
Y0063192D01*
Y0063247D02*
X-0218378D01*
Y0063303D02*
Y0063192D01*
X-0218322Y0062948D02*
X-0218378Y0062921D01*
Y0062754D01*
X-0218322Y0062726D01*
X-0218267D01*
X-0218211Y0062754D01*
Y0062921D01*
X-0218155Y0062948D01*
X-0218100D01*
X-0218044Y0062921D01*
Y0062754D01*
X-0218100Y0062726D01*
X-0218378Y0062538D02*
X-0218044Y0062372D01*
Y0062017D02*
X-0218100Y0061962D01*
X-0218155Y0061934D01*
X-0218267D01*
X-0218322Y0061962D01*
X-0218378Y0062017D01*
Y0062073D01*
X-0218322Y0062128D01*
X-0218267Y0062156D01*
X-0218155D01*
X-0218100Y0062128D01*
X-0218044Y0062073D01*
Y0062017D01*
Y0061607D02*
X-0218100Y0061552D01*
X-0218155Y0061524D01*
X-0218267D01*
X-0218322Y0061552D01*
X-0218378Y0061607D01*
Y0061663D01*
X-0218322Y0061718D01*
X-0218267Y0061746D01*
X-0218155D01*
X-0218100Y0061718D01*
X-0218044Y0061663D01*
Y0061607D01*
Y0061336D02*
Y0061225D01*
Y0061281D02*
X-0218378D01*
X-0218322Y0061225D01*
X-0218044Y0060982D02*
Y0060815D01*
X-0218378Y0060982D01*
Y0060815D01*
Y0060599D02*
X-0218100D01*
X-0218044Y0060572D01*
Y0060405D01*
X-0218100Y0060377D01*
X-0218378D01*
X-0218044Y0059995D02*
X-0218378D01*
X-0218044Y0059967D02*
Y0060134D01*
X-0218100Y0060189D01*
X-0218155D01*
X-0218211Y0060162D01*
Y0059995D02*
Y0060162D01*
X-0218267Y0060189D01*
X-0218322D01*
X-0218378Y0060134D01*
Y0059967D01*
X-0222842Y0054037D02*
Y0053926D01*
Y0053982D02*
X-0223175D01*
X-0223120Y0053926D01*
X-0222898Y0053461D02*
X-0222842Y0053516D01*
Y0053627D01*
X-0222898Y0053683D01*
X-0222953D01*
X-0223064Y0053572D01*
X-0223175Y0053683D01*
Y0053461D01*
X-0223009Y0053189D02*
X-0222842Y0053273D01*
X-0223009Y0053051D02*
Y0053217D01*
X-0223064Y0053273D01*
X-0223120D01*
X-0223175Y0053217D01*
Y0053051D01*
X-0222842D01*
X-0201043Y0063713D02*
Y0063447D01*
X-0200910Y0063580D02*
X-0201177D01*
X-0200008Y0066263D02*
X-0200063Y0066319D01*
X-0200091Y0066375D01*
Y0066486D01*
X-0200063Y0066541D01*
X-0200008Y0066597D01*
X-0199952D01*
X-0199897Y0066541D01*
X-0199869Y0066486D01*
Y0066375D01*
X-0199897Y0066319D01*
X-0199952Y0066263D01*
X-0200008D01*
X-0200279D02*
X-0200501D01*
X-0200279Y0066486D01*
Y0066541D01*
X-0200307Y0066597D01*
X-0200473D01*
X-0200501Y0066541D01*
X-0200689Y0066319D02*
X-0200717Y0066263D01*
X-0200883D01*
X-0200911Y0066319D01*
Y0066541D01*
X-0200883Y0066597D01*
X-0200717D01*
X-0200689Y0066541D01*
X-0230716Y0054143D02*
X-0230549D01*
X-0230521Y0054087D01*
Y0054032D01*
X-0230549Y0053976D01*
X-0230716D01*
X-0230744Y0054032D01*
Y0054087D01*
X-0230632Y0054309D01*
X-0230931Y0053976D02*
X-0231154D01*
X-0230931Y0054198D01*
Y0054254D01*
X-0230959Y0054309D01*
X-0231126D01*
X-0231154Y0054254D01*
X-0231425Y0054143D02*
X-0231341Y0053976D01*
X-0231564Y0054143D02*
X-0231397D01*
X-0231341Y0054198D01*
Y0054254D01*
X-0231397Y0054309D01*
X-0231564D01*
Y0053976D01*
X-0230894Y0052995D02*
X-0230949Y0053050D01*
X-0230977Y0053106D01*
Y0053217D01*
X-0230949Y0053273D01*
X-0230894Y0053328D01*
X-0230838D01*
X-0230783Y0053273D01*
X-0230755Y0053217D01*
Y0053106D01*
X-0230783Y0053050D01*
X-0230838Y0052995D01*
X-0230894D01*
X-0231387Y0053050D02*
X-0231359Y0052995D01*
X-0231193D01*
X-0231165Y0053050D01*
Y0053162D01*
X-0231220Y0053217D01*
X-0231387D01*
Y0053328D01*
X-0231165D01*
X-0231575Y0052995D02*
X-0231686D01*
X-0231630D02*
Y0053328D01*
X-0231686Y0053273D01*
X-0230757Y0066496D02*
X-0230701Y0066441D01*
X-0230674Y0066385D01*
Y0066274D01*
X-0230701Y0066219D01*
X-0230757Y0066163D01*
X-0230813D01*
X-0230868Y0066219D01*
X-0230896Y0066274D01*
Y0066385D01*
X-0230868Y0066441D01*
X-0230813Y0066496D01*
X-0230757D01*
X-0230486D02*
X-0230264D01*
X-0230486Y0066274D01*
Y0066219D01*
X-0230458Y0066163D01*
X-0230291D01*
X-0230264Y0066219D01*
X-0229993Y0066330D02*
X-0230076Y0066496D01*
X-0229854Y0066330D02*
X-0230020D01*
X-0230076Y0066274D01*
Y0066219D01*
X-0230020Y0066163D01*
X-0229854D01*
Y0066496D01*
X-0231017Y0067478D02*
X-0230850Y0067311D01*
X-0231017Y0067144D01*
X-0230795D02*
Y0067478D01*
X-0230413Y0067311D02*
X-0230579D01*
X-0230607Y0067366D01*
Y0067422D01*
X-0230579Y0067478D01*
X-0230413D01*
X-0230385Y0067422D01*
Y0067366D01*
X-0230496Y0067144D01*
X-0230141Y0067478D02*
X-0230197D01*
Y0067422D01*
X-0230141D01*
Y0067478D01*
X-0229676Y0067422D02*
X-0229704Y0067478D01*
X-0229870D01*
X-0229898Y0067422D01*
Y0067311D01*
X-0229843Y0067255D01*
X-0229676D01*
Y0067144D01*
X-0229898D01*
X-0200226Y0096327D02*
Y0096215D01*
Y0096271D02*
X-0200560D01*
X-0200504Y0096215D01*
X-0198415Y0097873D02*
Y0097762D01*
Y0097818D02*
X-0198749D01*
X-0198693Y0097762D01*
X-0198527Y0097324D02*
X-0198471D01*
X-0198415Y0097352D01*
Y0097463D01*
X-0198471Y0097491D01*
X-0198749D01*
Y0097519D02*
Y0097408D01*
X-0201374Y0098660D02*
Y0098549D01*
Y0098604D02*
X-0201708D01*
X-0201652Y0098549D01*
X-0201263Y0098306D02*
Y0098083D01*
X-0201708Y0097896D02*
X-0201596D01*
X-0201374Y0097784D01*
X-0201596Y0097673D01*
X-0201708D01*
X-0201430Y0097263D02*
X-0201374Y0097291D01*
Y0097458D01*
X-0201430Y0097486D01*
X-0201541D01*
X-0201596Y0097430D01*
Y0097263D01*
X-0201708D01*
Y0097486D01*
X-0218324Y0097186D02*
X-0218379Y0097158D01*
X-0218602D01*
X-0218657Y0097186D01*
Y0097353D01*
X-0218602Y0097380D01*
X-0218379D01*
X-0218324Y0097353D01*
Y0097186D01*
Y0096859D02*
X-0218657D01*
Y0096970D02*
Y0096748D01*
Y0096560D02*
X-0218324Y0096394D01*
X-0218379Y0095956D02*
X-0218324Y0095984D01*
Y0096150D01*
X-0218379Y0096178D01*
X-0218491D01*
X-0218546Y0096123D01*
Y0095956D01*
X-0218657D01*
Y0096178D01*
X-0218435Y0095768D02*
Y0095546D01*
X-0218657Y0095657D01*
Y0095713D01*
X-0218324D01*
Y0095219D02*
X-0218379Y0095164D01*
X-0218435Y0095136D01*
X-0218546D01*
X-0218602Y0095164D01*
X-0218657Y0095219D01*
Y0095275D01*
X-0218602Y0095330D01*
X-0218546Y0095358D01*
X-0218435D01*
X-0218379Y0095330D01*
X-0218324Y0095275D01*
Y0095219D01*
Y0094948D02*
Y0094837D01*
Y0094893D02*
X-0218657D01*
X-0218602Y0094837D01*
X-0218491Y0094510D02*
X-0218324Y0094594D01*
X-0218491Y0094371D02*
Y0094538D01*
X-0218546Y0094594D01*
X-0218602D01*
X-0218657Y0094538D01*
Y0094371D01*
X-0218324D01*
Y0093989D02*
X-0218657D01*
X-0218324Y0093961D02*
Y0094128D01*
X-0218379Y0094184D01*
X-0218435D01*
X-0218491Y0094156D01*
Y0093989D02*
Y0094156D01*
X-0218546Y0094184D01*
X-0218602D01*
X-0218657Y0094128D01*
Y0093961D01*
X-0218324Y0093774D02*
X-0218657D01*
X-0218602Y0093718D01*
X-0218491Y0093663D01*
X-0218602Y0093607D01*
X-0218657Y0093551D01*
X-0218324D01*
X-0216649Y0094940D02*
X-0216982Y0095107D01*
Y0094885D01*
X-0216649Y0094697D02*
Y0094475D01*
X-0216871Y0094697D01*
X-0216926D01*
X-0216982Y0094669D01*
Y0094503D01*
X-0216926Y0094475D01*
X-0216649Y0094287D02*
Y0094176D01*
Y0094231D02*
X-0216982D01*
X-0216926Y0094176D01*
X-0216649Y0093738D02*
X-0216982D01*
X-0216649Y0093710D02*
Y0093877D01*
X-0216760Y0093933D01*
X-0216871D01*
X-0216982Y0093877D01*
Y0093710D01*
X-0231309Y0031141D02*
X-0231531D01*
X-0231309Y0031364D01*
Y0031419D01*
X-0231337Y0031475D01*
X-0231503D01*
X-0231531Y0031419D01*
X-0231941Y0031197D02*
X-0231913Y0031141D01*
X-0231747D01*
X-0231719Y0031197D01*
Y0031308D01*
X-0231774Y0031364D01*
X-0231941D01*
Y0031475D01*
X-0231719D01*
X-0232212Y0031308D02*
X-0232129Y0031141D01*
X-0232351Y0031308D02*
X-0232184D01*
X-0232129Y0031364D01*
Y0031419D01*
X-0232184Y0031475D01*
X-0232351D01*
Y0031141D01*
X-0219855Y0105935D02*
X-0219966D01*
X-0219910D02*
Y0106268D01*
X-0219966Y0106213D01*
X-0218419Y0104124D02*
X-0218252Y0104457D01*
X-0218475D01*
X-0218857Y0104235D02*
Y0104180D01*
X-0218829Y0104124D01*
X-0218718D01*
X-0218690Y0104180D01*
Y0104457D01*
X-0218662D02*
X-0218774D01*
X-0217466Y0107083D02*
X-0217688D01*
X-0217466Y0107305D01*
Y0107361D01*
X-0217493Y0107416D01*
X-0217660D01*
X-0217688Y0107361D01*
X-0217876Y0107416D02*
Y0107083D01*
X-0217931Y0107138D01*
X-0218042Y0107361D01*
X-0218098Y0107416D01*
Y0107083D01*
X-0218480D02*
X-0218508Y0107138D01*
Y0107361D01*
X-0218480Y0107416D01*
X-0218313D01*
X-0218285Y0107361D01*
Y0107138D01*
X-0218313Y0107083D01*
X-0218480D01*
X-0218695Y0107138D02*
X-0218723Y0107083D01*
X-0218890D01*
X-0218918Y0107138D01*
Y0107361D01*
X-0218890Y0107416D01*
X-0218723D01*
X-0218695Y0107361D01*
X-0200544Y0047046D02*
Y0046935D01*
Y0046991D02*
X-0200877D01*
X-0200822Y0046935D01*
X-0198789Y0048426D02*
X-0198733Y0048454D01*
Y0048621D01*
X-0198789Y0048648D01*
X-0198900D01*
X-0198955Y0048593D01*
Y0048426D01*
X-0199066D01*
Y0048648D01*
X-0198844Y0048044D02*
X-0198789D01*
X-0198733Y0048072D01*
Y0048183D01*
X-0198789Y0048211D01*
X-0199066D01*
Y0048238D02*
Y0048127D01*
X-0201692Y0049790D02*
Y0049567D01*
X-0201914Y0049790D01*
X-0201970D01*
X-0202025Y0049762D01*
Y0049595D01*
X-0201970Y0049567D01*
X-0201581Y0049380D02*
Y0049157D01*
X-0202025Y0048970D02*
X-0201914D01*
X-0201692Y0048859D01*
X-0201914Y0048747D01*
X-0202025D01*
X-0201692Y0048560D02*
Y0048338D01*
X-0201914Y0048560D01*
X-0201970D01*
X-0202025Y0048532D01*
Y0048365D01*
X-0201970Y0048338D01*
X-0201692Y0048150D02*
Y0048039D01*
Y0048094D02*
X-0202025D01*
X-0201970Y0048039D01*
X-0231188Y0030160D02*
X-0231354Y0030327D01*
X-0231188Y0030494D01*
X-0231410D02*
Y0030160D01*
X-0231792Y0030327D02*
X-0231626D01*
X-0231598Y0030271D01*
Y0030216D01*
X-0231626Y0030160D01*
X-0231792D01*
X-0231820Y0030216D01*
Y0030271D01*
X-0231709Y0030494D01*
X-0232063Y0030160D02*
X-0232008D01*
Y0030216D01*
X-0232063D01*
Y0030160D01*
X-0232529Y0030216D02*
X-0232501Y0030160D01*
X-0232334D01*
X-0232307Y0030216D01*
Y0030327D01*
X-0232362Y0030382D01*
X-0232529D01*
Y0030494D01*
X-0232307D01*
X-0231337Y0034458D02*
X-0231309Y0034513D01*
Y0034569D01*
X-0231337Y0034624D01*
X-0231503D01*
X-0231531Y0034569D01*
Y0034513D01*
X-0231503Y0034458D01*
X-0231337D01*
X-0231309Y0034402D01*
Y0034347D01*
X-0231337Y0034291D01*
X-0231503D01*
X-0231531Y0034347D01*
Y0034402D01*
X-0231503Y0034458D01*
X-0231719Y0034402D02*
X-0231941D01*
X-0231830Y0034624D01*
X-0231774D01*
Y0034291D01*
X-0232212Y0034458D02*
X-0232129Y0034291D01*
X-0232351Y0034458D02*
X-0232184D01*
X-0232129Y0034513D01*
Y0034569D01*
X-0232184Y0034624D01*
X-0232351D01*
Y0034291D01*
X-0201340Y0071131D02*
X-0201173Y0070964D01*
X-0201340Y0070798D01*
X-0201118D02*
Y0071131D01*
X-0200763D02*
X-0200930Y0070798D01*
X-0200708D01*
X-0200464Y0071131D02*
X-0200520D01*
Y0071076D01*
X-0200464D01*
Y0071131D01*
X-0200221Y0071020D02*
X-0199999D01*
X-0200110Y0070798D01*
X-0200165D01*
Y0071131D01*
X-0218168Y0056649D02*
X-0218224Y0056621D01*
X-0218446D01*
X-0218502Y0056649D01*
Y0056816D01*
X-0218446Y0056843D01*
X-0218224D01*
X-0218168Y0056816D01*
Y0056649D01*
Y0056322D02*
X-0218502D01*
Y0056433D02*
Y0056211D01*
Y0056023D02*
X-0218168Y0055857D01*
X-0218224Y0055419D02*
X-0218168Y0055447D01*
Y0055613D01*
X-0218224Y0055641D01*
X-0218335D01*
X-0218391Y0055586D01*
Y0055419D01*
X-0218502D01*
Y0055641D01*
X-0218279Y0055231D02*
Y0055009D01*
X-0218502Y0055120D01*
Y0055176D01*
X-0218168D01*
Y0054682D02*
X-0218224Y0054627D01*
X-0218279Y0054599D01*
X-0218391D01*
X-0218446Y0054627D01*
X-0218502Y0054682D01*
Y0054738D01*
X-0218446Y0054793D01*
X-0218391Y0054821D01*
X-0218279D01*
X-0218224Y0054793D01*
X-0218168Y0054738D01*
Y0054682D01*
Y0054411D02*
Y0054300D01*
Y0054356D02*
X-0218502D01*
X-0218446Y0054300D01*
X-0218335Y0053973D02*
X-0218168Y0054057D01*
X-0218335Y0053834D02*
Y0054001D01*
X-0218391Y0054057D01*
X-0218446D01*
X-0218502Y0054001D01*
Y0053834D01*
X-0218168D01*
Y0053452D02*
X-0218502D01*
X-0218168Y0053424D02*
Y0053591D01*
X-0218224Y0053647D01*
X-0218279D01*
X-0218335Y0053619D01*
Y0053452D02*
Y0053619D01*
X-0218391Y0053647D01*
X-0218446D01*
X-0218502Y0053591D01*
Y0053424D01*
X-0218168Y0053237D02*
X-0218502D01*
X-0218446Y0053181D01*
X-0218335Y0053126D01*
X-0218446Y0053070D01*
X-0218502Y0053014D01*
X-0218168D01*
X-0220846Y0059174D02*
Y0059396D01*
X-0220624Y0059285D01*
Y0059229D01*
X-0220957D01*
X-0220902Y0059806D02*
X-0220957Y0059750D01*
Y0059639D01*
X-0220902Y0059584D01*
X-0220846D01*
X-0220735Y0059695D01*
X-0220624Y0059584D01*
Y0059806D01*
X-0220791Y0060077D02*
X-0220957Y0059994D01*
X-0220791Y0060216D02*
Y0060049D01*
X-0220735Y0059994D01*
X-0220680D01*
X-0220624Y0060049D01*
Y0060216D01*
X-0220957D01*
X-0230109Y0059683D02*
X-0230054Y0059655D01*
X-0229998D01*
X-0229943Y0059683D01*
Y0059850D01*
X-0229998Y0059877D01*
X-0230054D01*
X-0230109Y0059850D01*
Y0059683D01*
X-0230165Y0059655D01*
X-0230220D01*
X-0230276Y0059683D01*
Y0059850D01*
X-0230220Y0059877D01*
X-0230165D01*
X-0230109Y0059850D01*
X-0230276Y0060065D02*
Y0060287D01*
X-0230054Y0060065D01*
X-0229998D01*
X-0229943Y0060093D01*
Y0060260D01*
X-0229998Y0060287D01*
X-0230109Y0060559D02*
X-0230276Y0060475D01*
X-0230109Y0060697D02*
Y0060531D01*
X-0230054Y0060475D01*
X-0229998D01*
X-0229943Y0060531D01*
Y0060697D01*
X-0230276D01*
X-0231257Y0060299D02*
X-0230924D01*
X-0230979Y0060354D01*
X-0231090Y0060410D01*
X-0230979Y0060465D01*
X-0230924Y0060521D01*
X-0231257D01*
Y0060709D02*
Y0060820D01*
Y0060764D02*
X-0230924D01*
X-0230979Y0060820D01*
X-0230549Y0057292D02*
X-0230716D01*
X-0230744Y0057348D01*
Y0057403D01*
X-0230716Y0057459D01*
X-0230549D01*
X-0230521Y0057403D01*
Y0057348D01*
X-0230632Y0057126D01*
X-0230931D02*
X-0231154D01*
X-0230931Y0057348D01*
Y0057403D01*
X-0230959Y0057459D01*
X-0231126D01*
X-0231154Y0057403D01*
X-0231425Y0057292D02*
X-0231341Y0057126D01*
X-0231564Y0057292D02*
X-0231397D01*
X-0231341Y0057348D01*
Y0057403D01*
X-0231397Y0057459D01*
X-0231564D01*
Y0057126D01*
X-0230400Y0056144D02*
X-0230567Y0056311D01*
X-0230400Y0056478D01*
X-0230623D02*
Y0056144D01*
X-0231005Y0056311D02*
X-0230838D01*
X-0230810Y0056256D01*
Y0056200D01*
X-0230838Y0056144D01*
X-0231005D01*
X-0231033Y0056200D01*
Y0056256D01*
X-0230921Y0056478D01*
X-0231276Y0056144D02*
X-0231220D01*
Y0056200D01*
X-0231276D01*
Y0056144D01*
X-0231741Y0056200D02*
X-0231714Y0056144D01*
X-0231547D01*
X-0231519Y0056200D01*
Y0056311D01*
X-0231575Y0056367D01*
X-0231741D01*
Y0056478D01*
X-0231519D01*
X-0220465Y0069529D02*
Y0069751D01*
X-0220243Y0069529D01*
X-0220187D01*
X-0220132Y0069557D01*
Y0069724D01*
X-0220187Y0069751D01*
X-0220465Y0069939D02*
Y0070161D01*
X-0220243Y0069939D01*
X-0220187D01*
X-0220132Y0069967D01*
Y0070134D01*
X-0220187Y0070161D01*
X-0220298Y0070433D02*
X-0220465Y0070349D01*
X-0220298Y0070571D02*
Y0070405D01*
X-0220243Y0070349D01*
X-0220187D01*
X-0220132Y0070405D01*
Y0070571D01*
X-0220465D01*
X-0199402Y0052184D02*
Y0051906D01*
X-0199430Y0051851D01*
X-0199596D01*
X-0199624Y0051906D01*
Y0052184D01*
X-0199951Y0051851D02*
X-0200006Y0051906D01*
X-0200034Y0051962D01*
Y0052073D01*
X-0200006Y0052129D01*
X-0199951Y0052184D01*
X-0199895D01*
X-0199840Y0052129D01*
X-0199812Y0052073D01*
Y0051962D01*
X-0199840Y0051906D01*
X-0199895Y0051851D01*
X-0199951D01*
X-0200388D02*
X-0200222Y0052184D01*
X-0200444D01*
X-0200632Y0051962D02*
X-0200854D01*
X-0200743Y0052184D01*
X-0200687D01*
Y0051851D01*
X-0200933Y0052282D02*
Y0052015D01*
X-0200800Y0052148D02*
X-0201067D01*
X-0199981Y0054887D02*
X-0199953Y0054832D01*
X-0199787D01*
X-0199759Y0054887D01*
Y0054999D01*
X-0199815Y0055054D01*
X-0199981D01*
Y0055165D01*
X-0199759D01*
X-0200169Y0054832D02*
X-0200391D01*
X-0200169Y0055054D01*
Y0055110D01*
X-0200197Y0055165D01*
X-0200363D01*
X-0200391Y0055110D01*
X-0200579Y0054887D02*
X-0200607Y0054832D01*
X-0200773D01*
X-0200801Y0054887D01*
Y0055110D01*
X-0200773Y0055165D01*
X-0200607D01*
X-0200579Y0055110D01*
X-0200928Y0040462D02*
Y0040195D01*
X-0200795Y0040329D02*
X-0201061D01*
X-0199892Y0043012D02*
X-0199948Y0043068D01*
X-0199976Y0043123D01*
Y0043234D01*
X-0199948Y0043290D01*
X-0199892Y0043346D01*
X-0199837D01*
X-0199781Y0043290D01*
X-0199753Y0043234D01*
Y0043123D01*
X-0199781Y0043068D01*
X-0199837Y0043012D01*
X-0199892D01*
X-0200386Y0043068D02*
X-0200330Y0043012D01*
X-0200219D01*
X-0200163Y0043068D01*
Y0043123D01*
X-0200275Y0043234D01*
X-0200163Y0043346D01*
X-0200386D01*
X-0200573Y0043068D02*
X-0200601Y0043012D01*
X-0200768D01*
X-0200796Y0043068D01*
Y0043290D01*
X-0200768Y0043346D01*
X-0200601D01*
X-0200573Y0043290D01*
X-0222425Y0042650D02*
X-0222370Y0042706D01*
Y0042817D01*
X-0222425Y0042872D01*
X-0222481D01*
X-0222592Y0042761D01*
X-0222703Y0042872D01*
Y0042650D01*
X-0222481Y0042462D02*
Y0042240D01*
X-0222703Y0042351D01*
Y0042407D01*
X-0222370D01*
X-0222536Y0041969D02*
X-0222370Y0042052D01*
X-0222536Y0041830D02*
Y0041997D01*
X-0222592Y0042052D01*
X-0222648D01*
X-0222703Y0041997D01*
Y0041830D01*
X-0222370D01*
X-0226447Y0053296D02*
X-0226281Y0053629D01*
X-0226503D01*
X-0226691Y0053296D02*
X-0226802D01*
X-0226746D02*
Y0053629D01*
X-0226802Y0053574D01*
X-0227045Y0053351D02*
X-0227073Y0053296D01*
X-0227240D01*
X-0227267Y0053351D01*
Y0053574D01*
X-0227240Y0053629D01*
X-0227073D01*
X-0227045Y0053574D01*
X-0225090Y0052648D02*
Y0052370D01*
X-0225117Y0052315D01*
X-0225284D01*
X-0225312Y0052370D01*
Y0052648D01*
X-0225500Y0052315D02*
X-0225611D01*
X-0225555D02*
Y0052648D01*
X-0225611Y0052593D01*
X-0225993Y0052315D02*
X-0226049Y0052370D01*
X-0226076Y0052426D01*
Y0052537D01*
X-0226049Y0052593D01*
X-0225993Y0052648D01*
X-0225937D01*
X-0225882Y0052593D01*
X-0225854Y0052537D01*
Y0052426D01*
X-0225882Y0052370D01*
X-0225937Y0052315D01*
X-0225993D01*
X-0226403D02*
X-0226459Y0052370D01*
X-0226486Y0052426D01*
Y0052537D01*
X-0226459Y0052593D01*
X-0226403Y0052648D01*
X-0226347D01*
X-0226292Y0052593D01*
X-0226264Y0052537D01*
Y0052426D01*
X-0226292Y0052370D01*
X-0226347Y0052315D01*
X-0226403D01*
X-0226730D02*
X-0226674D01*
Y0052370D01*
X-0226730D01*
Y0052315D01*
X-0227112D02*
X-0227167Y0052370D01*
X-0227195Y0052426D01*
Y0052537D01*
X-0227167Y0052593D01*
X-0227112Y0052648D01*
X-0227056D01*
X-0227001Y0052593D01*
X-0226973Y0052537D01*
Y0052426D01*
X-0227001Y0052370D01*
X-0227056Y0052315D01*
X-0227112D01*
X-0221559Y0048066D02*
X-0221615Y0048039D01*
Y0047872D01*
X-0221559Y0047844D01*
X-0221448D01*
X-0221392Y0047900D01*
Y0048066D01*
X-0221281D01*
Y0047844D01*
X-0221559Y0048476D02*
X-0221615Y0048421D01*
Y0048310D01*
X-0221559Y0048254D01*
X-0221503D01*
X-0221392Y0048365D01*
X-0221281Y0048254D01*
Y0048476D01*
X-0221448Y0048748D02*
X-0221615Y0048664D01*
X-0221448Y0048886D02*
Y0048720D01*
X-0221392Y0048664D01*
X-0221337D01*
X-0221281Y0048720D01*
Y0048886D01*
X-0221615D01*
X-0222596Y0048216D02*
X-0222540Y0048272D01*
X-0222485Y0048300D01*
X-0222373D01*
X-0222318Y0048272D01*
X-0222262Y0048216D01*
Y0048161D01*
X-0222318Y0048105D01*
X-0222373Y0048078D01*
X-0222485D01*
X-0222540Y0048105D01*
X-0222596Y0048161D01*
Y0048216D01*
X-0222540Y0048710D02*
X-0222596Y0048682D01*
Y0048515D01*
X-0222540Y0048488D01*
X-0222429D01*
X-0222373Y0048543D01*
Y0048710D01*
X-0222262D01*
Y0048488D01*
X-0222596Y0048898D02*
Y0049009D01*
Y0048953D02*
X-0222262D01*
X-0222318Y0049009D01*
X-0230688Y0055551D02*
X-0230521Y0055884D01*
X-0230744D01*
X-0230931Y0055551D02*
X-0231154D01*
X-0230931Y0055773D01*
Y0055829D01*
X-0230959Y0055884D01*
X-0231126D01*
X-0231154Y0055829D01*
X-0231425Y0055717D02*
X-0231341Y0055551D01*
X-0231564Y0055717D02*
X-0231397D01*
X-0231341Y0055773D01*
Y0055829D01*
X-0231397Y0055884D01*
X-0231564D01*
Y0055551D01*
X-0230400Y0054570D02*
X-0230567Y0054736D01*
X-0230400Y0054903D01*
X-0230623D02*
Y0054570D01*
X-0231005Y0054736D02*
X-0230838D01*
X-0230810Y0054681D01*
Y0054625D01*
X-0230838Y0054570D01*
X-0231005D01*
X-0231033Y0054625D01*
Y0054681D01*
X-0230921Y0054903D01*
X-0231276Y0054570D02*
X-0231220D01*
Y0054625D01*
X-0231276D01*
Y0054570D01*
X-0231741Y0054625D02*
X-0231714Y0054570D01*
X-0231547D01*
X-0231519Y0054625D01*
Y0054736D01*
X-0231575Y0054792D01*
X-0231741D01*
Y0054903D01*
X-0231519D01*
X-0227589Y0031516D02*
X-0227422Y0031850D01*
X-0227644D01*
X-0227832Y0031516D02*
X-0228054D01*
X-0227832Y0031739D01*
Y0031794D01*
X-0227860Y0031850D01*
X-0228026D01*
X-0228054Y0031794D01*
X-0228242Y0031572D02*
X-0228270Y0031516D01*
X-0228436D01*
X-0228464Y0031572D01*
Y0031794D01*
X-0228436Y0031850D01*
X-0228270D01*
X-0228242Y0031794D01*
X-0226286Y0030869D02*
Y0030591D01*
X-0226314Y0030535D01*
X-0226481D01*
X-0226509Y0030591D01*
Y0030869D01*
X-0226696Y0030535D02*
X-0226808D01*
X-0226752D02*
Y0030869D01*
X-0226808Y0030813D01*
X-0227190Y0030535D02*
X-0227245Y0030591D01*
X-0227273Y0030646D01*
Y0030757D01*
X-0227245Y0030813D01*
X-0227190Y0030869D01*
X-0227134D01*
X-0227079Y0030813D01*
X-0227051Y0030757D01*
Y0030646D01*
X-0227079Y0030591D01*
X-0227134Y0030535D01*
X-0227190D01*
X-0227600D02*
X-0227655Y0030591D01*
X-0227683Y0030646D01*
Y0030757D01*
X-0227655Y0030813D01*
X-0227600Y0030869D01*
X-0227544D01*
X-0227489Y0030813D01*
X-0227461Y0030757D01*
Y0030646D01*
X-0227489Y0030591D01*
X-0227544Y0030535D01*
X-0227600D01*
X-0227926D02*
X-0227871D01*
Y0030591D01*
X-0227926D01*
Y0030535D01*
X-0228309D02*
X-0228364Y0030591D01*
X-0228392Y0030646D01*
Y0030757D01*
X-0228364Y0030813D01*
X-0228309Y0030869D01*
X-0228253D01*
X-0228198Y0030813D01*
X-0228170Y0030757D01*
Y0030646D01*
X-0228198Y0030591D01*
X-0228253Y0030535D01*
X-0228309D01*
X-0221503Y0036821D02*
Y0037043D01*
X-0221281Y0036932D01*
Y0036876D01*
X-0221615D01*
X-0221503Y0037231D02*
Y0037453D01*
X-0221281Y0037342D01*
Y0037286D01*
X-0221615D01*
X-0221448Y0037724D02*
X-0221615Y0037641D01*
X-0221448Y0037863D02*
Y0037696D01*
X-0221392Y0037641D01*
X-0221337D01*
X-0221281Y0037696D01*
Y0037863D01*
X-0221615D01*
X-0222596Y0037193D02*
X-0222540Y0037248D01*
X-0222485Y0037276D01*
X-0222373D01*
X-0222318Y0037248D01*
X-0222262Y0037193D01*
Y0037137D01*
X-0222318Y0037082D01*
X-0222373Y0037054D01*
X-0222485D01*
X-0222540Y0037082D01*
X-0222596Y0037137D01*
Y0037193D01*
X-0222540Y0037686D02*
X-0222596Y0037658D01*
Y0037492D01*
X-0222540Y0037464D01*
X-0222429D01*
X-0222373Y0037520D01*
Y0037686D01*
X-0222262D01*
Y0037464D01*
X-0222596Y0037874D02*
Y0037985D01*
Y0037930D02*
X-0222262D01*
X-0222318Y0037985D01*
X-0223134Y0037043D02*
X-0223189Y0037015D01*
Y0036848D01*
X-0223134Y0036821D01*
X-0223023D01*
X-0222967Y0036876D01*
Y0037043D01*
X-0222856D01*
Y0036821D01*
X-0223078Y0037231D02*
Y0037453D01*
X-0222856Y0037342D01*
Y0037286D01*
X-0223189D01*
X-0223023Y0037724D02*
X-0223189Y0037641D01*
X-0223023Y0037863D02*
Y0037696D01*
X-0222967Y0037641D01*
X-0222912D01*
X-0222856Y0037696D01*
Y0037863D01*
X-0223189D01*
X-0224170Y0036700D02*
X-0224004Y0036866D01*
X-0223837Y0036700D01*
Y0036922D02*
X-0224170D01*
X-0224004Y0037304D02*
Y0037137D01*
X-0224059Y0037110D01*
X-0224115D01*
X-0224170Y0037137D01*
Y0037304D01*
X-0224115Y0037332D01*
X-0224059D01*
X-0223837Y0037221D01*
X-0224170Y0037575D02*
Y0037520D01*
X-0224115D01*
Y0037575D01*
X-0224170D01*
X-0224115Y0038041D02*
X-0224170Y0038013D01*
Y0037846D01*
X-0224115Y0037818D01*
X-0224004D01*
X-0223948Y0037874D01*
Y0038041D01*
X-0223837D01*
Y0037818D01*
X-0233194Y0060258D02*
X-0233027Y0060425D01*
X-0232861Y0060258D01*
Y0060480D02*
X-0233194D01*
Y0060835D02*
X-0232861Y0060668D01*
Y0060890D01*
X-0233083Y0061078D02*
Y0061300D01*
X-0232861Y0061189D01*
Y0061134D01*
X-0233194D01*
X-0216425Y0046124D02*
X-0216370Y0046152D01*
Y0046319D01*
X-0216425Y0046346D01*
X-0216536D01*
X-0216592Y0046291D01*
Y0046124D01*
X-0216703D01*
Y0046346D01*
X-0216370Y0045936D02*
X-0216703D01*
X-0216647Y0045881D01*
X-0216536Y0045825D01*
X-0216647Y0045770D01*
X-0216703Y0045714D01*
X-0216370D01*
X-0232638Y0036987D02*
X-0232305Y0036821D01*
Y0037043D01*
X-0232527Y0037231D02*
Y0037453D01*
X-0232305Y0037342D01*
Y0037286D01*
X-0232638D01*
X-0232471Y0037724D02*
X-0232638Y0037641D01*
X-0232471Y0037863D02*
Y0037696D01*
X-0232416Y0037641D01*
X-0232360D01*
X-0232305Y0037696D01*
Y0037863D01*
X-0232638D01*
X-0233619Y0036700D02*
X-0233453Y0036866D01*
X-0233286Y0036700D01*
Y0036922D02*
X-0233619D01*
X-0233453Y0037304D02*
Y0037137D01*
X-0233508Y0037110D01*
X-0233564D01*
X-0233619Y0037137D01*
Y0037304D01*
X-0233564Y0037332D01*
X-0233508D01*
X-0233286Y0037221D01*
X-0233619Y0037575D02*
Y0037520D01*
X-0233564D01*
Y0037575D01*
X-0233619D01*
X-0233564Y0038041D02*
X-0233619Y0038013D01*
Y0037846D01*
X-0233564Y0037818D01*
X-0233453D01*
X-0233397Y0037874D01*
Y0038041D01*
X-0233286D01*
Y0037818D01*
X-0221389Y0042993D02*
X-0221555Y0042827D01*
X-0221722Y0042993D01*
Y0042771D02*
X-0221389D01*
X-0221555Y0042389D02*
Y0042556D01*
X-0221500Y0042583D01*
X-0221444D01*
X-0221389Y0042556D01*
Y0042389D01*
X-0221444Y0042361D01*
X-0221500D01*
X-0221722Y0042472D01*
X-0221389Y0042118D02*
Y0042173D01*
X-0221444D01*
Y0042118D01*
X-0221389D01*
X-0221444Y0041652D02*
X-0221389Y0041680D01*
Y0041847D01*
X-0221444Y0041874D01*
X-0221555D01*
X-0221611Y0041819D01*
Y0041652D01*
X-0221722D01*
Y0041874D01*
X-0231368Y0048036D02*
X-0231035Y0047869D01*
Y0048092D01*
X-0231313Y0048502D02*
X-0231368Y0048446D01*
Y0048335D01*
X-0231313Y0048279D01*
X-0231257D01*
X-0231146Y0048391D01*
X-0231035Y0048279D01*
Y0048502D01*
X-0231202Y0048773D02*
X-0231368Y0048689D01*
X-0231202Y0048912D02*
Y0048745D01*
X-0231146Y0048689D01*
X-0231091D01*
X-0231035Y0048745D01*
Y0048912D01*
X-0231368D01*
X-0200423Y0034676D02*
Y0034565D01*
Y0034621D02*
X-0200756D01*
X-0200701Y0034565D01*
X-0198779Y0036084D02*
Y0036250D01*
X-0198723Y0036278D01*
X-0198668D01*
X-0198612Y0036250D01*
Y0036084D01*
X-0198668Y0036056D01*
X-0198723D01*
X-0198946Y0036167D01*
X-0198723Y0035674D02*
X-0198668D01*
X-0198612Y0035702D01*
Y0035813D01*
X-0198668Y0035840D01*
X-0198946D01*
Y0035868D02*
Y0035757D01*
X-0201904Y0036655D02*
X-0201793D01*
X-0201571Y0036544D01*
X-0201793Y0036433D01*
X-0201904D01*
X-0201682Y0036245D02*
Y0036023D01*
X-0201904Y0036134D01*
Y0036190D01*
X-0201571D01*
Y0035835D02*
Y0035613D01*
X-0201793Y0035835D01*
X-0201849D01*
X-0201904Y0035807D01*
Y0035641D01*
X-0201849Y0035613D01*
X-0200405Y0083859D02*
Y0083748D01*
Y0083803D02*
X-0200738D01*
X-0200682Y0083748D01*
X-0198594Y0085461D02*
Y0085239D01*
X-0198816Y0085461D01*
X-0198872D01*
X-0198927Y0085433D01*
Y0085266D01*
X-0198872Y0085239D01*
X-0198705Y0084857D02*
X-0198649D01*
X-0198594Y0084884D01*
Y0084995D01*
X-0198649Y0085023D01*
X-0198927D01*
Y0085051D02*
Y0084940D01*
X-0201553Y0086248D02*
Y0086026D01*
X-0201775Y0086248D01*
X-0201830D01*
X-0201886Y0086220D01*
Y0086053D01*
X-0201830Y0086026D01*
X-0201441Y0085838D02*
Y0085616D01*
X-0201886Y0085428D02*
X-0201775D01*
X-0201553Y0085317D01*
X-0201775Y0085206D01*
X-0201886D01*
X-0201608Y0084796D02*
X-0201553Y0084823D01*
Y0084990D01*
X-0201608Y0085018D01*
X-0201719D01*
X-0201775Y0084962D01*
Y0084796D01*
X-0201886D01*
Y0085018D01*
X-0230897Y0037015D02*
Y0036848D01*
X-0230952Y0036821D01*
X-0231008D01*
X-0231063Y0036848D01*
Y0037015D01*
X-0231008Y0037043D01*
X-0230952D01*
X-0230730Y0036932D01*
X-0230952Y0037231D02*
Y0037453D01*
X-0230730Y0037342D01*
Y0037286D01*
X-0231063D01*
X-0230897Y0037724D02*
X-0231063Y0037641D01*
X-0230897Y0037863D02*
Y0037696D01*
X-0230841Y0037641D01*
X-0230786D01*
X-0230730Y0037696D01*
Y0037863D01*
X-0231063D01*
X-0232045Y0037464D02*
X-0231711D01*
X-0231767Y0037520D01*
X-0231878Y0037575D01*
X-0231767Y0037631D01*
X-0231711Y0037686D01*
X-0232045D01*
Y0037874D02*
Y0037985D01*
Y0037930D02*
X-0231711D01*
X-0231767Y0037985D01*
X-0200502Y0058925D02*
Y0058814D01*
Y0058869D02*
X-0200835D01*
X-0200780Y0058814D01*
X-0198802Y0060527D02*
Y0060305D01*
X-0199024Y0060416D01*
Y0060472D01*
X-0198691D01*
X-0198802Y0059923D02*
X-0198747D01*
X-0198691Y0059950D01*
Y0060062D01*
X-0198747Y0060089D01*
X-0199024D01*
Y0060117D02*
Y0060006D01*
X-0201650Y0061613D02*
Y0061502D01*
Y0061557D02*
X-0201983D01*
X-0201928Y0061502D01*
X-0201539Y0061258D02*
Y0061036D01*
X-0201983Y0060848D02*
X-0201872D01*
X-0201650Y0060737D01*
X-0201872Y0060626D01*
X-0201983D01*
X-0201650Y0060438D02*
Y0060216D01*
X-0201872Y0060438D01*
X-0201928D01*
X-0201983Y0060411D01*
Y0060244D01*
X-0201928Y0060216D01*
X-0201650Y0060028D02*
Y0059917D01*
Y0059973D02*
X-0201983D01*
X-0201928Y0059917D01*
X-0221446Y0070173D02*
X-0221279Y0070339D01*
X-0221113Y0070173D01*
Y0070395D02*
X-0221446D01*
Y0070583D02*
Y0070694D01*
Y0070638D02*
X-0221113D01*
X-0221168Y0070694D01*
X-0228326Y0070840D02*
Y0070951D01*
Y0070896D02*
X-0227993D01*
X-0228048Y0070951D01*
X-0228326Y0071195D02*
Y0071306D01*
Y0071250D02*
X-0227993D01*
X-0228048Y0071306D01*
X-0228271Y0071549D02*
X-0228326Y0071577D01*
Y0071743D01*
X-0228271Y0071771D01*
X-0228048D01*
X-0227993Y0071743D01*
Y0071577D01*
X-0228048Y0071549D01*
X-0200620Y0071760D02*
Y0071649D01*
Y0071704D02*
X-0200953D01*
X-0200898Y0071649D01*
X-0198865Y0073140D02*
X-0198809Y0073195D01*
Y0073306D01*
X-0198865Y0073362D01*
X-0198920D01*
X-0199031Y0073251D01*
X-0199142Y0073362D01*
Y0073140D01*
X-0198920Y0072757D02*
X-0198865D01*
X-0198809Y0072785D01*
Y0072896D01*
X-0198865Y0072924D01*
X-0199142D01*
Y0072952D02*
Y0072841D01*
X-0202101Y0073329D02*
X-0201990D01*
X-0201768Y0073218D01*
X-0201990Y0073106D01*
X-0202101D01*
X-0201935Y0072891D02*
X-0201990Y0072919D01*
X-0202046D01*
X-0202101Y0072891D01*
Y0072724D01*
X-0202046Y0072696D01*
X-0201990D01*
X-0201935Y0072724D01*
Y0072891D01*
X-0201879Y0072919D01*
X-0201824D01*
X-0201768Y0072891D01*
Y0072724D01*
X-0201824Y0072696D01*
X-0201879D01*
X-0201935Y0072724D01*
X-0228974Y0070414D02*
X-0229252D01*
X-0229307Y0070441D01*
Y0070608D01*
X-0229252Y0070636D01*
X-0228974D01*
X-0229307Y0070824D02*
Y0070935D01*
Y0070879D02*
X-0228974D01*
X-0229030Y0070935D01*
X-0229307Y0071234D02*
Y0071178D01*
X-0229252D01*
Y0071234D01*
X-0229307D01*
Y0071616D02*
X-0229252Y0071671D01*
X-0229196Y0071699D01*
X-0229085D01*
X-0229030Y0071671D01*
X-0228974Y0071616D01*
Y0071560D01*
X-0229030Y0071505D01*
X-0229085Y0071477D01*
X-0229196D01*
X-0229252Y0071505D01*
X-0229307Y0071560D01*
Y0071616D01*
X-0200997Y0070094D02*
X-0201052Y0070150D01*
X-0201163D01*
X-0201219Y0070094D01*
Y0070039D01*
X-0201108Y0069928D01*
X-0201219Y0069817D01*
X-0200997D01*
X-0200809Y0070150D02*
X-0200587D01*
X-0200809Y0069928D01*
Y0069872D01*
X-0200781Y0069817D01*
X-0200614D01*
X-0200587Y0069872D01*
X-0200315Y0069983D02*
X-0200399Y0070150D01*
X-0200177Y0069983D02*
X-0200343D01*
X-0200399Y0069928D01*
Y0069872D01*
X-0200343Y0069817D01*
X-0200177D01*
Y0070150D01*
X-0219477Y0041690D02*
X-0219422Y0041745D01*
X-0219366Y0041773D01*
X-0219255D01*
X-0219200Y0041745D01*
X-0219144Y0041690D01*
Y0041634D01*
X-0219200Y0041579D01*
X-0219255Y0041551D01*
X-0219366D01*
X-0219422Y0041579D01*
X-0219477Y0041634D01*
Y0041690D01*
X-0219422Y0042183D02*
X-0219477Y0042155D01*
Y0041989D01*
X-0219422Y0041961D01*
X-0219311D01*
X-0219255Y0042016D01*
Y0042183D01*
X-0219144D01*
Y0041961D01*
X-0219311Y0042399D02*
X-0219255Y0042371D01*
X-0219200D01*
X-0219144Y0042399D01*
Y0042565D01*
X-0219200Y0042593D01*
X-0219255D01*
X-0219311Y0042565D01*
Y0042399D01*
X-0219366Y0042371D01*
X-0219422D01*
X-0219477Y0042399D01*
Y0042565D01*
X-0219422Y0042593D01*
X-0219366D01*
X-0219311Y0042565D01*
Y0042864D02*
X-0219477Y0042781D01*
X-0219311Y0043003D02*
Y0042836D01*
X-0219255Y0042781D01*
X-0219200D01*
X-0219144Y0042836D01*
Y0043003D01*
X-0219477D01*
Y0043191D02*
X-0219144D01*
X-0219200Y0043246D01*
X-0219311Y0043302D01*
X-0219200Y0043357D01*
X-0219144Y0043413D01*
X-0219477D01*
X-0231656Y0041133D02*
X-0231489D01*
X-0231461Y0041077D01*
Y0041022D01*
X-0231489Y0040966D01*
X-0231656D01*
X-0231683Y0041022D01*
Y0041077D01*
X-0231572Y0041300D01*
X-0231051Y0041244D02*
X-0231107Y0041300D01*
X-0231218D01*
X-0231273Y0041244D01*
Y0041188D01*
X-0231162Y0041077D01*
X-0231273Y0040966D01*
X-0231051D01*
X-0230780Y0041133D02*
X-0230863Y0041300D01*
X-0230641Y0041133D02*
X-0230808D01*
X-0230863Y0041077D01*
Y0041022D01*
X-0230808Y0040966D01*
X-0230641D01*
Y0041300D01*
X-0216672Y0035845D02*
Y0036012D01*
X-0216617Y0036040D01*
X-0216561D01*
X-0216505Y0036012D01*
Y0035845D01*
X-0216561Y0035818D01*
X-0216617D01*
X-0216839Y0035929D01*
X-0216505Y0035630D02*
X-0216839D01*
X-0216783Y0035574D01*
X-0216672Y0035519D01*
X-0216783Y0035463D01*
X-0216839Y0035408D01*
X-0216505D01*
X-0218347Y0038939D02*
Y0038772D01*
X-0218181Y0038994D02*
Y0038772D01*
X-0218514D01*
Y0038994D01*
X-0218181Y0038584D02*
Y0038473D01*
Y0038529D02*
X-0218514D01*
Y0038584D02*
Y0038473D01*
X-0218458Y0038230D02*
X-0218514Y0038202D01*
Y0038035D01*
X-0218458Y0038008D01*
X-0218403D01*
X-0218347Y0038035D01*
Y0038202D01*
X-0218292Y0038230D01*
X-0218236D01*
X-0218181Y0038202D01*
Y0038035D01*
X-0218236Y0038008D01*
X-0218514Y0037820D02*
X-0218181Y0037653D01*
Y0037299D02*
X-0218236Y0037243D01*
X-0218292Y0037215D01*
X-0218403D01*
X-0218458Y0037243D01*
X-0218514Y0037299D01*
Y0037354D01*
X-0218458Y0037410D01*
X-0218403Y0037438D01*
X-0218292D01*
X-0218236Y0037410D01*
X-0218181Y0037354D01*
Y0037299D01*
Y0036889D02*
X-0218236Y0036833D01*
X-0218292Y0036805D01*
X-0218403D01*
X-0218458Y0036833D01*
X-0218514Y0036889D01*
Y0036944D01*
X-0218458Y0037000D01*
X-0218403Y0037028D01*
X-0218292D01*
X-0218236Y0037000D01*
X-0218181Y0036944D01*
Y0036889D01*
Y0036618D02*
Y0036506D01*
Y0036562D02*
X-0218514D01*
X-0218458Y0036506D01*
X-0218181Y0036263D02*
Y0036096D01*
X-0218514Y0036263D01*
Y0036096D01*
Y0035881D02*
X-0218236D01*
X-0218181Y0035853D01*
Y0035687D01*
X-0218236Y0035659D01*
X-0218514D01*
X-0218181Y0035277D02*
X-0218514D01*
X-0218181Y0035249D02*
Y0035415D01*
X-0218236Y0035471D01*
X-0218292D01*
X-0218347Y0035443D01*
Y0035277D02*
Y0035443D01*
X-0218403Y0035471D01*
X-0218458D01*
X-0218514Y0035415D01*
Y0035249D01*
X-0199169Y0070583D02*
X-0199544D01*
X-0202419D02*
X-0202044D01*
X-0230421Y0047106D02*
X-0229421D01*
Y0050106D01*
X-0230421D01*
Y0047106D01*
X-0218260Y0067979D02*
Y0072179D01*
X-0216010D01*
Y0067979D01*
X-0218260D01*
X-0217710Y0072179D02*
Y0067979D01*
X-0222972Y0074216D02*
Y0076716D01*
X-0221972D01*
Y0074216D01*
X-0222972D01*
X-0222472Y0077091D02*
Y0076716D01*
Y0073841D02*
Y0074216D01*
X-0231721Y0064280D02*
X-0229221D01*
Y0063280D01*
X-0231721D01*
Y0064280D01*
X-0228846Y0063780D02*
X-0229221D01*
X-0232096D02*
X-0231721D01*
X-0231996Y0069066D02*
Y0071566D01*
X-0230996D01*
Y0069066D01*
X-0231996D01*
X-0231496Y0071941D02*
Y0071566D01*
Y0068691D02*
Y0069066D01*
X-0231721Y0067429D02*
X-0229221D01*
Y0066429D01*
X-0231721D01*
Y0067429D01*
X-0228846Y0066929D02*
X-0229221D01*
X-0232096D02*
X-0231721D01*
X-0229696Y0056193D02*
X-0232196D01*
Y0057193D01*
X-0229696D01*
Y0056193D01*
X-0224272Y0063280D02*
Y0064280D01*
X-0227272D01*
Y0063280D01*
X-0224272D01*
X-0231721Y0065854D02*
X-0229221D01*
Y0064854D01*
X-0231721D01*
Y0065854D01*
X-0228846Y0065354D02*
X-0229221D01*
X-0232096D02*
X-0231721D01*
X-0232571Y0056693D02*
X-0232196D01*
X-0218548Y0063533D02*
X-0219798D01*
Y0066033D01*
X-0218548D01*
Y0063533D01*
X-0219798Y0065783D02*
X-0218548D01*
X-0219173Y0066783D02*
Y0066033D01*
Y0062783D02*
Y0063533D01*
X-0229578Y0073437D02*
X-0232078D01*
Y0074437D01*
X-0229578D01*
Y0073437D01*
X-0232453Y0073937D02*
X-0232078D01*
X-0229203D02*
X-0229578D01*
X-0222909Y0068704D02*
Y0071204D01*
X-0221909D01*
Y0068704D01*
X-0222909D01*
X-0222409Y0071579D02*
Y0071204D01*
Y0068329D02*
Y0068704D01*
X-0231209Y0080877D02*
Y0083377D01*
X-0230209D01*
Y0080877D01*
X-0231209D01*
X-0230709Y0083752D02*
Y0083377D01*
Y0080502D02*
Y0080877D01*
X-0229696Y0078240D02*
X-0232196D01*
Y0079240D01*
X-0229696D01*
Y0078240D01*
X-0232571Y0078740D02*
X-0232196D01*
X-0229321D02*
X-0229696D01*
X-0224150Y0073689D02*
Y0074689D01*
X-0227150D01*
Y0073689D01*
X-0224150D01*
X-0229696Y0076665D02*
X-0232196D01*
Y0077665D01*
X-0229696D01*
Y0076665D01*
X-0232571Y0077165D02*
X-0232196D01*
X-0229321D02*
X-0229696D01*
X-0229321Y0056693D02*
X-0229696D01*
X-0221398Y0068704D02*
Y0071204D01*
X-0220398D01*
Y0068704D01*
X-0221398D01*
X-0218473Y0078428D02*
Y0082628D01*
X-0216223D01*
Y0078428D01*
X-0218473D01*
X-0217923Y0082628D02*
Y0078428D01*
X-0219995Y0076506D02*
X-0218745D01*
Y0074006D01*
X-0219995D01*
Y0076506D01*
X-0218745Y0074256D02*
X-0219995D01*
X-0219370Y0073256D02*
Y0074006D01*
Y0077256D02*
Y0076506D01*
X-0222909Y0079727D02*
Y0082227D01*
X-0221909D01*
Y0079727D01*
X-0222909D01*
X-0222409Y0082602D02*
Y0082227D01*
Y0079352D02*
Y0079727D01*
X-0221398D02*
Y0082227D01*
X-0220398D01*
Y0079727D01*
X-0221398D01*
X-0220898Y0082602D02*
Y0082227D01*
Y0079352D02*
Y0079727D01*
X-0229634Y0080965D02*
X-0228634D01*
Y0083965D01*
X-0229634D01*
Y0080965D01*
X-0201935Y0030981D02*
X-0202310D01*
X-0201800Y0088650D02*
X-0199300D01*
Y0087650D01*
X-0201800D01*
Y0088650D01*
X-0198925Y0088150D02*
X-0199300D01*
X-0202175D02*
X-0201800D01*
X-0229696Y0075091D02*
X-0232196D01*
Y0076091D01*
X-0229696D01*
Y0075091D01*
X-0232571Y0075591D02*
X-0232196D01*
X-0229321D02*
X-0229696D01*
X-0202325Y0045539D02*
X-0199825D01*
Y0044539D01*
X-0202325D01*
Y0045539D01*
X-0222047Y0046644D02*
Y0047019D01*
X-0221437Y0043698D02*
Y0041198D01*
X-0222437D01*
Y0043698D01*
X-0221437D01*
X-0221937Y0040823D02*
Y0041198D01*
Y0044073D02*
Y0043698D01*
X-0221547Y0095501D02*
Y0093001D01*
X-0222547D01*
Y0095501D01*
X-0221547D01*
X-0222047Y0092626D02*
Y0093001D01*
Y0095876D02*
Y0095501D01*
X-0221383Y0089416D02*
Y0086916D01*
X-0222383D01*
Y0089416D01*
X-0221383D01*
X-0221883Y0086541D02*
Y0086916D01*
Y0089791D02*
Y0089416D01*
X-0201902Y0095146D02*
X-0199402D01*
Y0094146D01*
X-0201902D01*
Y0095146D01*
X-0199027Y0094646D02*
X-0199402D01*
X-0202277D02*
X-0201902D01*
X-0199450Y0045039D02*
X-0199825D01*
X-0202700D02*
X-0202325D01*
X-0230421Y0036083D02*
X-0229421D01*
Y0039083D01*
X-0230421D01*
Y0036083D01*
X-0229634Y0092776D02*
X-0228634D01*
Y0095776D01*
X-0229634D01*
Y0092776D01*
X-0228634Y0091839D02*
X-0229634D01*
Y0088839D01*
X-0228634D01*
Y0091839D01*
X-0231721Y0087902D02*
X-0229221D01*
Y0086902D01*
X-0231721D01*
Y0087902D01*
X-0228846Y0087402D02*
X-0229221D01*
X-0232096D02*
X-0231721D01*
X-0205185Y0030981D02*
X-0204810D01*
X-0218632Y0098757D02*
Y0102957D01*
X-0216382D01*
Y0098757D01*
X-0218632D01*
X-0218082Y0102957D02*
Y0098757D01*
X-0218691Y0085797D02*
Y0089997D01*
X-0216441D01*
Y0085797D01*
X-0218691D01*
X-0233568Y0100568D02*
X-0230448D01*
Y0097448D01*
X-0233568D01*
Y0100568D01*
X-0231209Y0092688D02*
Y0095188D01*
X-0230209D01*
Y0092688D01*
X-0231209D01*
X-0230709Y0095563D02*
Y0095188D01*
Y0092313D02*
Y0092688D01*
X-0224775Y0096402D02*
X-0227275D01*
Y0097402D01*
X-0224775D01*
Y0096402D01*
X-0227650Y0096902D02*
X-0227275D01*
X-0224400D02*
X-0224775D01*
X-0224275Y0084902D02*
X-0226775D01*
Y0085902D01*
X-0224275D01*
Y0084902D01*
X-0227150Y0085402D02*
X-0226775D01*
X-0223900D02*
X-0224275D01*
X-0225205Y0107815D02*
Y0103815D01*
X-0223205D01*
Y0107815D01*
X-0225205D01*
X-0224705D02*
Y0107315D01*
X-0223705D01*
Y0107815D01*
X-0226455Y0098190D02*
Y0099440D01*
X-0223955D01*
Y0098190D01*
X-0226455D01*
X-0224205Y0099440D02*
Y0098190D01*
X-0223205Y0098815D02*
X-0223955D01*
X-0227205D02*
X-0226455D01*
X-0232080Y0107815D02*
X-0229580D01*
Y0106815D01*
X-0232080D01*
Y0107815D01*
X-0229205Y0107315D02*
X-0229580D01*
X-0232455D02*
X-0232080D01*
X-0229330Y0104315D02*
X-0231830D01*
Y0105315D01*
X-0229330D01*
Y0104315D01*
X-0232205Y0104815D02*
X-0231830D01*
X-0228955D02*
X-0229330D01*
X-0224455Y0102690D02*
X-0224955D01*
Y0100940D01*
X-0222455D01*
X-0221955D02*
X-0221455D01*
Y0102690D01*
X-0223955D01*
X-0233358Y0032283D02*
X-0232983D01*
X-0230108D02*
X-0230483D01*
X-0222547Y0035995D02*
Y0038495D01*
X-0221547D01*
Y0035995D01*
X-0222547D01*
X-0230108Y0033858D02*
X-0230483D01*
X-0233358Y0044882D02*
X-0232983D01*
X-0232509Y0043807D02*
X-0230009D01*
Y0042807D01*
X-0232509D01*
Y0043807D01*
X-0202044Y0071083D02*
X-0199544D01*
Y0070083D01*
X-0202044D01*
Y0071083D01*
X-0224650Y0051988D02*
Y0052988D01*
X-0227650D01*
Y0051988D01*
X-0224650D01*
X-0230108Y0044882D02*
X-0230483D01*
X-0218337Y0044226D02*
Y0048426D01*
X-0216087D01*
Y0044226D01*
X-0218337D01*
X-0217787Y0048426D02*
Y0044226D01*
X-0225059Y0041232D02*
Y0042232D01*
X-0228059D01*
Y0041232D01*
X-0225059D01*
X-0233358Y0030709D02*
X-0232983D01*
X-0230108D02*
X-0230483D01*
X-0229696Y0054618D02*
X-0232196D01*
Y0055618D01*
X-0229696D01*
Y0054618D01*
X-0232571Y0055118D02*
X-0232196D01*
X-0229321D02*
X-0229696D01*
X-0220898Y0071579D02*
Y0071204D01*
X-0218461Y0051685D02*
Y0055885D01*
X-0216211D01*
Y0051685D01*
X-0218461D01*
X-0217911Y0055885D02*
Y0051685D01*
X-0233358Y0033858D02*
X-0232983D01*
X-0230483Y0030209D02*
X-0232983D01*
Y0031209D01*
X-0230483D01*
Y0030209D01*
X-0232884Y0041732D02*
X-0232509D01*
X-0222547Y0047019D02*
Y0049519D01*
X-0221547D01*
Y0047019D01*
X-0222547D01*
X-0222047Y0049894D02*
Y0049519D01*
X-0221890Y0058348D02*
Y0060848D01*
X-0220890D01*
Y0058348D01*
X-0221890D01*
X-0221390Y0061223D02*
Y0060848D01*
Y0057973D02*
Y0058348D01*
X-0233146Y0059255D02*
Y0061755D01*
X-0232146D01*
Y0059255D01*
X-0233146D01*
X-0232646Y0062130D02*
Y0061755D01*
Y0058880D02*
Y0059255D01*
X-0218337Y0058638D02*
Y0062838D01*
X-0216087D01*
Y0058638D01*
X-0218337D01*
X-0217787Y0062838D02*
Y0058638D01*
X-0223583Y0033358D02*
Y0032983D01*
Y0030108D02*
Y0030483D01*
X-0201954Y0099781D02*
X-0198834D01*
Y0096661D01*
X-0201954D01*
Y0099781D01*
X-0223622Y0038870D02*
Y0038495D01*
Y0035620D02*
Y0035995D01*
X-0220898Y0068329D02*
Y0068704D01*
X-0229634Y0069154D02*
X-0228634D01*
Y0072154D01*
X-0229634D01*
Y0069154D01*
X-0218066Y0096422D02*
Y0092222D01*
X-0216400Y0107662D02*
Y0104542D01*
X-0219520D01*
Y0107662D01*
X-0216400D01*
X-0202271Y0050501D02*
X-0199151D01*
Y0047381D01*
X-0202271D01*
Y0050501D01*
X-0222047Y0038870D02*
Y0038495D01*
Y0035620D02*
Y0035995D01*
X-0231996D02*
Y0038495D01*
X-0230996D01*
Y0035995D01*
X-0231996D01*
X-0218616Y0092222D02*
Y0096422D01*
X-0216366D01*
Y0092222D01*
X-0218616D01*
X-0218141Y0089997D02*
Y0085797D01*
X-0225846Y0030209D02*
Y0031209D01*
X-0228846D01*
Y0030209D01*
X-0225846D01*
X-0224122Y0035995D02*
Y0038495D01*
X-0223122D01*
Y0035995D01*
X-0224122D01*
Y0047019D02*
Y0049519D01*
X-0223122D01*
Y0047019D01*
X-0224122D01*
X-0221909Y0054918D02*
Y0052418D01*
X-0222909D01*
Y0054918D01*
X-0221909D01*
X-0219685Y0044657D02*
Y0043907D01*
Y0040657D02*
Y0041407D01*
X-0222409Y0052043D02*
Y0052418D01*
Y0055293D02*
Y0054918D01*
X-0229634Y0058130D02*
X-0228634D01*
Y0061130D01*
X-0229634D01*
Y0058130D01*
X-0223622Y0049894D02*
Y0049519D01*
Y0046644D02*
Y0047019D01*
X-0219060Y0041407D02*
X-0220310D01*
Y0043907D01*
X-0219060D01*
Y0041407D01*
X-0220310Y0043657D02*
X-0219060D01*
X-0202084Y0058524D02*
X-0199584D01*
Y0057524D01*
X-0202084D01*
Y0058524D01*
X-0199209Y0058024D02*
X-0199584D01*
X-0232509Y0042232D02*
X-0230009D01*
Y0041232D01*
X-0232509D01*
Y0042232D01*
X-0230483Y0031783D02*
X-0232983D01*
Y0032783D01*
X-0230483D01*
Y0031783D01*
X-0229634Y0041732D02*
X-0230009D01*
X-0231496Y0038870D02*
Y0038495D01*
Y0035620D02*
Y0035995D01*
X-0233571D02*
Y0038495D01*
X-0232571D01*
Y0035995D01*
X-0233571D01*
X-0202459Y0058024D02*
X-0202084D01*
X-0232301Y0047044D02*
Y0049544D01*
X-0231301D01*
Y0047044D01*
X-0232301D01*
X-0233071Y0038870D02*
Y0038495D01*
Y0035620D02*
Y0035995D01*
X-0224083Y0030483D02*
Y0032983D01*
X-0223083D01*
Y0030483D01*
X-0224083D01*
X-0217923Y0038119D02*
Y0033919D01*
X-0229634Y0043307D02*
X-0230009D01*
X-0232884D02*
X-0232509D01*
X-0204810Y0031481D02*
X-0202310D01*
Y0030481D01*
X-0204810D01*
Y0031481D01*
X-0202151Y0038131D02*
X-0199031D01*
Y0035011D01*
X-0202151D01*
Y0038131D01*
X-0202132Y0087313D02*
X-0199012D01*
Y0084193D01*
X-0202132D01*
Y0087313D01*
X-0231801Y0049919D02*
Y0049544D01*
Y0046669D02*
Y0047044D01*
X-0218473Y0033919D02*
Y0038119D01*
X-0216223D01*
Y0033919D01*
X-0218473D01*
X-0202229Y0062379D02*
X-0199109D01*
Y0059259D01*
X-0202229D01*
Y0062379D01*
X-0229696Y0053043D02*
X-0232196D01*
Y0054043D01*
X-0229696D01*
Y0053043D01*
X-0232571Y0053543D02*
X-0232196D01*
X-0202347Y0075214D02*
X-0199227D01*
Y0072094D01*
X-0202347D01*
Y0075214D01*
X-0229321Y0053543D02*
X-0229696D01*
X-0231209Y0058830D02*
Y0061330D01*
X-0230209D01*
Y0058830D01*
X-0231209D01*
X-0230709Y0061705D02*
Y0061330D01*
Y0058455D02*
Y0058830D01*
X-0230483Y0033358D02*
X-0232983D01*
Y0034358D01*
X-0230483D01*
Y0033358D01*
Y0044382D02*
X-0232983D01*
Y0045382D01*
X-0230483D01*
Y0044382D01*
G01X-0202459Y0081602D02*
G03X-0200709Y0079852I0001750J0000000D01*
G03X-0198959Y0081602I0000000J0001750D01*
G03X-0200709Y0083352I0001750J0000000D01*
G03X-0202459Y0081602I0000000J0001750D01*
G01X-0201476Y0091454D02*
G03X-0199726Y0089704I0001750J0000000D01*
G03X-0197976Y0091454I0000000J0001750D01*
G03X-0199726Y0093204I0001750J0000000D01*
G03X-0201476Y0091454I0000000J0001750D01*
G01X-0202246Y0102598D02*
G03X-0200496Y0100848I0001750J0000000D01*
G03X-0198746Y0102598I0000000J0001750D01*
G03X-0200496Y0104348I0001750J0000000D01*
G03X-0202246Y0102598I0000000J0001750D01*
G01X-0227756Y0103846D02*
G03X-0228756Y0102846I0000000J0001000D01*
G03X-0227756Y0101846I0001000J0000000D01*
G03X-0226756Y0102846I0000000J0001000D01*
G03X-0227756Y0103846I0001000J0000000D01*
G01X-0232598Y0103650D02*
G03X-0233598Y0102650I0000000J0001000D01*
G03X-0232598Y0101650I0001000J0000000D01*
G03X-0231598Y0102650I0000000J0001000D01*
G03X-0232598Y0103650I0001000J0000000D01*
G01X-0201683Y0052899D02*
G03X-0199933Y0051149I0001750J0000000D01*
G03X-0198183Y0052899I0000000J0001750D01*
G03X-0199933Y0054649I0001750J0000000D01*
G03X-0201683Y0052899I0000000J0001750D01*
G01X-0201678Y0041080D02*
G03X-0199928Y0039330I0001750J0000000D01*
G03X-0198178Y0041080I0000000J0001750D01*
G03X-0199928Y0042830I0001750J0000000D01*
G03X-0201678Y0041080I0000000J0001750D01*
G01X-0201793Y0064331D02*
G03X-0200043Y0062581I0001750J0000000D01*
G03X-0198293Y0064331I0000000J0001750D01*
G03X-0200043Y0066081I0001750J0000000D01*
G03X-0201793Y0064331I0000000J0001750D01*
G54D44*
G01X-0227150Y0072543D02*
Y0064551D01*
X-0224157D01*
Y0072543D01*
X-0227150D01*
Y0083681D02*
Y0075689D01*
X-0224157D01*
Y0083681D01*
X-0227150D01*
X-0228346Y0039488D02*
Y0031496D01*
X-0225354D01*
Y0039488D01*
X-0228346D01*
X-0227150Y0095394D02*
Y0087402D01*
X-0224157D01*
Y0095394D01*
X-0227150D01*
Y0061980D02*
Y0053988D01*
X-0224157D01*
Y0061980D01*
X-0227150D01*
X-0227937Y0050917D02*
Y0042925D01*
X-0224945D01*
Y0050917D01*
X-0227937D01*
G54D45*
G01X-0234646Y0109449D02*
Y0028346D01*
X-0197638D01*
Y0109449D01*
X-0234646D01*
G54D46*
G01X-0227654Y0072579D02*
Y0064524D01*
X-0223665D01*
Y0072587D01*
X-0227591D01*
Y0072571D01*
X-0227654Y0072579D01*
Y0083717D02*
Y0075661D01*
X-0223665D01*
Y0083724D01*
X-0227591D01*
Y0083709D01*
X-0227654Y0083717D01*
Y0095429D02*
Y0087374D01*
X-0223665D01*
Y0095437D01*
X-0227591D01*
Y0095421D01*
X-0227654Y0095429D01*
X-0228441Y0050953D02*
Y0042898D01*
X-0224453D01*
Y0050961D01*
X-0228378D01*
Y0050945D01*
X-0228441Y0050953D01*
X-0228850Y0039524D02*
Y0031469D01*
X-0224862D01*
Y0039531D01*
X-0228787D01*
Y0039516D01*
X-0228850Y0039524D01*
X-0227654Y0062016D02*
Y0053961D01*
X-0223665D01*
Y0062024D01*
X-0227591D01*
Y0062008D01*
X-0227654Y0062016D01*
G54D47*
G01X-0214815Y0071915D02*
Y0082938D01*
X-0203791D01*
Y0071915D01*
X-0214815D01*
X-0214570Y0083934D02*
Y0094957D01*
X-0203546D01*
Y0083934D01*
X-0214570D01*
X-0214921Y0097126D02*
Y0108149D01*
X-0203898D01*
Y0097126D01*
X-0214921D01*
X-0214876Y0058374D02*
Y0069398D01*
X-0203852D01*
Y0058374D01*
X-0214876D01*
X-0214966Y0045247D02*
Y0056270D01*
X-0203943D01*
Y0045247D01*
X-0214966D01*
X-0214969Y0032572D02*
Y0043596D01*
X-0203945D01*
Y0032572D01*
X-0214969D01*
G54D48*
G01X-0209988Y0081021D02*
Y0080583D01*
X-0210032Y0080496D01*
X-0210294D01*
X-0210338Y0080583D01*
Y0081021D01*
X-0210797Y0080496D02*
X-0210884Y0080583D01*
X-0210928Y0080671D01*
Y0080846D01*
X-0210884Y0080933D01*
X-0210797Y0081021D01*
X-0210709D01*
X-0210622Y0080933D01*
X-0210578Y0080846D01*
Y0080671D01*
X-0210622Y0080583D01*
X-0210709Y0080496D01*
X-0210797D01*
X-0211387D02*
X-0211475Y0080583D01*
X-0211518Y0080671D01*
Y0080846D01*
X-0211475Y0080933D01*
X-0211387Y0081021D01*
X-0211300D01*
X-0211212Y0080933D01*
X-0211168Y0080846D01*
Y0080671D01*
X-0211212Y0080583D01*
X-0211300Y0080496D01*
X-0211387D01*
X-0211759D02*
X-0211934D01*
X-0211846D02*
Y0081021D01*
X-0211934Y0080933D01*
X-0214225Y0075764D02*
X-0214137Y0075677D01*
X-0213962D01*
X-0213875Y0075764D01*
Y0075852D01*
X-0214050Y0076027D01*
X-0213875Y0076202D01*
X-0214225D01*
X-0214465Y0075677D02*
X-0214771D01*
Y0076202D01*
X-0209743Y0093040D02*
Y0092602D01*
X-0209786Y0092515D01*
X-0210049D01*
X-0210092Y0092602D01*
Y0093040D01*
X-0210552Y0092515D02*
X-0210639Y0092602D01*
X-0210683Y0092690D01*
Y0092865D01*
X-0210639Y0092952D01*
X-0210552Y0093040D01*
X-0210464D01*
X-0210377Y0092952D01*
X-0210333Y0092865D01*
Y0092690D01*
X-0210377Y0092602D01*
X-0210464Y0092515D01*
X-0210552D01*
X-0211142D02*
X-0211229Y0092602D01*
X-0211273Y0092690D01*
Y0092865D01*
X-0211229Y0092952D01*
X-0211142Y0093040D01*
X-0211054D01*
X-0210967Y0092952D01*
X-0210923Y0092865D01*
Y0092690D01*
X-0210967Y0092602D01*
X-0211054Y0092515D01*
X-0211142D01*
X-0211514D02*
X-0211688D01*
X-0211601D02*
Y0093040D01*
X-0211688Y0092952D01*
X-0213629Y0087696D02*
X-0213979D01*
X-0213629Y0088046D01*
Y0088133D01*
X-0213673Y0088221D01*
X-0213936D01*
X-0213979Y0088133D01*
X-0214220Y0087696D02*
X-0214526D01*
Y0088221D01*
X-0210139Y0054353D02*
Y0053915D01*
X-0210183Y0053828D01*
X-0210445D01*
X-0210489Y0053915D01*
Y0054353D01*
X-0210948Y0053828D02*
X-0211035Y0053915D01*
X-0211079Y0054003D01*
Y0054178D01*
X-0211035Y0054265D01*
X-0210948Y0054353D01*
X-0210861D01*
X-0210773Y0054265D01*
X-0210729Y0054178D01*
Y0054003D01*
X-0210773Y0053915D01*
X-0210861Y0053828D01*
X-0210948D01*
X-0211538D02*
X-0211626Y0053915D01*
X-0211670Y0054003D01*
Y0054178D01*
X-0211626Y0054265D01*
X-0211538Y0054353D01*
X-0211451D01*
X-0211363Y0054265D01*
X-0211320Y0054178D01*
Y0054003D01*
X-0211363Y0053915D01*
X-0211451Y0053828D01*
X-0211538D01*
X-0211910D02*
X-0212085D01*
X-0211997D02*
Y0054353D01*
X-0212085Y0054265D01*
X-0214376Y0049096D02*
X-0214332Y0049009D01*
X-0214070D01*
X-0214026Y0049096D01*
Y0049271D01*
X-0214113Y0049359D01*
X-0214376D01*
Y0049534D01*
X-0214026D01*
X-0214616Y0049009D02*
X-0214922D01*
Y0049534D01*
X-0223934Y0078270D02*
X-0224109D01*
X-0224022D02*
Y0078795D01*
X-0223934D02*
X-0224109D01*
X-0224437Y0078445D02*
X-0224787D01*
X-0224612Y0078795D01*
X-0224525D01*
Y0078270D01*
X-0225072Y0078532D02*
X-0225334D01*
X-0225378Y0078620D01*
Y0078707D01*
X-0225334Y0078795D01*
X-0225072D01*
X-0225028Y0078707D01*
Y0078620D01*
X-0225203Y0078270D01*
X-0225619Y0078445D02*
X-0225969D01*
X-0225794Y0078795D01*
X-0225706D01*
Y0078270D01*
X-0226209D02*
X-0226515D01*
Y0078795D01*
X-0226931Y0078270D02*
Y0078795D01*
X-0226756D02*
X-0227106D01*
X-0226165Y0079451D02*
X-0226515D01*
X-0226165Y0079801D01*
Y0079888D01*
X-0226209Y0079976D01*
X-0226472D01*
X-0226515Y0079888D01*
X-0226756Y0079976D02*
Y0079538D01*
X-0226800Y0079451D01*
X-0227062D01*
X-0227106Y0079538D01*
Y0079976D01*
X-0223934Y0056569D02*
X-0224109D01*
X-0224022D02*
Y0057094D01*
X-0223934D02*
X-0224109D01*
X-0224437Y0056744D02*
X-0224787D01*
X-0224612Y0057094D01*
X-0224525D01*
Y0056569D01*
X-0225072Y0056832D02*
X-0225334D01*
X-0225378Y0056919D01*
Y0057007D01*
X-0225334Y0057094D01*
X-0225072D01*
X-0225028Y0057007D01*
Y0056919D01*
X-0225203Y0056569D01*
X-0225619Y0056744D02*
X-0225969D01*
X-0225794Y0057094D01*
X-0225706D01*
Y0056569D01*
X-0226209D02*
X-0226515D01*
Y0057094D01*
X-0226931Y0056569D02*
Y0057094D01*
X-0226756D02*
X-0227106D01*
X-0226165Y0057925D02*
X-0226515D01*
X-0226340Y0058275D01*
X-0226253D01*
Y0057750D01*
X-0226756Y0058275D02*
Y0057838D01*
X-0226800Y0057750D01*
X-0227062D01*
X-0227106Y0057838D01*
Y0058275D01*
X-0210094Y0106232D02*
Y0105794D01*
X-0210138Y0105707D01*
X-0210400D01*
X-0210444Y0105794D01*
Y0106232D01*
X-0210903Y0105707D02*
X-0210991Y0105794D01*
X-0211034Y0105882D01*
Y0106057D01*
X-0210991Y0106144D01*
X-0210903Y0106232D01*
X-0210816D01*
X-0210728Y0106144D01*
X-0210684Y0106057D01*
Y0105882D01*
X-0210728Y0105794D01*
X-0210816Y0105707D01*
X-0210903D01*
X-0211493D02*
X-0211581Y0105794D01*
X-0211625Y0105882D01*
Y0106057D01*
X-0211581Y0106144D01*
X-0211493Y0106232D01*
X-0211406D01*
X-0211318Y0106144D01*
X-0211275Y0106057D01*
Y0105882D01*
X-0211318Y0105794D01*
X-0211406Y0105707D01*
X-0211493D01*
X-0211865D02*
X-0212040D01*
X-0211953D02*
Y0106232D01*
X-0212040Y0106144D01*
X-0214068Y0100888D02*
X-0214243D01*
X-0214156D02*
Y0101413D01*
X-0214243Y0101325D01*
X-0214571Y0100888D02*
X-0214878D01*
Y0101413D01*
X-0223934Y0089982D02*
X-0224109D01*
X-0224022D02*
Y0090507D01*
X-0223934D02*
X-0224109D01*
X-0224437Y0090157D02*
X-0224787D01*
X-0224612Y0090507D01*
X-0224525D01*
Y0089982D01*
X-0225072Y0090245D02*
X-0225334D01*
X-0225378Y0090332D01*
Y0090420D01*
X-0225334Y0090507D01*
X-0225072D01*
X-0225028Y0090420D01*
Y0090332D01*
X-0225203Y0089982D01*
X-0225619Y0090157D02*
X-0225969D01*
X-0225794Y0090507D01*
X-0225706D01*
Y0089982D01*
X-0226209D02*
X-0226515D01*
Y0090507D01*
X-0226931Y0089982D02*
Y0090507D01*
X-0226756D02*
X-0227106D01*
X-0226253Y0091164D02*
X-0226428D01*
X-0226340D02*
Y0091689D01*
X-0226428Y0091601D01*
X-0226756Y0091689D02*
Y0091251D01*
X-0226800Y0091164D01*
X-0227062D01*
X-0227106Y0091251D01*
Y0091689D01*
X-0225131Y0034077D02*
X-0225306D01*
X-0225219D02*
Y0034602D01*
X-0225131D02*
X-0225306D01*
X-0225634Y0034252D02*
X-0225984D01*
X-0225809Y0034602D01*
X-0225722D01*
Y0034077D01*
X-0226269Y0034339D02*
X-0226531D01*
X-0226575Y0034427D01*
Y0034514D01*
X-0226531Y0034602D01*
X-0226269D01*
X-0226225Y0034514D01*
Y0034427D01*
X-0226400Y0034077D01*
X-0226815Y0034252D02*
X-0227165D01*
X-0226990Y0034602D01*
X-0226903D01*
Y0034077D01*
X-0227406D02*
X-0227712D01*
Y0034602D01*
X-0228128Y0034077D02*
Y0034602D01*
X-0227953D02*
X-0228303D01*
X-0227668Y0035521D02*
X-0227406D01*
X-0227362Y0035433D01*
Y0035346D01*
X-0227406Y0035258D01*
X-0227668D01*
X-0227712Y0035346D01*
Y0035433D01*
X-0227537Y0035783D01*
X-0227953D02*
Y0035346D01*
X-0227997Y0035258D01*
X-0228259D01*
X-0228303Y0035346D01*
Y0035783D01*
X-0224722Y0045506D02*
X-0224897D01*
X-0224809D02*
Y0046031D01*
X-0224722D02*
X-0224897D01*
X-0225225Y0045681D02*
X-0225575D01*
X-0225400Y0046031D01*
X-0225312D01*
Y0045506D01*
X-0225859Y0045769D02*
X-0226122D01*
X-0226165Y0045856D01*
Y0045944D01*
X-0226122Y0046031D01*
X-0225859D01*
X-0225815Y0045944D01*
Y0045856D01*
X-0225990Y0045506D01*
X-0226406Y0045681D02*
X-0226756D01*
X-0226581Y0046031D01*
X-0226493D01*
Y0045506D01*
X-0226997D02*
X-0227303D01*
Y0046031D01*
X-0227718Y0045506D02*
Y0046031D01*
X-0227543D02*
X-0227893D01*
X-0227303Y0046775D02*
X-0227259Y0046687D01*
X-0226997D01*
X-0226953Y0046775D01*
Y0046950D01*
X-0227040Y0047037D01*
X-0227303D01*
Y0047212D01*
X-0226953D01*
X-0227543D02*
Y0046775D01*
X-0227587Y0046687D01*
X-0227850D01*
X-0227893Y0046775D01*
Y0047212D01*
X-0210142Y0041678D02*
Y0041240D01*
X-0210185Y0041153D01*
X-0210448D01*
X-0210492Y0041240D01*
Y0041678D01*
X-0210951Y0041153D02*
X-0211038Y0041240D01*
X-0211082Y0041328D01*
Y0041503D01*
X-0211038Y0041590D01*
X-0210951Y0041678D01*
X-0210863D01*
X-0210776Y0041590D01*
X-0210732Y0041503D01*
Y0041328D01*
X-0210776Y0041240D01*
X-0210863Y0041153D01*
X-0210951D01*
X-0211541D02*
X-0211629Y0041240D01*
X-0211672Y0041328D01*
Y0041503D01*
X-0211629Y0041590D01*
X-0211541Y0041678D01*
X-0211454D01*
X-0211366Y0041590D01*
X-0211322Y0041503D01*
Y0041328D01*
X-0211366Y0041240D01*
X-0211454Y0041153D01*
X-0211541D01*
X-0211913D02*
X-0212088D01*
X-0212000D02*
Y0041678D01*
X-0212088Y0041590D01*
X-0214335Y0036596D02*
X-0214072D01*
X-0214029Y0036509D01*
Y0036421D01*
X-0214072Y0036334D01*
X-0214335D01*
X-0214379Y0036421D01*
Y0036509D01*
X-0214204Y0036859D01*
X-0214619Y0036334D02*
X-0214925D01*
Y0036859D01*
X-0210049Y0067480D02*
Y0067042D01*
X-0210093Y0066955D01*
X-0210355D01*
X-0210399Y0067042D01*
Y0067480D01*
X-0210858Y0066955D02*
X-0210945Y0067042D01*
X-0210989Y0067130D01*
Y0067305D01*
X-0210945Y0067392D01*
X-0210858Y0067480D01*
X-0210770D01*
X-0210683Y0067392D01*
X-0210639Y0067305D01*
Y0067130D01*
X-0210683Y0067042D01*
X-0210770Y0066955D01*
X-0210858D01*
X-0211448D02*
X-0211536Y0067042D01*
X-0211579Y0067130D01*
Y0067305D01*
X-0211536Y0067392D01*
X-0211448Y0067480D01*
X-0211361D01*
X-0211273Y0067392D01*
X-0211229Y0067305D01*
Y0067130D01*
X-0211273Y0067042D01*
X-0211361Y0066955D01*
X-0211448D01*
X-0211820D02*
X-0211995D01*
X-0211907D02*
Y0067480D01*
X-0211995Y0067392D01*
X-0213936Y0062311D02*
X-0214286D01*
X-0214111Y0062661D01*
X-0214023D01*
Y0062136D01*
X-0214526D02*
X-0214832D01*
Y0062661D01*
X-0223934Y0067132D02*
X-0224109D01*
X-0224022D02*
Y0067657D01*
X-0223934D02*
X-0224109D01*
X-0224437Y0067307D02*
X-0224787D01*
X-0224612Y0067657D01*
X-0224525D01*
Y0067132D01*
X-0225072Y0067395D02*
X-0225334D01*
X-0225378Y0067482D01*
Y0067570D01*
X-0225334Y0067657D01*
X-0225072D01*
X-0225028Y0067570D01*
Y0067482D01*
X-0225203Y0067132D01*
X-0225619Y0067307D02*
X-0225969D01*
X-0225794Y0067657D01*
X-0225706D01*
Y0067132D01*
X-0226209D02*
X-0226515D01*
Y0067657D01*
X-0226931Y0067132D02*
Y0067657D01*
X-0226756D02*
X-0227106D01*
X-0226515Y0068401D02*
X-0226428Y0068313D01*
X-0226253D01*
X-0226165Y0068401D01*
Y0068488D01*
X-0226340Y0068663D01*
X-0226165Y0068838D01*
X-0226515D01*
X-0226756D02*
Y0068401D01*
X-0226800Y0068313D01*
X-0227062D01*
X-0227106Y0068401D01*
Y0068838D01*
M02*
