*
G04 Mass Parameters ***
*
G04 Image ***
*
%INH:\VEHICULO AUTOGUIADO\ORCAD\FUENTE CC-CC\PROYECTODEF.BOT*%
%ICAS*%
%MOIN*%
%IPPOS*%
%ASAXBY*%
G74*%FSLAN2X34Y34*%
*
G04 Aperture Definitions ***
*
%ADD10C,0.0004*%
%ADD11C,0.0520*%
%ADD12R,0.0520X0.0520*%
%ADD13C,0.0640*%
%ADD14R,0.0640X0.0640*%
%ADD15C,0.0750*%
%ADD16R,0.0750X0.0750*%
%ADD17C,0.1000*%
%ADD18R,0.1000X0.1000*%
%ADD19C,0.1181*%
%ADD20C,0.0550*%
%ADD21C,0.0450*%
%ADD22C,0.0551*%
%ADD23R,0.0420X0.0420*%
%ADD24C,0.0700*%
%ADD25C,0.0200*%
%ADD26C,0.0300*%
%ADD27C,0.0201*%
%ADD28C,0.0827*%
%ADD29C,0.0100*%
%ADD30C,0.0080*%
%ADD31C,0.0520*%
%ADD32R,0.0520X0.0520*%
%ADD33C,0.0640*%
%ADD34R,0.0640X0.0640*%
%ADD35C,0.0750*%
%ADD36R,0.0750X0.0750*%
%ADD37C,0.1000*%
%ADD38R,0.1000X0.1000*%
%ADD39C,0.1181*%
%ADD40C,0.0550*%
%ADD41C,0.0450*%
%ADD42C,0.0551*%
%ADD43C,0.0420*%
*
G04 Plot Data ***
*
G54D24*
G01X-0200726Y0091454D02*
Y0090551D01*
X-0200787D01*
X-0201575Y0089764D01*
Y0085039D01*
X-0200572D01*
Y0084973D01*
X-0200787Y0072874D02*
X-0202362D01*
Y0080315D01*
X-0201709D01*
Y0081602D01*
Y0080315D01*
X-0202362D01*
Y0077415D01*
X-0203004D01*
X-0198527Y0094646D02*
Y0093701D01*
X-0198819D01*
X-0200394Y0095276D01*
Y0097441D01*
X-0200669Y0060039D02*
X-0202362D01*
Y0064331D01*
X-0201043D01*
X-0201496Y0102598D02*
Y0097441D01*
X-0200394D01*
G54D25*
G01X-0223882Y0068134D02*
X-0224409D01*
X-0225197Y0068921D01*
Y0084252D01*
X-0224409Y0085039D01*
Y0090984D01*
X-0223882D01*
X-0224205Y0102315D02*
Y0100787D01*
X-0223622D01*
Y0096063D01*
X-0224409Y0095276D01*
Y0090984D01*
X-0223882D01*
X-0233858Y0086614D02*
Y0077953D01*
X-0233071Y0077165D01*
X-0223882Y0067189D02*
X-0222835D01*
Y0066929D01*
X-0221260Y0065354D01*
Y0064567D01*
X-0222047Y0063780D01*
Y0059055D01*
X-0222835Y0058268D01*
Y0057571D01*
X-0223882D01*
X-0224669Y0045563D02*
X-0223622D01*
X-0222835Y0046350D01*
Y0051181D01*
X-0224409Y0052756D01*
Y0056626D01*
X-0223882D01*
Y0079272D02*
Y0078740D01*
Y0078327D01*
X-0229134Y0069654D02*
X-0228346D01*
Y0070150D01*
X-0227417D01*
X-0222047Y0065354D02*
X-0222835D01*
Y0065181D01*
X-0223882D01*
X-0225984Y0077165D02*
X-0225197Y0076378D01*
Y0068921D01*
X-0224409Y0068134D01*
X-0223882D01*
Y0090039D02*
X-0233071Y0078740D02*
Y0081890D01*
X-0230709Y0084252D01*
X-0232598Y0103150D02*
X-0232705D01*
Y0104815D01*
X-0223882Y0056626D02*
X-0224409D01*
Y0057571D01*
X-0223882D01*
X-0229071Y0078740D02*
Y0077165D01*
X-0228614Y0037094D02*
X-0229921D01*
Y0036583D01*
X-0228622Y0035118D02*
X-0229134D01*
Y0031496D01*
X-0228346Y0030709D01*
X-0233858D02*
X-0233071Y0031496D01*
Y0033858D01*
X-0233858Y0034646D01*
Y0037795D01*
X-0232346Y0066929D02*
X-0232283D01*
Y0076378D01*
X-0224409Y0073622D02*
Y0070142D01*
X-0223882D01*
X-0228205Y0048524D02*
X-0229134D01*
Y0048394D01*
X-0229921Y0047606D01*
X-0229134Y0081465D02*
Y0081890D01*
X-0230709Y0080252D01*
X-0225079Y0035079D02*
Y0034646D01*
Y0034134D01*
X-0219685Y0060630D02*
Y0053543D01*
X-0223882Y0065181D02*
X-0224409D01*
Y0066165D01*
X-0223882D01*
X-0232346Y0066929D02*
X-0232283D01*
X-0232346Y0066866D01*
Y0065354D01*
X-0228150Y0096902D02*
X-0229134D01*
Y0095276D01*
X-0228150Y0096902D02*
Y0094004D01*
X-0227417D01*
X-0223882Y0076319D02*
X-0223622D01*
Y0077303D01*
X-0223882D01*
X-0227417Y0059587D02*
X-0226772D01*
X-0225984Y0058799D01*
Y0052756D01*
X-0226772Y0051969D01*
X-0228346D01*
X-0229921Y0053543D01*
Y0055906D01*
X-0230709Y0056693D01*
X-0229134Y0058630D01*
X-0223882Y0076319D02*
X-0223622D01*
X-0222835D01*
Y0076378D01*
X-0219685Y0079528D01*
Y0081102D01*
X-0220472Y0081890D01*
X-0220898D01*
Y0083102D01*
X-0229134Y0093276D02*
Y0093701D01*
X-0230709Y0092063D01*
X-0223882Y0054618D02*
X-0222835D01*
Y0054331D01*
X-0222047Y0053543D01*
Y0051543D01*
X-0222409D01*
X-0225079Y0033110D02*
Y0031496D01*
Y0032126D01*
X-0226772Y0063780D02*
Y0068173D01*
X-0227425D01*
X-0233071Y0077165D02*
Y0075591D01*
X-0222705Y0098815D02*
Y0100000D01*
X-0222047D01*
Y0101315D01*
X-0222205D01*
X-0228705Y0107315D02*
Y0106299D01*
Y0104815D01*
X-0233071Y0055118D02*
Y0053543D01*
X-0221883Y0086041D02*
Y0087402D01*
X-0221260D01*
Y0091339D01*
X-0222047Y0092126D01*
X-0223882Y0068134D02*
Y0067717D01*
Y0067189D01*
Y0090984D02*
Y0090039D01*
X-0231496Y0068441D02*
X-0228346Y0063780D02*
X-0227559D01*
X-0226772Y0062992D01*
X-0225984D01*
Y0070079D01*
X-0218898Y0074803D02*
Y0076378D01*
X-0220079Y0077559D01*
Y0077953D01*
X-0219685Y0087402D02*
Y0097638D01*
X-0218898Y0098425D01*
Y0099069D01*
X-0218110Y0099857D01*
X-0217482D01*
X-0221937Y0040323D02*
X-0222835D01*
Y0040945D01*
X-0226772Y0044882D01*
Y0049740D01*
X-0227559Y0050528D01*
X-0228189D01*
X-0231801Y0046419D02*
Y0045669D01*
X-0230709D01*
X-0229921Y0046457D01*
Y0047606D01*
X-0227559Y0041732D02*
Y0046547D01*
X-0228213D01*
X-0224669Y0044539D02*
Y0043307D01*
Y0043555D01*
X-0228346Y0065354D02*
Y0063780D01*
X-0227425Y0090000D02*
X-0226772D01*
X-0225984Y0089213D01*
Y0085039D01*
X-0230709Y0058205D02*
X-0233071Y0051181D02*
Y0046457D01*
X-0231496Y0044882D01*
X-0229858D01*
X-0223882Y0089016D02*
Y0087402D01*
Y0088031D01*
X-0228213Y0043516D02*
Y0042520D01*
X-0228346D01*
Y0040157D01*
X-0226772Y0038583D01*
Y0033071D01*
X-0227559Y0032283D01*
Y0032087D01*
X-0228622D01*
X-0222205Y0101315D02*
X-0222047D01*
X-0222205Y0101472D01*
Y0102362D01*
X-0222835D01*
X-0223622Y0103150D01*
Y0106315D01*
X-0222705D01*
X-0231496Y0035370D02*
X-0224669Y0048516D02*
X-0223622D01*
Y0046394D01*
X-0227150Y0052488D02*
X-0226772D01*
Y0057480D01*
X-0227425D01*
Y0057610D01*
X-0223583Y0033858D02*
X-0222835D01*
Y0032283D01*
X-0229071Y0056693D02*
Y0055118D01*
X-0227417Y0071154D02*
X-0228346D01*
Y0070866D01*
X-0229134D01*
X-0229921Y0070079D01*
Y0068504D01*
X-0228346Y0066929D01*
X-0223882Y0065181D02*
X-0227425Y0056587D02*
X-0227559D01*
Y0056693D01*
X-0227953D01*
Y0062992D01*
X-0227402Y0083291D02*
Y0084252D01*
X-0226772D01*
Y0086614D01*
X-0223882Y0055602D02*
Y0054618D01*
X-0229921Y0047606D02*
X-0230709Y0080252D02*
X-0227425Y0079311D02*
X-0226650D01*
Y0074189D01*
G54D27*
G01X-0233134Y0043307D02*
Y0041732D01*
X-0229858Y0033858D02*
Y0032283D01*
Y0030709D01*
X-0221937Y0044323D02*
Y0045669D01*
X-0222047D01*
Y0046394D01*
X-0221390Y0057723D02*
Y0055543D01*
X-0222409D01*
X-0223882Y0061547D02*
Y0061417D01*
Y0063780D01*
X-0224772D01*
X-0222409Y0068079D02*
X-0222835D01*
Y0069197D01*
X-0223882D01*
X-0224650Y0074189D02*
Y0074016D01*
X-0223622D01*
Y0072110D01*
X-0223882D01*
X-0228953Y0073937D02*
Y0075591D01*
X-0229071D01*
X-0222409Y0079102D02*
X-0222835D01*
Y0080335D01*
X-0223882D01*
X-0224409D01*
Y0083248D01*
X-0223882D01*
Y0084252D01*
X-0223650D01*
Y0085402D01*
X-0229134Y0091339D02*
X-0230772D01*
X-0232346Y0089764D01*
Y0087402D01*
X-0221883Y0090041D02*
X-0222835D01*
Y0092047D01*
X-0223882D01*
Y0094961D02*
Y0094488D01*
X-0223622D01*
X-0222835Y0093701D01*
Y0092047D01*
X-0223882D01*
X-0222835D01*
Y0087402D01*
X-0223622Y0086614D01*
X-0223650D01*
Y0085402D01*
X-0223882Y0080335D02*
X-0224650D01*
Y0074189D01*
X-0223882Y0072110D02*
X-0223622D01*
Y0071654D01*
X-0222835Y0070866D01*
Y0069197D01*
X-0223882D01*
Y0061547D02*
Y0061417D01*
X-0222835D01*
Y0059055D01*
X-0223882D01*
Y0058634D01*
X-0232346Y0063780D02*
X-0231496D01*
Y0060630D01*
X-0232283Y0059843D01*
X-0232646D01*
Y0058630D01*
X-0224669Y0050484D02*
X-0225197D01*
Y0047571D01*
X-0224669D01*
X-0225079Y0039055D02*
Y0040945D01*
X-0225866Y0041732D01*
X-0225559D01*
X-0225079Y0036142D02*
X-0224409D01*
Y0038583D01*
X-0225079D01*
Y0039055D01*
X-0226346Y0030709D02*
X-0225984D01*
Y0036142D01*
X-0225079D01*
X-0221937Y0044323D02*
Y0043307D01*
X-0221260D01*
Y0037795D01*
X-0220472Y0037008D01*
X-0222047Y0035370D01*
X-0225150Y0052488D02*
Y0050531D01*
X-0225197Y0050484D01*
X-0224669D01*
X-0225150Y0052488D02*
Y0058634D01*
X-0223882D01*
X-0228213Y0044539D02*
X-0229134D01*
Y0044094D01*
X-0232283D01*
X-0233858Y0045669D01*
Y0051969D01*
X-0231496Y0054331D01*
Y0059843D01*
X-0229921Y0061417D01*
Y0064567D01*
X-0228346Y0066142D01*
Y0066165D01*
X-0227425D01*
Y0077303D02*
X-0228346D01*
Y0073228D01*
X-0230709Y0070866D01*
Y0068504D01*
X-0228346Y0066142D01*
Y0066165D01*
X-0227425D01*
X-0228622Y0033110D02*
X-0227559D01*
Y0034823D01*
X-0228346Y0035610D01*
X-0229134D01*
Y0036220D01*
X-0229921Y0035433D01*
X-0230709Y0036220D01*
Y0042520D01*
X-0229134Y0044094D01*
Y0044539D01*
X-0228213D01*
X-0227425Y0055602D02*
X-0228346D01*
Y0062992D01*
X-0229134Y0063780D01*
Y0065354D01*
X-0228346Y0066142D01*
Y0066165D01*
X-0227425D01*
Y0089016D02*
X-0228346D01*
Y0088189D01*
X-0229134Y0087402D01*
Y0085039D01*
X-0228346Y0084252D01*
Y0077303D01*
X-0227425D01*
Y0089016D02*
X-0228346D01*
Y0091516D01*
X-0226772D01*
Y0096850D01*
X-0227559Y0097638D01*
X-0227705D01*
Y0098815D01*
X-0227756Y0102346D02*
Y0101575D01*
X-0226969Y0100787D01*
X-0226772D01*
X-0227559Y0100000D01*
X-0227705D01*
Y0098815D01*
X-0232705Y0107315D02*
Y0106299D01*
X-0232283D01*
X-0231496Y0105512D01*
Y0102150D01*
X-0232598D01*
Y0101575D01*
X-0231811Y0100787D01*
X-0231496D01*
X-0230709Y0100000D01*
Y0098228D01*
X-0232008D01*
X-0225705Y0105315D02*
X-0226772D01*
Y0106315D01*
X-0225705D01*
X-0222705Y0105315D02*
X-0222047D01*
Y0107087D01*
X-0222705D01*
Y0107315D01*
X-0227756Y0102346D02*
X-0226772D01*
Y0104315D01*
X-0225705D01*
Y0105315D02*
Y0104315D01*
G54D28*
G01X-0198928Y0041080D02*
Y0042520D01*
X-0199715Y0043307D01*
X-0200000D01*
X-0202362Y0045669D01*
Y0049721D01*
X-0200711D01*
X-0198928Y0041080D02*
Y0042520D01*
X-0199715Y0043307D01*
X-0200000D01*
X-0200394Y0043701D01*
X-0202362Y0041732D01*
Y0039370D01*
X-0201575Y0038583D01*
Y0038138D01*
X-0200787Y0037351D01*
X-0200591D01*
X-0198933Y0052899D02*
X-0199213D01*
Y0053150D01*
X-0200000Y0053937D01*
Y0058268D01*
X-0199213Y0059055D01*
Y0061417D01*
X-0200669D01*
Y0061599D01*
X-0217466Y0093322D02*
X-0216535D01*
X-0217466Y0092391D01*
Y0092126D01*
X-0216679Y0091339D01*
X-0216535D01*
X-0217323Y0090551D01*
X-0217541D01*
Y0088897D01*
X-0217482Y0101857D02*
Y0102362D01*
X-0216535D01*
X-0215748Y0101575D01*
Y0100000D01*
X-0218898Y0096850D01*
Y0087897D01*
X-0217541D01*
X-0214815Y0077415D02*
X-0216535D01*
Y0071079D01*
X-0217110D01*
X-0217180Y0106102D02*
Y0104724D01*
X-0216393Y0103937D01*
X-0214173D01*
X-0213386Y0103150D01*
Y0098425D01*
X-0215748Y0096063D01*
Y0095322D01*
X-0217466D01*
X-0198726Y0091454D02*
X-0199213D01*
Y0089764D01*
X-0200000Y0088976D01*
Y0087402D01*
X-0199213Y0086614D01*
Y0081602D01*
X-0199709D01*
X-0200787Y0074434D02*
Y0074016D01*
X-0199213D01*
Y0071654D01*
X-0200000Y0070866D01*
Y0064331D01*
X-0199043D01*
X-0219173Y0062283D02*
X-0220472D01*
Y0052756D01*
X-0218898D01*
Y0052785D01*
X-0217311D01*
X-0200669Y0061599D02*
Y0061417D01*
Y0062992D01*
X-0200000D01*
Y0064331D01*
X-0199043D01*
X-0200591Y0035791D02*
X-0201575D01*
Y0036220D01*
X-0202362Y0037008D01*
Y0037285D01*
X-0203150Y0038072D01*
X-0203158D01*
X-0214966Y0050747D02*
X-0216400D01*
X-0217187Y0049959D01*
Y0047326D01*
X-0219685Y0045157D02*
X-0218898Y0045945D01*
Y0047326D01*
X-0217187D01*
X-0219685Y0045157D02*
X-0214969Y0038072D02*
X-0213386D01*
Y0038583D01*
X-0211811Y0040157D01*
Y0094488D01*
X-0200572Y0086533D02*
Y0086614D01*
X-0199213D01*
Y0081602D01*
X-0199709D01*
X-0200787Y0074434D02*
Y0074016D01*
Y0081602D01*
X-0199709D01*
X-0199496Y0102598D02*
X-0199213D01*
Y0103937D01*
X-0208661D01*
X-0215748Y0096850D01*
Y0096109D01*
X-0216535Y0095322D01*
X-0217466D01*
X-0217187Y0061738D02*
X-0218110D01*
Y0061417D01*
X-0218898Y0060630D01*
Y0053785D01*
X-0217311D01*
X-0217541Y0086897D02*
X-0216535D01*
Y0088976D01*
X-0217541D01*
Y0088897D01*
X-0199496Y0102598D02*
X-0199213D01*
Y0101575D01*
X-0200000Y0100787D01*
X-0200394D01*
Y0099001D01*
X-0217466Y0093322D02*
X-0216535D01*
Y0095322D01*
X-0217466D01*
X-0200928Y0041080D02*
Y0039370D01*
X-0200787D01*
X-0199213Y0037795D01*
Y0036220D01*
X-0200591D01*
Y0035791D01*
X-0198950Y0045039D02*
X-0200000D01*
Y0046457D01*
X-0200711D01*
Y0048161D01*
X-0217323Y0081528D02*
Y0082677D01*
X-0214961Y0085039D01*
Y0089434D01*
X-0214570D01*
X-0200933Y0052899D02*
Y0051969D01*
X-0201864Y0052899D01*
X-0203150D01*
Y0052756D01*
X-0203155D01*
Y0050747D01*
X-0200933Y0052899D02*
Y0051969D01*
X-0200146Y0051181D01*
X-0200000D01*
X-0199213Y0050394D01*
Y0048031D01*
X-0200711D01*
Y0048161D01*
X-0201435Y0030981D02*
Y0035003D01*
X-0200647Y0035791D01*
X-0200591D01*
X-0217311Y0052785D02*
X-0215748D01*
Y0055118D01*
X-0217311D01*
Y0054785D01*
X-0217187Y0060738D02*
X-0215748D01*
X-0214961Y0059950D01*
Y0059843D01*
X-0213386Y0058268D01*
Y0049606D01*
X-0214961Y0048031D01*
Y0047113D01*
X-0215748Y0046326D01*
X-0217187D01*
X-0217482Y0100857D02*
X-0218898D01*
X-0219685Y0100069D01*
Y0100000D01*
X-0220472Y0099213D01*
Y0085827D01*
X-0218898Y0084252D01*
Y0080528D01*
X-0217323D01*
X-0217110Y0070079D02*
X-0218110D01*
Y0078740D01*
X-0218898Y0079528D01*
Y0080528D01*
X-0217323D01*
X-0217187Y0060738D02*
X-0215748D01*
Y0062992D01*
X-0216535Y0063780D01*
Y0067717D01*
X-0215748Y0068504D01*
Y0070079D01*
X-0217110D01*
X-0217323Y0036019D02*
X-0215748D01*
Y0037008D01*
X-0216535Y0037795D01*
Y0044094D01*
X-0215748Y0044882D01*
Y0046326D01*
X-0217187D01*
X-0218740Y0106102D02*
Y0100857D01*
X-0217482D01*
G54D26*
X-0233858Y0086614D03*
X-0222047Y0065354D03*
X-0225984Y0077165D03*
X-0233858Y0037795D03*
X-0232283Y0076378D03*
X-0224409Y0073622D03*
X-0219685Y0060630D03*
Y0053543D03*
X-0211811Y0094488D03*
X-0225984Y0070079D03*
X-0218898Y0074803D03*
X-0220079Y0077953D03*
X-0219685Y0087402D03*
X-0225984Y0085039D03*
X-0233071Y0051181D03*
X-0222835Y0032283D03*
X-0227953Y0062992D03*
X-0226772Y0086614D03*
G54D31*
X-0227756Y0102346D03*
X-0232598Y0102150D03*
X-0198928Y0041080D03*
X-0228346Y0030709D03*
X-0226346D03*
X-0229921Y0038583D03*
Y0036583D03*
X-0198933Y0052899D03*
X-0227559Y0041732D03*
X-0225559D03*
X-0229921Y0049606D03*
Y0047606D03*
X-0199043Y0064331D03*
X-0227150Y0052488D03*
X-0225150D03*
X-0229134Y0060630D03*
Y0058630D03*
X-0199709Y0081602D03*
X-0226772Y0063780D03*
X-0224772D03*
X-0229134Y0071654D03*
Y0069654D03*
X-0198726Y0091454D03*
X-0226650Y0074189D03*
X-0224650D03*
X-0229134Y0083465D03*
Y0081465D03*
X-0199496Y0102598D03*
X-0229134Y0089339D03*
Y0091339D03*
Y0095276D03*
Y0093276D03*
G54D32*
X-0227756Y0103346D03*
X-0232598Y0103150D03*
X-0200928Y0041080D03*
X-0200933Y0052899D03*
X-0201043Y0064331D03*
X-0201709Y0081602D03*
X-0200726Y0091454D03*
X-0201496Y0102598D03*
G54D33*
X-0227705Y0098815D03*
X-0219685Y0040157D03*
X-0219173Y0062283D03*
X-0219370Y0077756D03*
G54D34*
X-0222705Y0098815D03*
X-0219685Y0045157D03*
X-0219173Y0067283D03*
X-0219370Y0072756D03*
G54D35*
X-0217323Y0036019D03*
Y0037019D03*
X-0217187Y0046326D03*
Y0047326D03*
Y0060738D03*
Y0061738D03*
X-0217110Y0070079D03*
Y0071079D03*
X-0217323Y0080528D03*
Y0081528D03*
X-0217482Y0100857D03*
Y0101857D03*
X-0217466Y0094322D03*
Y0095322D03*
X-0217541Y0087897D03*
Y0088897D03*
X-0217311Y0053785D03*
Y0054785D03*
G54D36*
X-0217323Y0035019D03*
X-0217187Y0045326D03*
Y0059738D03*
X-0217110Y0069079D03*
X-0217323Y0079528D03*
X-0217482Y0099857D03*
X-0217466Y0093322D03*
X-0217541Y0086897D03*
X-0217311Y0052785D03*
G54D37*
X-0232008Y0099788D03*
X-0217180Y0106102D03*
X-0200591Y0037351D03*
X-0200711Y0049721D03*
X-0200669Y0061599D03*
X-0200787Y0074434D03*
X-0200572Y0086533D03*
X-0200394Y0099001D03*
G54D38*
X-0232008Y0098228D03*
X-0218740Y0106102D03*
X-0200591Y0035791D03*
X-0200711Y0048161D03*
X-0200669Y0060039D03*
X-0200787Y0072874D03*
X-0200572Y0084973D03*
X-0200394Y0097441D03*
G54D39*
X-0214969Y0038072D03*
X-0203158D03*
X-0214966Y0050747D03*
X-0203155D03*
X-0214876Y0063874D03*
X-0203065D03*
X-0214815Y0077415D03*
X-0203004D03*
X-0214570Y0089434D03*
X-0202759D03*
X-0214921Y0102626D03*
X-0203110D03*
G54D40*
X-0228705Y0107315D03*
X-0232705D03*
Y0104815D03*
X-0228705D03*
X-0233858Y0030709D03*
X-0229858D03*
X-0223583Y0033858D03*
Y0029858D03*
X-0201435Y0030981D03*
X-0205435D03*
X-0233858Y0032283D03*
X-0229858D03*
X-0233858Y0033858D03*
X-0229858D03*
X-0233071Y0039370D03*
Y0035370D03*
X-0231496Y0039370D03*
Y0035370D03*
X-0223622Y0039370D03*
Y0035370D03*
X-0222047Y0039370D03*
Y0035370D03*
X-0221937Y0040323D03*
Y0044323D03*
X-0198950Y0045039D03*
X-0202950D03*
X-0229134Y0043307D03*
X-0233134D03*
X-0229134Y0041732D03*
X-0233134D03*
X-0233858Y0044882D03*
X-0229858D03*
X-0231801Y0050419D03*
Y0046419D03*
X-0223622Y0050394D03*
Y0046394D03*
X-0222047Y0050394D03*
Y0046394D03*
X-0221390Y0061723D03*
Y0057723D03*
X-0198709Y0058024D03*
X-0202709D03*
X-0222409Y0051543D03*
Y0055543D03*
X-0232646Y0062630D03*
Y0058630D03*
X-0233071Y0056693D03*
X-0229071D03*
X-0230709Y0062205D03*
Y0058205D03*
X-0233071Y0055118D03*
X-0229071D03*
X-0233071Y0053543D03*
X-0229071D03*
X-0232953Y0073937D03*
X-0228953D03*
X-0222472Y0077591D03*
Y0073591D03*
X-0198669Y0070583D03*
X-0202669D03*
X-0220898Y0072079D03*
Y0068079D03*
X-0222409Y0072079D03*
Y0068079D03*
X-0228346Y0066929D03*
X-0232346D03*
X-0231496Y0072441D03*
Y0068441D03*
X-0228346Y0065354D03*
X-0232346D03*
X-0228346Y0063780D03*
X-0232346D03*
X-0198425Y0088150D03*
X-0202425D03*
X-0220898Y0083102D03*
Y0079102D03*
X-0222409Y0083102D03*
Y0079102D03*
X-0233071Y0078740D03*
X-0229071D03*
X-0230709Y0084252D03*
Y0080252D03*
X-0233071Y0077165D03*
X-0229071D03*
X-0233071Y0075591D03*
X-0229071D03*
X-0198527Y0094646D03*
X-0202527D03*
X-0228346Y0087402D03*
X-0232346D03*
X-0227650Y0085402D03*
X-0223650D03*
X-0228150Y0096902D03*
X-0224150D03*
X-0230709Y0096063D03*
Y0092063D03*
X-0222047Y0092126D03*
Y0096126D03*
X-0221883Y0086041D03*
Y0090041D03*
X-0222205Y0101315D03*
X-0224205Y0102315D03*
G54D41*
X-0225705Y0107315D03*
Y0106315D03*
Y0105315D03*
Y0104315D03*
X-0222705D03*
Y0105315D03*
Y0106315D03*
Y0107315D03*
X-0228598Y0039098D03*
X-0228614Y0038098D03*
Y0037094D03*
X-0228622Y0036102D03*
Y0035118D03*
Y0034094D03*
Y0033110D03*
Y0032087D03*
X-0225079Y0032126D03*
Y0033110D03*
Y0034134D03*
Y0035079D03*
Y0036142D03*
Y0037087D03*
Y0038110D03*
Y0039055D03*
X-0227402Y0095004D03*
X-0227417Y0094004D03*
Y0093000D03*
X-0227425Y0092008D03*
Y0091024D03*
Y0090000D03*
Y0089016D03*
Y0087992D03*
X-0223882Y0088031D03*
Y0089016D03*
Y0090039D03*
Y0090984D03*
Y0092047D03*
Y0092992D03*
Y0094016D03*
Y0094961D03*
G54D42*
X-0228205Y0049528D03*
Y0048524D03*
X-0228213Y0047531D03*
Y0046547D03*
Y0045524D03*
Y0044539D03*
Y0043516D03*
X-0224669Y0043555D03*
Y0044539D03*
Y0045563D03*
Y0046508D03*
Y0047571D03*
Y0048516D03*
Y0049539D03*
Y0050484D03*
X-0227417Y0060591D03*
Y0059587D03*
X-0227425Y0058594D03*
Y0057610D03*
Y0056587D03*
Y0055602D03*
Y0054579D03*
X-0223882Y0054618D03*
Y0055602D03*
Y0056626D03*
Y0057571D03*
Y0058634D03*
Y0059579D03*
Y0060602D03*
Y0061547D03*
X-0227417Y0071154D03*
Y0070150D03*
X-0227425Y0069157D03*
Y0068173D03*
Y0067150D03*
Y0066165D03*
Y0065142D03*
X-0223882Y0065181D03*
Y0066165D03*
Y0067189D03*
Y0068134D03*
Y0069197D03*
Y0070142D03*
Y0071165D03*
Y0072110D03*
X-0227417Y0082291D03*
Y0081287D03*
X-0227425Y0080295D03*
Y0079311D03*
Y0078287D03*
Y0077303D03*
Y0076280D03*
X-0223882Y0076319D03*
Y0077303D03*
Y0078327D03*
Y0079272D03*
Y0080335D03*
Y0081280D03*
Y0082303D03*
Y0083248D03*
G54D43*
X-0228189Y0050528D03*
X-0227402Y0061591D03*
Y0072154D03*
Y0083291D03*
M02*
