%
T1C0.0236F200S100
X-233858Y037795
X-233071Y051181
X-233858Y086614
X-232283Y076378
X-227953Y062992
X-226772Y086614
X-225984Y070079
X-225984Y077165
X-225984Y085039
X-224409Y073622
X-222835Y032283
X-222047Y065354
X-220079Y077953
X-219685Y053543
X-219685Y060630
X-218898Y074803
X-219685Y087402
X-211811Y094488
T2C0.0280F200S100
X-228622Y032087
X-228622Y033110
X-228622Y034094
X-228622Y035118
X-228622Y036102
X-228614Y037094
X-228614Y038098
X-228598Y039098
X-227425Y087992
X-227425Y089016
X-227425Y090000
X-227425Y091024
X-227425Y092008
X-227417Y093000
X-227417Y094004
X-227402Y095004
X-225705Y104315
X-225705Y105315
X-225705Y106315
X-225705Y107315
X-225079Y032126
X-225079Y033110
X-225079Y034134
X-225079Y035079
X-225079Y036142
X-225079Y037087
X-225079Y038110
X-225079Y039055
X-223882Y088031
X-223882Y089016
X-223882Y090039
X-223882Y090984
X-223882Y092047
X-223882Y092992
X-223882Y094016
X-223882Y094961
X-222705Y104315
X-222705Y105315
X-222705Y106315
X-222705Y107315
T6C0.0420F200S100
X-227705Y098815
X-222705Y098815
X-219685Y040157
X-219685Y045157
X-219370Y072756
X-219370Y077756
X-219173Y062283
X-219173Y067283
T5C0.0340F200S100
X-233858Y030709
X-233858Y032283
X-233858Y033858
X-233134Y041732
X-233134Y043307
X-233858Y044882
X-233071Y035370
X-233071Y039370
X-233071Y053543
X-233071Y055118
X-233071Y056693
X-232953Y073937
X-233071Y075591
X-233071Y077165
X-233071Y078740
X-232705Y104815
X-232705Y107315
X-232646Y058630
X-232646Y062630
X-232346Y063780
X-232346Y065354
X-232346Y066929
X-232346Y087402
X-231801Y046419
X-231801Y050419
X-231496Y035370
X-231496Y039370
X-230709Y058205
X-230709Y062205
X-231496Y068441
X-231496Y072441
X-230709Y080252
X-230709Y084252
X-230709Y092063
X-230709Y096063
X-229858Y030709
X-229858Y032283
X-229858Y033858
X-229134Y041732
X-229134Y043307
X-229858Y044882
X-229071Y053543
X-229071Y055118
X-229071Y056693
X-228953Y073937
X-229071Y075591
X-229071Y077165
X-229071Y078740
X-228705Y104815
X-228705Y107315
X-228346Y063780
X-228346Y065354
X-228346Y066929
X-228346Y087402
X-228150Y096902
X-227650Y085402
X-224205Y102315
X-224150Y096902
X-223650Y085402
X-223622Y035370
X-223622Y039370
X-223622Y046394
X-223622Y050394
X-223583Y029858
X-223583Y033858
X-222472Y073591
X-222472Y077591
X-222409Y051543
X-222409Y055543
X-222409Y068079
X-222409Y072079
X-222409Y079102
X-222409Y083102
X-222205Y101315
X-222047Y035370
X-222047Y039370
X-221937Y040323
X-221937Y044323
X-222047Y046394
X-222047Y050394
X-222047Y092126
X-222047Y096126
X-221883Y086041
X-221883Y090041
X-221390Y057723
X-221390Y061723
X-220898Y068079
X-220898Y072079
X-220898Y079102
X-220898Y083102
X-205435Y030981
X-202950Y045039
X-202709Y058024
X-202669Y070583
X-202527Y094646
X-202425Y088150
X-201435Y030981
X-198950Y045039
X-198709Y058024
X-198669Y070583
X-198527Y094646
X-198425Y088150
T8C0.0700F200S100
X-232008Y098228
X-232008Y099788
X-218740Y106102
X-217180Y106102
X-200787Y072874
X-200787Y074434
X-200711Y048161
X-200711Y049721
X-200669Y060039
X-200669Y061599
X-200591Y035791
X-200591Y037351
X-200572Y084973
X-200572Y086533
X-200394Y097441
X-200394Y099001
T3C0.0310F200S100
X-232598Y102150
X-232598Y103150
X-229921Y036583
X-229921Y038583
X-229921Y047606
X-229921Y049606
X-229134Y058630
X-229134Y060630
X-229134Y069654
X-229134Y071654
X-229134Y081465
X-229134Y083465
X-229134Y089339
X-229134Y091339
X-229134Y093276
X-229134Y095276
X-228346Y030709
X-227756Y102346
X-227756Y103346
X-227559Y041732
X-227150Y052488
X-226772Y063780
X-226650Y074189
X-226346Y030709
X-225559Y041732
X-225150Y052488
X-224772Y063780
X-224650Y074189
X-201709Y081602
X-201496Y102598
X-201043Y064331
X-200933Y052899
X-200928Y041080
X-200726Y091454
X-199709Y081602
X-199496Y102598
X-199043Y064331
X-198933Y052899
X-198928Y041080
X-198726Y091454
T4C0.0315F200S100
X-228213Y043516
X-228213Y044539
X-228213Y045524
X-228213Y046547
X-228213Y047531
X-228205Y048524
X-228205Y049528
X-228189Y050528
X-227425Y054579
X-227425Y055602
X-227425Y056587
X-227425Y057610
X-227425Y058594
X-227425Y065142
X-227425Y066165
X-227425Y067150
X-227425Y068173
X-227425Y069157
X-227425Y076280
X-227425Y077303
X-227425Y078287
X-227425Y079311
X-227425Y080295
X-227417Y059587
X-227417Y060591
X-227402Y061591
X-227417Y070150
X-227417Y071154
X-227402Y072154
X-227417Y081287
X-227417Y082291
X-227402Y083291
X-224669Y043555
X-224669Y044539
X-224669Y045563
X-224669Y046508
X-224669Y047571
X-224669Y048516
X-224669Y049539
X-224669Y050484
X-223882Y054618
X-223882Y055602
X-223882Y056626
X-223882Y057571
X-223882Y058634
X-223882Y059579
X-223882Y060602
X-223882Y061547
X-223882Y065181
X-223882Y066165
X-223882Y067189
X-223882Y068134
X-223882Y069197
X-223882Y070142
X-223882Y071165
X-223882Y072110
X-223882Y076319
X-223882Y077303
X-223882Y078327
X-223882Y079272
X-223882Y080335
X-223882Y081280
X-223882Y082303
X-223882Y083248
T7C0.0540F200S100
X-217541Y086897
X-217541Y087897
X-217541Y088897
X-217482Y099857
X-217482Y100857
X-217482Y101857
X-217466Y093322
X-217466Y094322
X-217466Y095322
X-217323Y035019
X-217323Y036019
X-217323Y037019
X-217323Y079528
X-217323Y080528
X-217323Y081528
X-217311Y052785
X-217311Y053785
X-217311Y054785
X-217187Y045326
X-217187Y046326
X-217187Y047326
X-217187Y059738
X-217187Y060738
X-217187Y061738
X-217110Y069079
X-217110Y070079
X-217110Y071079
T9C0.0787F200S100
X-214969Y038072
X-214966Y050747
X-214921Y102626
X-214876Y063874
X-214815Y077415
X-214570Y089434
X-203158Y038072
X-203155Y050747
X-203110Y102626
X-203065Y063874
X-203004Y077415
X-202759Y089434
M30
