*
G04 Mass Parameters ***
*
G04 Image ***
*
%INH:\VEHICULO AUTOGUIADO\ORCAD\ESQUEMAS\PCB3.SMB*%
%ICAS*%
%MOIN*%
%IPPOS*%
%ASAXBY*%
G74*%FSLAN2X34Y34*%
*
G04 Aperture Definitions ***
*
%ADD10C,0.0630*%
%ADD11C,0.0394*%
%ADD12R,0.0780X0.0780*%
%ADD13C,0.0500*%
%ADD14C,0.0394*%
%ADD15C,0.0394*%
%ADD16C,0.0630*%
%ADD17C,0.0394*%
%ADD18R,0.0780X0.0780*%
%ADD19C,0.0620*%
%ADD20R,0.0580X0.0580*%
%ADD21C,0.0080*%
%ADD22C,0.0100*%
%ADD23C,0.0630*%
%ADD24C,0.0394*%
%ADD25R,0.0780X0.0780*%
%ADD26C,0.0630*%
%ADD27C,0.0394*%
%ADD28R,0.0780X0.0780*%
%ADD29C,0.0620*%
%ADD30R,0.0580X0.0580*%
%ADD31C,0.0080*%
%ADD32C,0.0394*%
%ADD33C,0.0630*%
%ADD34C,0.1400*%
%ADD35C,0.0830*%
%ADD36R,0.0830X0.0830*%
%ADD37C,0.0394*%
%ADD38C,0.1400*%
%ADD39C,0.0830*%
%ADD40R,0.0830X0.0830*%
%ADD41C,0.1200*%
%ADD42R,0.0630X0.0630*%
%ADD43C,0.0394*%
%ADD44C,0.0630*%
%ADD45C,0.1400*%
%ADD46C,0.0830*%
%ADD47R,0.0830X0.0830*%
%ADD48C,0.0394*%
%ADD49C,0.0630*%
%ADD50C,0.0950*%
%ADD51R,0.0950X0.0950*%
%ADD52C,0.1400*%
%ADD53C,0.0830*%
%ADD54R,0.0830X0.0830*%
%ADD55C,0.0950*%
%ADD56R,0.0950X0.0950*%
%ADD57C,0.0750*%
%ADD58R,0.0750X0.0750*%
%ADD59C,0.0394*%
%ADD60C,0.0630*%
%ADD61C,0.0950*%
%ADD62R,0.0950X0.0950*%
%ADD63C,0.1400*%
%ADD64C,0.0830*%
%ADD65R,0.0830X0.0830*%
%ADD66C,0.0394*%
%ADD67C,0.0570*%
%ADD68C,0.0750*%
%ADD69R,0.0750X0.0750*%
%ADD70C,0.1200*%
%ADD71R,0.0630X0.0630*%
%ADD72R,0.0570X0.0570*%
%ADD73C,0.0157*%
%ADD74C,0.0394*%
%ADD75C,0.0197*%
%ADD76C,0.0591*%
%ADD77C,0.0394*%
%ADD78C,0.0570*%
%ADD79C,0.0394*%
*
G04 Plot Data ***
*
G54D26*
X0007095Y0033958D03*
Y0035048D03*
Y0036138D03*
Y0037228D03*
X0005975Y0033413D03*
Y0034503D03*
Y0035593D03*
Y0036683D03*
G54D27*
X0057589Y0039481D03*
X0052246Y0020375D03*
X0057589Y0022264D03*
X0058776D03*
X0064120Y0026123D03*
X0011874Y0025529D03*
X0009499D03*
X0058183Y0027904D03*
X0027310Y0032654D03*
X0027013D03*
X0025529D03*
X0042153Y0018405D03*
X0035622D03*
X0038591Y0023154D03*
X0073619Y0038591D03*
X0048090Y0007124D03*
X0045715Y0026123D03*
X0041559Y0032060D03*
Y0017217D03*
X0018998Y0010687D03*
X0040372Y0010093D03*
Y0016624D03*
X0046309Y0017811D03*
X0042746D03*
X0017811Y0023748D03*
X0017514Y0007718D03*
X0071244Y0029685D03*
X0070947Y0033841D03*
X0070650Y0039778D03*
X0044528Y0026123D03*
X0042153D03*
X0071838Y0040965D03*
X0045121Y0037403D03*
X0026717Y0016030D03*
X0025529D03*
X0007119Y0007124D03*
X0007718Y0005937D03*
X0044528Y0038591D03*
X0005937Y0016030D03*
X0040965Y0016624D03*
Y0017217D03*
X0042153Y0038294D03*
X0062042Y0002375D03*
X0026123Y0023154D03*
X0021373Y0034435D03*
X0073619Y0027904D03*
X0018998Y0010093D03*
X0045121Y0023748D03*
X0040372Y0026717D03*
X0045267D03*
X0061745Y0035606D03*
X0035028Y0011280D03*
X0059370Y0026717D03*
X0018998Y0005937D03*
Y0008906D03*
X0057054Y0036216D03*
X0055808D03*
X0023154Y0032654D03*
X0021967D03*
X0051058Y0017811D03*
Y0016030D03*
X0047496Y0008312D03*
Y0011577D03*
X0039184Y0011874D03*
X0056995Y0008906D03*
X0048090Y0039184D03*
Y0037403D03*
X0060557Y0007124D03*
X0056402Y0006531D03*
X0022561Y0037403D03*
X0011874Y0030576D03*
X0009499D03*
X0037403Y0024935D03*
X0046309Y0021373D03*
X0075400Y0033863D03*
X0020780Y0016624D03*
X0017217Y0014843D03*
X0011874Y0009499D03*
X0065307Y0037700D03*
X0067088D03*
X0050465Y0018405D03*
X0053136Y0007124D03*
X0077181Y0009499D03*
X0062932Y0005343D03*
X0027904Y0038591D03*
X0074213Y0010687D03*
X0070650D03*
X0030279Y0037403D03*
X0062932Y0030279D03*
X0026123Y0005937D03*
X0031466D03*
X0051652Y0022264D03*
X0029091Y0021967D03*
X0056402Y0011874D03*
X0058183D03*
X0016624Y0018405D03*
X0012468Y0018998D03*
Y0022561D03*
X0037997Y0021967D03*
X0039481D03*
X0039184Y0010093D03*
X0061151Y0007718D03*
X0067682Y0033863D03*
X0024342Y0000594D03*
X0040965D03*
Y0004156D03*
X0007718Y0015436D03*
X0059964Y0037403D03*
Y0039184D03*
X0062339Y0030872D03*
X0060557Y0017217D03*
X0069463D03*
Y0018405D03*
X0050465Y0014546D03*
X0037403Y0003562D03*
X0021967Y0015436D03*
X0023154Y0016030D03*
Y0019889D03*
X0017217Y0035919D03*
X0043934Y0010687D03*
X0074806Y0018998D03*
X0024342Y0025529D03*
X0067088Y0020780D03*
X0018405Y0007863D03*
Y0011874D03*
X0043340Y0015436D03*
X0042746Y0031466D03*
X0062417D03*
X0016624Y0030279D03*
X0032654Y0029685D03*
X0046309Y0001484D03*
X0039184Y0001187D03*
X0033247Y0002969D03*
X0010093Y0002078D03*
X0061566Y0005343D03*
X0032060Y0030872D03*
X0059964Y0020375D03*
X0042746Y0000594D03*
X0054027D03*
X0041559Y0024342D03*
X0068869Y0024935D03*
X0027310Y0006531D03*
X0024935Y0005937D03*
X0052839Y0017217D03*
X0074806Y0001781D03*
X0056995D03*
X0020186Y0013061D03*
X0029685D03*
X0054917Y0006531D03*
Y0030279D03*
X0071244Y0024342D03*
X0016030D03*
X0075400Y0020413D03*
X0023154Y0004156D03*
X0064713Y0029449D03*
X0025594Y0036216D03*
X0024639D03*
X0057589Y0026717D03*
X0027904Y0031466D03*
X0027310Y0030872D03*
X0046902Y0007124D03*
X0007718Y0032060D03*
X0064417Y0016624D03*
X0056995Y0017217D03*
X0068869Y0018405D03*
X0016476Y0032654D03*
X0017811D03*
X0014249Y0005343D03*
Y0004156D03*
X0060557Y0017811D03*
X0059370Y0017217D03*
X0055214Y0014843D03*
X0056698D03*
X0027094Y0035622D03*
X0055214Y0021967D03*
X0067682D03*
X0058183Y0014249D03*
X0067682D03*
X0027310Y0026717D03*
X0058776Y0019592D03*
X0020186Y0018998D03*
X0061745Y0018405D03*
X0013095Y0023154D03*
X0008312D03*
X0008906Y0020483D03*
X0076587Y0032060D03*
X0072431Y0004156D03*
X0023451Y0039778D03*
X0026717Y0032060D03*
X0010687Y0035622D03*
Y0036216D03*
X0040965Y0007718D03*
Y0010687D03*
X0073025Y0008906D03*
X0071244D03*
X0055808Y0028498D03*
X0063526Y0030279D03*
X0044528Y0005343D03*
X0039184D03*
X0034435Y0001187D03*
X0022857Y0000594D03*
X0049277Y0002672D03*
Y0001187D03*
X0075400D03*
X0016624Y0026123D03*
X0050465Y0012468D03*
X0048683Y0032654D03*
X0043934Y0003562D03*
X0008906Y0037403D03*
Y0034435D03*
X0014843Y0016920D03*
X0032060Y0006531D03*
X0030243Y0017811D03*
X0063893Y0019523D03*
X0020400Y0035900D03*
X0056098Y0007838D03*
X0055098D03*
X0054098D03*
X0053098D03*
X0052098D03*
X0051098D03*
X0050098D03*
Y0004838D03*
X0051098D03*
X0052098D03*
X0053098D03*
X0054098D03*
X0055098D03*
X0056098D03*
X0028712Y0040905D03*
X0025712D03*
X0008883Y0028399D03*
Y0031399D03*
X0010670Y0031974D03*
Y0028974D03*
X0034712Y0015906D03*
X0037712D03*
X0049011Y0012331D03*
X0046011D03*
X0033468Y0033149D03*
Y0036149D03*
X0016907Y0004357D03*
X0019907D03*
X0021376D03*
X0024376D03*
X0025844D03*
X0028844D03*
X0030313D03*
X0033313D03*
X0034781D03*
X0037781D03*
X0048948Y0014094D03*
X0051948D03*
X0030243Y0020375D03*
X0033243D03*
X0003976Y0010231D03*
X0000976D03*
X0033531Y0022769D03*
X0030531D03*
X0030243Y0018587D03*
X0033243D03*
X0052586Y0015906D03*
X0049586D03*
X0067779Y0017694D03*
X0064779D03*
X0057948Y0033818D03*
X0060948D03*
X0062417Y0035606D03*
Y0032606D03*
X0060629Y0040074D03*
X0062629D03*
X0066885D03*
X0068885D03*
X0002098Y0024044D03*
Y0026044D03*
X0001645Y0018587D03*
Y0020587D03*
X0046267Y0040011D03*
X0048267D03*
X0051629D03*
X0053629D03*
X0041861Y0015906D03*
X0046361D03*
X0040011Y0023031D03*
X0035511D03*
X0060566Y0004263D03*
X0061566D03*
X0062566D03*
X0063566D03*
X0018393Y0023113D03*
X0020393D03*
X0014192Y0022273D03*
X0016192D03*
X0035543Y0038224D03*
Y0040224D03*
X0007007Y0005182D03*
X0009007D03*
X0001205Y0012426D03*
Y0014426D03*
X0016907Y0001676D03*
X0018907D03*
X0021376D03*
X0023376D03*
X0025844D03*
X0027844D03*
X0030313D03*
X0032313D03*
X0034781D03*
X0036781D03*
X0001582Y0002476D03*
X0003582D03*
X0041798Y0040011D03*
X0043798D03*
X0076035Y0040074D03*
X0074035D03*
X0001582Y0006050D03*
Y0008050D03*
G54D29*
X0033818Y0006076D03*
X0035818D03*
X0023094Y0033780D03*
X0024094D03*
X0025094D03*
X0026094D03*
X0027094D03*
X0028094D03*
X0029094D03*
Y0036780D03*
X0028094D03*
X0027094D03*
X0026094D03*
X0025094D03*
X0024094D03*
X0023094D03*
X0019519Y0017694D03*
X0020519D03*
X0021519D03*
X0022519D03*
X0023519D03*
X0024519D03*
X0025519D03*
X0026519D03*
X0027519D03*
X0028519D03*
Y0020694D03*
X0027519D03*
X0026519D03*
X0025519D03*
X0024519D03*
X0023519D03*
X0022519D03*
X0021519D03*
X0020519D03*
X0019519D03*
X0011476Y0033780D03*
X0012476D03*
X0013476D03*
X0014476D03*
X0015476D03*
X0016476D03*
X0017476D03*
X0018476D03*
Y0036780D03*
X0017476D03*
X0016476D03*
X0015476D03*
X0014476D03*
X0013476D03*
X0012476D03*
X0011476D03*
X0076653Y0017669D03*
X0075653D03*
X0074653D03*
X0073653D03*
X0072653D03*
X0071653D03*
X0070653D03*
Y0014669D03*
X0071653D03*
X0072653D03*
X0073653D03*
X0074653D03*
X0075653D03*
X0076653D03*
X0007095Y0023931D03*
X0008095D03*
X0009095D03*
X0010095D03*
X0011095D03*
X0012095D03*
X0013095D03*
Y0026931D03*
X0012095D03*
X0011095D03*
X0010095D03*
X0009095D03*
X0008095D03*
X0007095D03*
X0060717Y0018569D03*
X0059717D03*
X0058717D03*
X0057717D03*
X0056717D03*
X0055717D03*
X0054717D03*
Y0015569D03*
X0055717D03*
X0056717D03*
X0057717D03*
X0058717D03*
X0059717D03*
X0060717D03*
Y0013206D03*
X0059717D03*
X0058717D03*
X0057717D03*
X0056717D03*
X0055717D03*
X0054717D03*
Y0010206D03*
X0055717D03*
X0056717D03*
X0057717D03*
X0058717D03*
X0059717D03*
X0060717D03*
X0024818Y0039117D03*
X0021818D03*
X0033725Y0037863D03*
X0030725D03*
X0026669Y0029312D03*
X0029669D03*
X0023924Y0040905D03*
X0020924D03*
X0020700Y0034961D03*
Y0037961D03*
X0031225Y0035863D03*
Y0032863D03*
X0024225Y0030863D03*
X0021225D03*
X0030531Y0030531D03*
X0033531D03*
X0066822Y0004263D03*
X0069822D03*
X0021342Y0026742D03*
X0024342D03*
X0021225Y0028863D03*
X0024225D03*
X0022200Y0024843D03*
X0025200D03*
X0071291Y0003369D03*
X0074291D03*
X0066822Y0006050D03*
X0069822D03*
X0070972Y0005157D03*
X0073972D03*
X0069503Y0007838D03*
X0066503D03*
X0065035Y0006944D03*
X0062035D03*
X0011476Y0012331D03*
X0014476D03*
X0016838Y0011438D03*
Y0008438D03*
X0012306Y0005157D03*
X0015306D03*
X0045373Y0002476D03*
X0048373D03*
X0014987Y0003369D03*
X0011987D03*
X0046267Y0004263D03*
X0043267D03*
X0052204Y0002476D03*
X0055204D03*
X0012306Y0006944D03*
X0015306D03*
X0014987Y0001582D03*
X0011987D03*
X0046267Y0006050D03*
X0043267D03*
X0004326Y0020375D03*
X0007326D03*
X0009369Y0015013D03*
X0012369D03*
X0016873Y0019592D03*
Y0016592D03*
X0009688Y0022162D03*
X0006688D03*
X0005220Y0017694D03*
X0008220D03*
X0014192Y0017805D03*
X0011192D03*
X0045149Y0010257D03*
X0042149D03*
X0026669Y0023950D03*
X0029669D03*
X0046267Y0007838D03*
X0043267D03*
X0025200Y0023056D03*
X0022200D03*
X0019519Y0007863D03*
X0020519D03*
X0021519D03*
X0022519D03*
X0023519D03*
X0024519D03*
X0025519D03*
X0026519D03*
X0027519D03*
X0028519D03*
X0029519D03*
X0030519D03*
X0031519D03*
X0032519D03*
X0033519D03*
X0034519D03*
X0035519D03*
X0036519D03*
X0037519D03*
X0038519D03*
Y0013863D03*
X0037519D03*
X0036519D03*
X0035519D03*
X0034519D03*
X0033519D03*
X0032519D03*
X0031519D03*
X0030519D03*
X0029519D03*
X0028519D03*
X0027519D03*
X0026519D03*
X0025519D03*
X0024519D03*
X0023519D03*
X0022519D03*
X0021519D03*
X0020519D03*
X0019519D03*
X0014157Y0008757D03*
Y0010757D03*
X0065098Y0020375D03*
X0069598D03*
X0064225Y0033863D03*
X0068725D03*
X0049905Y0020375D03*
X0054405D03*
X0050943Y0034407D03*
X0055443D03*
X0076716Y0020413D03*
X0072216D03*
X0064204Y0027524D03*
X0068704D03*
X0076725Y0033863D03*
X0072225D03*
X0061523Y0020375D03*
X0057023D03*
X0035543Y0024818D03*
X0040043D03*
X0042692Y0037330D03*
X0047192D03*
X0047161Y0023031D03*
X0042661D03*
X0054310Y0038224D03*
X0049810D03*
X0004326Y0015013D03*
Y0014013D03*
X0041931Y0001676D03*
X0039931D03*
X0014157Y0040036D03*
X0012157D03*
X0043649Y0013225D03*
X0041649D03*
X0065991Y0016800D03*
Y0014800D03*
X0041931Y0004357D03*
X0039931D03*
X0005157Y0009625D03*
Y0011625D03*
X0013298Y0020486D03*
X0011298D03*
X0018713Y0031080D03*
X0017713D03*
X0018625Y0040036D03*
Y0039036D03*
X0015139Y0031080D03*
X0016139D03*
X0012457D03*
X0013457D03*
X0017767Y0026742D03*
X0018767D03*
X0031137Y0015906D03*
X0032137D03*
X0075759Y0004263D03*
X0076759D03*
X0038224Y0040011D03*
Y0039011D03*
X0070460Y0037393D03*
X0071460D03*
X0007007Y0013225D03*
X0008007D03*
X0065098Y0036461D03*
X0066098D03*
X0057054Y0038249D03*
Y0037249D03*
G54D41*
X0006535Y0030128D03*
Y0039968D03*
G54D42*
X0007095Y0032868D03*
G54D57*
X0045480Y0019456D03*
X0046480D03*
X0007731Y0002476D03*
X0006731D03*
X0008119Y0008000D03*
X0009119D03*
X0066814Y0023167D03*
X0065814D03*
X0052515D03*
X0051515D03*
X0052591Y0029487D03*
X0051591D03*
X0066891Y0029449D03*
X0065891D03*
X0037224Y0028393D03*
X0036224D03*
X0037224Y0033755D03*
X0036224D03*
X0037436Y0019456D03*
X0038436D03*
X0072972Y0007838D03*
X0071972D03*
X0072972Y0011413D03*
X0071972D03*
X0065822D03*
X0064822D03*
X0074802Y0029354D03*
X0073802D03*
X0059665Y0023167D03*
X0058665D03*
X0059244Y0029455D03*
X0058244D03*
X0074759Y0023031D03*
X0073759D03*
X0045267Y0028393D03*
X0044267D03*
X0045267Y0033755D03*
X0044267D03*
G54D58*
X0044480Y0019456D03*
X0008731Y0002476D03*
X0007119Y0008000D03*
X0067814Y0023167D03*
X0053515D03*
X0053591Y0029487D03*
X0067891Y0029449D03*
X0038224Y0028393D03*
Y0033755D03*
X0036436Y0019456D03*
X0073972Y0007838D03*
Y0011413D03*
X0066822D03*
X0075802Y0029354D03*
X0060665Y0023167D03*
X0060244Y0029455D03*
X0075759Y0023031D03*
X0046267Y0028393D03*
Y0033755D03*
G54D79*
X0020186Y0039036D03*
X0010687Y0020486D03*
X0067682Y0007718D03*
X0004156Y0008906D03*
X0027904Y0016030D03*
X0003562Y0012171D03*
X0019889Y0038591D03*
X0027904Y0008906D03*
X0029685Y0008609D03*
X0068276Y0014843D03*
X0010093Y0017514D03*
X0010687Y0011280D03*
X0021373Y0025529D03*
X0018405D03*
X0045715Y0006531D03*
X0076587Y0006828D03*
X0071972Y0007124D03*
X0007718Y0010093D03*
X0044528Y0010257D03*
X0013061Y0037997D03*
X0026123D03*
X0027904Y0040965D03*
Y0039778D03*
X0014249Y0026123D03*
X0010095D03*
X0014843Y0023748D03*
X0026925Y0019592D03*
X0028498Y0018998D03*
X0030279Y0011280D03*
X0028498D03*
X0020186Y0002969D03*
X0013655Y0005343D03*
X0050465Y0002969D03*
X0049277Y0013061D03*
X0048090Y0020483D03*
X0054027Y0021373D03*
X0070650D03*
X0033841Y0012468D03*
X0010093Y0013061D03*
X0045121Y0007838D03*
X0032060Y0017811D03*
X0014843Y0020486D03*
X0004750Y0023154D03*
X0011280Y0022561D03*
X0056995Y0024342D03*
M02*
