%
T1C0.0315F200S100
X000976Y010231
X002969Y024935
X003562Y012171
X003976Y010231
X004156Y008906
X005640Y008906
X005937Y008906
X006531Y007124
X005937Y015436
X007718Y020186
X007718Y023154
X007718Y032060
X008312Y007124
X008312Y016030
X008883Y028399
X008883Y030279
X008883Y031399
X008906Y034435
X008906Y037106
X010093Y010687
X010095Y025529
X010670Y028974
X010670Y031974
X010687Y035622
X010687Y036216
X011280Y023154
X011577Y031466
X011874Y009499
X012468Y030279
X012468Y037997
X013061Y011280
X013061Y017811
X013655Y002375
X013655Y004750
X013061Y038591
X013952Y038591
X014249Y004156
X014249Y005343
X014249Y025529
X014843Y007718
X015436Y010093
X014843Y020486
X016030Y018405
X016030Y023748
X016624Y027904
X016907Y004357
X016920Y033247
X017217Y035919
X017811Y021967
X017811Y033247
X018108Y018998
X018998Y005937
X018998Y008906
X018998Y021373
X019592Y003859
X019592Y037997
X019889Y038591
X019907Y004357
X020186Y012468
X020186Y021967
X020186Y030279
X020186Y039036
X020400Y035900
X021373Y034435
X021376Y004357
X021967Y027310
X021967Y032654
X022561Y015436
X023154Y002969
X023154Y025529
X022561Y032060
X023154Y032654
X022561Y037403
X023154Y039778
X023748Y003859
X023748Y015436
X024342Y022561
X024376Y004357
X024935Y005937
X025529Y015436
X025529Y032654
X025529Y038294
X025712Y040905
X025844Y004357
X026094Y035622
X026123Y024935
X026717Y006531
X026717Y014843
X026717Y019295
X026717Y038294
X027310Y005937
X027904Y004357
X027904Y006531
X027904Y009499
X027904Y016030
X027310Y027904
X027310Y031466
X027904Y038591
X028498Y003859
X028498Y010687
X028498Y015436
X028498Y019592
X028498Y031466
X028498Y035028
X028712Y040905
X028844Y004357
X029091Y026123
X029091Y039778
X029685Y008609
X029685Y012468
X029685Y017217
X030243Y017811
X030243Y018587
X030243Y020375
X030279Y010093
X030313Y004357
X030531Y022769
X031225Y034435
X032060Y003859
X032060Y006531
X032060Y010687
X032060Y018998
X032060Y030872
X032654Y032654
X032950Y034435
X032950Y035028
X033243Y018587
X033243Y020375
X033313Y004357
X033468Y033149
X033468Y036149
X033531Y022769
X033841Y002375
X033841Y005343
X033841Y011280
X034138Y030279
X034712Y015906
X034781Y004357
X035028Y015139
X036216Y016030
X036809Y026717
X037403Y024342
X037712Y015906
X037403Y038591
X037403Y038887
X037781Y004357
X037997Y021373
X038591Y010093
X039184Y021967
X038591Y030279
X039778Y005937
X040372Y003562
X040372Y006531
X040372Y007124
X039778Y010687
X039778Y021373
X040372Y027310
X040965Y007718
X040965Y010093
X040965Y017217
X041856Y037997
X041861Y017811
X043340Y026123
X043934Y002969
X044528Y008906
X043934Y010850
X044528Y026123
X044528Y038591
X045121Y035622
X045267Y026717
X045418Y007718
X045715Y007124
X045715Y023748
X046011Y012331
X046309Y017811
X046606Y024935
X046902Y001781
X047496Y007124
X047496Y020780
X047793Y035622
X048683Y025529
X048948Y014094
X049011Y012331
X049277Y008312
X049277Y011874
X049586Y015906
X049871Y035622
X050465Y011280
X050465Y012468
X050465Y016030
X050465Y018405
X051652Y001187
X051652Y017811
X051948Y014094
X052246Y020780
X052586Y015906
X053730Y017811
X055214Y017217
X055808Y006531
X055808Y026123
X055808Y036216
X056402Y009202
X056402Y011874
X056995Y005937
X056995Y033247
X057054Y036216
X057292Y039778
X057589Y011874
X057589Y026717
X057948Y033818
X058183Y014249
X058183Y021373
X058776Y002969
X058776Y004156
X058776Y031466
X059244Y028498
X059370Y017217
X059370Y020375
X059964Y005937
X059964Y012468
X060261Y026123
X059964Y037997
X060557Y008906
X060557Y014843
X060557Y017811
X060948Y033818
X061151Y000594
X061566Y005937
X061151Y007718
X061151Y011280
X061151Y021967
X061151Y035606
X061745Y012468
X062042Y026717
X062339Y016624
X062339Y023748
X062339Y024342
X062339Y030279
X062417Y032606
X062417Y035606
X062339Y036809
X062932Y014546
X063526Y016624
X062932Y018405
X062932Y021967
X063526Y021967
X062932Y025529
X063893Y019523
X064120Y026123
X064713Y008312
X064779Y017694
X064713Y024935
X064713Y033247
X065010Y028498
X065604Y037997
X065901Y008312
X066494Y020186
X067088Y013061
X067385Y021373
X067088Y028498
X067088Y037997
X067682Y007718
X067779Y017694
X067682Y033863
X068276Y010687
X068869Y001187
X068276Y021967
X068869Y037106
X070650Y010093
X071244Y009499
X070650Y018405
X070650Y039481
X071541Y002375
X071838Y040965
X071972Y007124
X072431Y004156
X073025Y009499
X073619Y010093
X073025Y013061
X073025Y023154
X073025Y029354
X073802Y027904
X074806Y001187
X074806Y010687
X074806Y019592
X074806Y033841
X075400Y020413
X076587Y007124
T3C0.0394F200S100
X001582Y002476
X001582Y006050
X001582Y008050
X001855Y012603
X001855Y014603
X002091Y018469
X002091Y020469
X002209Y024611
X002209Y026611
X003582Y002476
X007007Y005182
X009007Y005182
X014192Y022273
X016192Y022273
X016907Y001676
X018393Y023113
X018907Y001676
X020393Y023113
X021376Y001676
X023376Y001676
X025844Y001676
X027844Y001676
X030313Y001676
X032313Y001676
X034781Y001676
X035511Y023031
X035543Y038224
X035543Y040224
X036781Y001676
X040011Y023031
X041798Y040011
X041861Y015906
X043798Y040011
X046267Y040011
X046361Y015906
X048267Y040011
X050098Y004838
X051098Y004838
X051098Y007838
X050098Y007838
X051629Y040011
X052098Y004838
X052098Y007838
X053098Y004838
X053098Y007838
X053629Y040011
X054098Y004838
X055098Y004838
X055098Y007838
X054098Y007838
X056098Y004838
X056098Y007838
X060566Y004263
X060629Y040074
X061566Y004263
X062566Y004263
X062629Y040074
X063566Y004263
X066885Y040074
X068885Y040074
X074035Y040074
X076035Y040074
T2C0.0330F200S100
X004326Y014013
X004326Y015013
X005157Y009625
X005157Y011625
X005220Y017694
X006688Y022162
X006894Y020359
X007007Y013225
X007095Y023931
X007095Y026931
X008007Y013225
X008095Y023931
X008095Y026931
X008220Y017694
X009095Y023931
X009095Y026931
X009369Y015013
X009688Y022162
X009894Y020359
X010095Y023931
X011095Y023931
X011095Y026931
X010095Y026931
X011192Y017805
X011298Y020486
X011476Y012331
X011987Y001582
X011987Y003369
X011476Y033780
X011476Y036780
X012095Y023931
X012095Y026931
X012157Y040036
X012306Y005157
X012306Y006944
X012369Y015013
X012457Y031080
X012476Y033780
X012476Y036780
X013095Y023931
X013095Y026931
X013298Y020486
X013457Y031080
X013476Y033780
X013476Y036780
X014157Y008757
X014157Y010757
X014192Y017805
X014157Y040036
X014476Y012331
X014987Y001582
X014987Y003369
X014476Y033780
X014476Y036780
X015139Y031080
X015306Y005157
X015306Y006944
X015476Y033780
X016139Y031080
X015476Y036780
X016476Y033780
X016476Y036780
X016838Y008438
X016838Y011438
X016873Y016592
X016873Y019592
X017476Y033780
X017476Y036780
X017713Y031080
X017767Y026742
X018476Y033780
X018476Y036780
X018625Y039036
X018625Y040036
X018713Y031080
X018767Y026742
X019519Y007863
X020519Y007863
X020519Y013863
X019519Y013863
X019519Y017694
X020519Y017694
X020519Y020694
X019519Y020694
X020700Y034961
X020700Y037961
X020924Y040905
X021225Y028863
X021225Y030863
X021342Y026742
X021519Y007863
X021519Y013863
X021519Y017694
X021519Y020694
X021818Y039117
X022200Y023056
X022200Y024843
X022519Y007863
X022519Y013863
X022519Y017694
X022519Y020694
X023094Y033780
X023094Y036780
X023519Y007863
X023519Y013863
X023519Y017694
X023519Y020694
X023924Y040905
X024094Y033780
X024094Y036780
X024225Y028863
X024225Y030863
X024342Y026742
X024519Y007863
X024519Y013863
X024519Y017694
X024519Y020694
X024818Y039117
X025094Y033780
X025094Y036780
X025200Y023056
X025200Y024843
X025519Y007863
X025519Y013863
X025519Y017694
X025519Y020694
X026094Y033780
X026094Y036780
X026519Y007863
X026519Y013863
X026519Y017694
X026519Y020694
X026669Y023950
X026669Y029312
X027094Y033780
X027094Y036780
X027519Y007863
X027519Y013863
X027519Y017694
X027519Y020694
X028094Y033780
X028094Y036780
X028519Y007863
X028519Y013863
X028519Y017694
X028519Y020694
X029094Y033780
X029094Y036780
X029519Y007863
X029519Y013863
X029669Y023950
X029669Y029312
X030519Y007863
X030519Y013863
X030531Y030531
X030725Y037863
X031137Y015906
X031225Y032863
X031225Y035863
X031519Y007863
X031519Y013863
X032137Y015906
X032519Y007863
X033519Y007863
X033519Y013863
X032519Y013863
X033531Y030531
X033725Y037863
X033818Y006076
X034519Y007863
X034519Y013863
X035519Y007863
X035519Y013863
X035543Y024818
X035818Y006076
X036519Y007863
X036519Y013863
X037519Y007863
X037519Y013863
X038224Y039011
X038224Y040011
X038519Y007863
X038519Y013863
X039931Y001676
X039931Y004357
X040043Y024818
X041649Y013225
X041931Y001676
X041931Y004357
X042149Y010257
X042661Y023031
X042692Y037330
X043267Y004263
X043267Y006050
X043267Y007838
X043649Y013225
X045149Y010257
X045373Y002476
X046267Y004263
X046267Y006050
X046267Y007838
X047161Y023031
X047192Y037330
X048373Y002476
X049810Y038224
X049905Y020375
X050943Y034407
X052204Y002476
X054310Y038224
X054405Y020375
X054717Y010206
X054717Y013206
X054717Y015569
X054717Y018569
X055204Y002476
X055443Y034407
X055717Y010206
X055717Y013206
X055717Y015569
X055717Y018569
X056717Y010206
X056717Y013206
X056717Y015569
X056717Y018569
X057023Y020375
X057054Y037249
X057054Y038249
X057717Y010206
X057717Y013206
X057717Y015569
X057717Y018569
X058717Y010206
X059717Y010206
X059717Y013206
X058717Y013206
X058717Y015569
X059717Y015569
X059717Y018569
X058717Y018569
X060717Y010206
X060717Y013206
X060717Y015569
X060717Y018569
X061523Y020375
X062035Y006944
X064204Y027524
X064225Y033863
X065035Y006944
X065098Y020375
X065991Y014800
X065991Y016800
X065098Y036461
X066098Y036461
X066503Y007838
X066822Y004263
X066822Y006050
X068704Y027524
X068725Y033863
X069503Y007838
X069598Y020375
X069822Y004263
X069822Y006050
X070460Y037393
X070653Y014669
X070653Y017669
X070972Y005157
X071291Y003369
X071460Y037393
X071653Y014669
X071653Y017669
X072216Y020413
X072225Y033863
X072653Y014669
X073653Y014669
X073653Y017669
X072653Y017669
X073972Y005157
X074291Y003369
X074653Y014669
X075653Y014669
X075653Y017669
X074653Y017669
X075759Y004263
X076653Y014669
X076653Y017669
X076716Y020413
X076725Y033863
X076759Y004263
T5C0.0540F200S100
X006731Y002476
X007119Y008000
X007731Y002476
X008119Y008000
X008731Y002476
X009119Y008000
X036224Y028393
X036224Y033755
X036436Y019456
X037224Y028393
X037224Y033755
X037436Y019456
X038224Y028393
X038224Y033755
X038436Y019456
X044267Y028393
X044267Y033755
X044480Y019456
X045267Y028393
X045267Y033755
X045480Y019456
X046267Y028393
X046267Y033755
X046480Y019456
X051515Y023167
X051591Y029487
X052515Y023167
X052591Y029487
X053515Y023167
X053591Y029487
X058244Y029455
X058665Y023167
X059244Y029455
X059665Y023167
X060244Y029455
X060665Y023167
X064822Y011413
X065814Y023167
X065822Y011413
X065891Y029449
X066814Y023167
X066822Y011413
X066891Y029449
X067814Y023167
X067891Y029449
X071972Y007838
X071972Y011413
X072972Y007838
X072972Y011413
X073759Y023031
X073802Y029354
X073972Y007838
X073972Y011413
X074759Y023031
X074802Y029354
X075759Y023031
X075802Y029354
T4C0.0420F200S100
X005975Y033413
X005975Y034503
X005975Y035593
X005975Y036683
X007095Y032868
X007095Y033958
X007095Y035048
X007095Y036138
X007095Y037228
T6C0.1200F200S100
X006535Y030128
X006535Y039968
M30
